%TF.GenerationSoftware,KiCad,Pcbnew,10.0.1*%
%TF.CreationDate,2026-05-07T20:59:11-04:00*%
%TF.ProjectId,tomodachi,746f6d6f-6461-4636-9869-2e6b69636164,rev?*%
%TF.SameCoordinates,Original*%
%TF.FileFunction,Drillmap*%
%TF.FilePolarity,Positive*%
%FSLAX45Y45*%
G04 Gerber Fmt 4.5, Leading zero omitted, Abs format (unit mm)*
G04 Created by KiCad (PCBNEW 10.0.1) date 2026-05-07 20:59:11*
%MOMM*%
%LPD*%
G01*
G04 APERTURE LIST*
%ADD10C,0.050000*%
%ADD11C,0.200000*%
G04 APERTURE END LIST*
D10*
X12250000Y-5300000D02*
X15300000Y-5300000D01*
X12250000Y-7000000D02*
X12250000Y-5300000D01*
X12250000Y-7000000D02*
X12250000Y-12250000D01*
X12250000Y-12250000D02*
X17850000Y-12250000D01*
X15300000Y-7000000D02*
X15300000Y-5300000D01*
X15300000Y-7000000D02*
X17850000Y-7000000D01*
X17850000Y-12250000D02*
X17850000Y-7000000D01*
D11*
X17550000Y-7100000D02*
X17750000Y-7300000D01*
X17750000Y-7100000D02*
X17550000Y-7300000D01*
X12508277Y-12563984D02*
X12508277Y-12363984D01*
X12508277Y-12363984D02*
X12555896Y-12363984D01*
X12555896Y-12363984D02*
X12584467Y-12373508D01*
X12584467Y-12373508D02*
X12603515Y-12392555D01*
X12603515Y-12392555D02*
X12613039Y-12411603D01*
X12613039Y-12411603D02*
X12622562Y-12449698D01*
X12622562Y-12449698D02*
X12622562Y-12478269D01*
X12622562Y-12478269D02*
X12613039Y-12516365D01*
X12613039Y-12516365D02*
X12603515Y-12535412D01*
X12603515Y-12535412D02*
X12584467Y-12554460D01*
X12584467Y-12554460D02*
X12555896Y-12563984D01*
X12555896Y-12563984D02*
X12508277Y-12563984D01*
X12708277Y-12563984D02*
X12708277Y-12430650D01*
X12708277Y-12468746D02*
X12717801Y-12449698D01*
X12717801Y-12449698D02*
X12727324Y-12440174D01*
X12727324Y-12440174D02*
X12746372Y-12430650D01*
X12746372Y-12430650D02*
X12765420Y-12430650D01*
X12832086Y-12563984D02*
X12832086Y-12430650D01*
X12832086Y-12363984D02*
X12822562Y-12373508D01*
X12822562Y-12373508D02*
X12832086Y-12383031D01*
X12832086Y-12383031D02*
X12841610Y-12373508D01*
X12841610Y-12373508D02*
X12832086Y-12363984D01*
X12832086Y-12363984D02*
X12832086Y-12383031D01*
X12955896Y-12563984D02*
X12936848Y-12554460D01*
X12936848Y-12554460D02*
X12927324Y-12535412D01*
X12927324Y-12535412D02*
X12927324Y-12363984D01*
X13060658Y-12563984D02*
X13041610Y-12554460D01*
X13041610Y-12554460D02*
X13032086Y-12535412D01*
X13032086Y-12535412D02*
X13032086Y-12363984D01*
X13289229Y-12563984D02*
X13289229Y-12363984D01*
X13289229Y-12363984D02*
X13355896Y-12506841D01*
X13355896Y-12506841D02*
X13422562Y-12363984D01*
X13422562Y-12363984D02*
X13422562Y-12563984D01*
X13603515Y-12563984D02*
X13603515Y-12459222D01*
X13603515Y-12459222D02*
X13593991Y-12440174D01*
X13593991Y-12440174D02*
X13574943Y-12430650D01*
X13574943Y-12430650D02*
X13536848Y-12430650D01*
X13536848Y-12430650D02*
X13517801Y-12440174D01*
X13603515Y-12554460D02*
X13584467Y-12563984D01*
X13584467Y-12563984D02*
X13536848Y-12563984D01*
X13536848Y-12563984D02*
X13517801Y-12554460D01*
X13517801Y-12554460D02*
X13508277Y-12535412D01*
X13508277Y-12535412D02*
X13508277Y-12516365D01*
X13508277Y-12516365D02*
X13517801Y-12497317D01*
X13517801Y-12497317D02*
X13536848Y-12487793D01*
X13536848Y-12487793D02*
X13584467Y-12487793D01*
X13584467Y-12487793D02*
X13603515Y-12478269D01*
X13698753Y-12430650D02*
X13698753Y-12630650D01*
X13698753Y-12440174D02*
X13717801Y-12430650D01*
X13717801Y-12430650D02*
X13755896Y-12430650D01*
X13755896Y-12430650D02*
X13774943Y-12440174D01*
X13774943Y-12440174D02*
X13784467Y-12449698D01*
X13784467Y-12449698D02*
X13793991Y-12468746D01*
X13793991Y-12468746D02*
X13793991Y-12525888D01*
X13793991Y-12525888D02*
X13784467Y-12544936D01*
X13784467Y-12544936D02*
X13774943Y-12554460D01*
X13774943Y-12554460D02*
X13755896Y-12563984D01*
X13755896Y-12563984D02*
X13717801Y-12563984D01*
X13717801Y-12563984D02*
X13698753Y-12554460D01*
X13879705Y-12544936D02*
X13889229Y-12554460D01*
X13889229Y-12554460D02*
X13879705Y-12563984D01*
X13879705Y-12563984D02*
X13870182Y-12554460D01*
X13870182Y-12554460D02*
X13879705Y-12544936D01*
X13879705Y-12544936D02*
X13879705Y-12563984D01*
X13879705Y-12440174D02*
X13889229Y-12449698D01*
X13889229Y-12449698D02*
X13879705Y-12459222D01*
X13879705Y-12459222D02*
X13870182Y-12449698D01*
X13870182Y-12449698D02*
X13879705Y-12440174D01*
X13879705Y-12440174D02*
X13879705Y-12459222D01*
X12047500Y-12792500D02*
X12247500Y-12992500D01*
X12247500Y-12792500D02*
X12047500Y-12992500D01*
X12498753Y-12803031D02*
X12508277Y-12793508D01*
X12508277Y-12793508D02*
X12527324Y-12783984D01*
X12527324Y-12783984D02*
X12574943Y-12783984D01*
X12574943Y-12783984D02*
X12593991Y-12793508D01*
X12593991Y-12793508D02*
X12603515Y-12803031D01*
X12603515Y-12803031D02*
X12613039Y-12822079D01*
X12613039Y-12822079D02*
X12613039Y-12841127D01*
X12613039Y-12841127D02*
X12603515Y-12869698D01*
X12603515Y-12869698D02*
X12489229Y-12983984D01*
X12489229Y-12983984D02*
X12613039Y-12983984D01*
X12698753Y-12964936D02*
X12708277Y-12974460D01*
X12708277Y-12974460D02*
X12698753Y-12983984D01*
X12698753Y-12983984D02*
X12689229Y-12974460D01*
X12689229Y-12974460D02*
X12698753Y-12964936D01*
X12698753Y-12964936D02*
X12698753Y-12983984D01*
X12832086Y-12783984D02*
X12851134Y-12783984D01*
X12851134Y-12783984D02*
X12870182Y-12793508D01*
X12870182Y-12793508D02*
X12879705Y-12803031D01*
X12879705Y-12803031D02*
X12889229Y-12822079D01*
X12889229Y-12822079D02*
X12898753Y-12860174D01*
X12898753Y-12860174D02*
X12898753Y-12907793D01*
X12898753Y-12907793D02*
X12889229Y-12945888D01*
X12889229Y-12945888D02*
X12879705Y-12964936D01*
X12879705Y-12964936D02*
X12870182Y-12974460D01*
X12870182Y-12974460D02*
X12851134Y-12983984D01*
X12851134Y-12983984D02*
X12832086Y-12983984D01*
X12832086Y-12983984D02*
X12813039Y-12974460D01*
X12813039Y-12974460D02*
X12803515Y-12964936D01*
X12803515Y-12964936D02*
X12793991Y-12945888D01*
X12793991Y-12945888D02*
X12784467Y-12907793D01*
X12784467Y-12907793D02*
X12784467Y-12860174D01*
X12784467Y-12860174D02*
X12793991Y-12822079D01*
X12793991Y-12822079D02*
X12803515Y-12803031D01*
X12803515Y-12803031D02*
X12813039Y-12793508D01*
X12813039Y-12793508D02*
X12832086Y-12783984D01*
X13022562Y-12783984D02*
X13041610Y-12783984D01*
X13041610Y-12783984D02*
X13060658Y-12793508D01*
X13060658Y-12793508D02*
X13070182Y-12803031D01*
X13070182Y-12803031D02*
X13079705Y-12822079D01*
X13079705Y-12822079D02*
X13089229Y-12860174D01*
X13089229Y-12860174D02*
X13089229Y-12907793D01*
X13089229Y-12907793D02*
X13079705Y-12945888D01*
X13079705Y-12945888D02*
X13070182Y-12964936D01*
X13070182Y-12964936D02*
X13060658Y-12974460D01*
X13060658Y-12974460D02*
X13041610Y-12983984D01*
X13041610Y-12983984D02*
X13022562Y-12983984D01*
X13022562Y-12983984D02*
X13003515Y-12974460D01*
X13003515Y-12974460D02*
X12993991Y-12964936D01*
X12993991Y-12964936D02*
X12984467Y-12945888D01*
X12984467Y-12945888D02*
X12974943Y-12907793D01*
X12974943Y-12907793D02*
X12974943Y-12860174D01*
X12974943Y-12860174D02*
X12984467Y-12822079D01*
X12984467Y-12822079D02*
X12993991Y-12803031D01*
X12993991Y-12803031D02*
X13003515Y-12793508D01*
X13003515Y-12793508D02*
X13022562Y-12783984D01*
X13213039Y-12783984D02*
X13232086Y-12783984D01*
X13232086Y-12783984D02*
X13251134Y-12793508D01*
X13251134Y-12793508D02*
X13260658Y-12803031D01*
X13260658Y-12803031D02*
X13270182Y-12822079D01*
X13270182Y-12822079D02*
X13279705Y-12860174D01*
X13279705Y-12860174D02*
X13279705Y-12907793D01*
X13279705Y-12907793D02*
X13270182Y-12945888D01*
X13270182Y-12945888D02*
X13260658Y-12964936D01*
X13260658Y-12964936D02*
X13251134Y-12974460D01*
X13251134Y-12974460D02*
X13232086Y-12983984D01*
X13232086Y-12983984D02*
X13213039Y-12983984D01*
X13213039Y-12983984D02*
X13193991Y-12974460D01*
X13193991Y-12974460D02*
X13184467Y-12964936D01*
X13184467Y-12964936D02*
X13174943Y-12945888D01*
X13174943Y-12945888D02*
X13165420Y-12907793D01*
X13165420Y-12907793D02*
X13165420Y-12860174D01*
X13165420Y-12860174D02*
X13174943Y-12822079D01*
X13174943Y-12822079D02*
X13184467Y-12803031D01*
X13184467Y-12803031D02*
X13193991Y-12793508D01*
X13193991Y-12793508D02*
X13213039Y-12783984D01*
X13365420Y-12983984D02*
X13365420Y-12850650D01*
X13365420Y-12869698D02*
X13374943Y-12860174D01*
X13374943Y-12860174D02*
X13393991Y-12850650D01*
X13393991Y-12850650D02*
X13422563Y-12850650D01*
X13422563Y-12850650D02*
X13441610Y-12860174D01*
X13441610Y-12860174D02*
X13451134Y-12879222D01*
X13451134Y-12879222D02*
X13451134Y-12983984D01*
X13451134Y-12879222D02*
X13460658Y-12860174D01*
X13460658Y-12860174D02*
X13479705Y-12850650D01*
X13479705Y-12850650D02*
X13508277Y-12850650D01*
X13508277Y-12850650D02*
X13527324Y-12860174D01*
X13527324Y-12860174D02*
X13536848Y-12879222D01*
X13536848Y-12879222D02*
X13536848Y-12983984D01*
X13632086Y-12983984D02*
X13632086Y-12850650D01*
X13632086Y-12869698D02*
X13641610Y-12860174D01*
X13641610Y-12860174D02*
X13660658Y-12850650D01*
X13660658Y-12850650D02*
X13689229Y-12850650D01*
X13689229Y-12850650D02*
X13708277Y-12860174D01*
X13708277Y-12860174D02*
X13717801Y-12879222D01*
X13717801Y-12879222D02*
X13717801Y-12983984D01*
X13717801Y-12879222D02*
X13727324Y-12860174D01*
X13727324Y-12860174D02*
X13746372Y-12850650D01*
X13746372Y-12850650D02*
X13774943Y-12850650D01*
X13774943Y-12850650D02*
X13793991Y-12860174D01*
X13793991Y-12860174D02*
X13803515Y-12879222D01*
X13803515Y-12879222D02*
X13803515Y-12983984D01*
X14193991Y-12774460D02*
X14022563Y-13031603D01*
X14451134Y-12783984D02*
X14470182Y-12783984D01*
X14470182Y-12783984D02*
X14489229Y-12793508D01*
X14489229Y-12793508D02*
X14498753Y-12803031D01*
X14498753Y-12803031D02*
X14508277Y-12822079D01*
X14508277Y-12822079D02*
X14517801Y-12860174D01*
X14517801Y-12860174D02*
X14517801Y-12907793D01*
X14517801Y-12907793D02*
X14508277Y-12945888D01*
X14508277Y-12945888D02*
X14498753Y-12964936D01*
X14498753Y-12964936D02*
X14489229Y-12974460D01*
X14489229Y-12974460D02*
X14470182Y-12983984D01*
X14470182Y-12983984D02*
X14451134Y-12983984D01*
X14451134Y-12983984D02*
X14432086Y-12974460D01*
X14432086Y-12974460D02*
X14422563Y-12964936D01*
X14422563Y-12964936D02*
X14413039Y-12945888D01*
X14413039Y-12945888D02*
X14403515Y-12907793D01*
X14403515Y-12907793D02*
X14403515Y-12860174D01*
X14403515Y-12860174D02*
X14413039Y-12822079D01*
X14413039Y-12822079D02*
X14422563Y-12803031D01*
X14422563Y-12803031D02*
X14432086Y-12793508D01*
X14432086Y-12793508D02*
X14451134Y-12783984D01*
X14603515Y-12964936D02*
X14613039Y-12974460D01*
X14613039Y-12974460D02*
X14603515Y-12983984D01*
X14603515Y-12983984D02*
X14593991Y-12974460D01*
X14593991Y-12974460D02*
X14603515Y-12964936D01*
X14603515Y-12964936D02*
X14603515Y-12983984D01*
X14736848Y-12783984D02*
X14755896Y-12783984D01*
X14755896Y-12783984D02*
X14774944Y-12793508D01*
X14774944Y-12793508D02*
X14784467Y-12803031D01*
X14784467Y-12803031D02*
X14793991Y-12822079D01*
X14793991Y-12822079D02*
X14803515Y-12860174D01*
X14803515Y-12860174D02*
X14803515Y-12907793D01*
X14803515Y-12907793D02*
X14793991Y-12945888D01*
X14793991Y-12945888D02*
X14784467Y-12964936D01*
X14784467Y-12964936D02*
X14774944Y-12974460D01*
X14774944Y-12974460D02*
X14755896Y-12983984D01*
X14755896Y-12983984D02*
X14736848Y-12983984D01*
X14736848Y-12983984D02*
X14717801Y-12974460D01*
X14717801Y-12974460D02*
X14708277Y-12964936D01*
X14708277Y-12964936D02*
X14698753Y-12945888D01*
X14698753Y-12945888D02*
X14689229Y-12907793D01*
X14689229Y-12907793D02*
X14689229Y-12860174D01*
X14689229Y-12860174D02*
X14698753Y-12822079D01*
X14698753Y-12822079D02*
X14708277Y-12803031D01*
X14708277Y-12803031D02*
X14717801Y-12793508D01*
X14717801Y-12793508D02*
X14736848Y-12783984D01*
X14870182Y-12783984D02*
X15003515Y-12783984D01*
X15003515Y-12783984D02*
X14917801Y-12983984D01*
X15108277Y-12869698D02*
X15089229Y-12860174D01*
X15089229Y-12860174D02*
X15079706Y-12850650D01*
X15079706Y-12850650D02*
X15070182Y-12831603D01*
X15070182Y-12831603D02*
X15070182Y-12822079D01*
X15070182Y-12822079D02*
X15079706Y-12803031D01*
X15079706Y-12803031D02*
X15089229Y-12793508D01*
X15089229Y-12793508D02*
X15108277Y-12783984D01*
X15108277Y-12783984D02*
X15146372Y-12783984D01*
X15146372Y-12783984D02*
X15165420Y-12793508D01*
X15165420Y-12793508D02*
X15174944Y-12803031D01*
X15174944Y-12803031D02*
X15184467Y-12822079D01*
X15184467Y-12822079D02*
X15184467Y-12831603D01*
X15184467Y-12831603D02*
X15174944Y-12850650D01*
X15174944Y-12850650D02*
X15165420Y-12860174D01*
X15165420Y-12860174D02*
X15146372Y-12869698D01*
X15146372Y-12869698D02*
X15108277Y-12869698D01*
X15108277Y-12869698D02*
X15089229Y-12879222D01*
X15089229Y-12879222D02*
X15079706Y-12888746D01*
X15079706Y-12888746D02*
X15070182Y-12907793D01*
X15070182Y-12907793D02*
X15070182Y-12945888D01*
X15070182Y-12945888D02*
X15079706Y-12964936D01*
X15079706Y-12964936D02*
X15089229Y-12974460D01*
X15089229Y-12974460D02*
X15108277Y-12983984D01*
X15108277Y-12983984D02*
X15146372Y-12983984D01*
X15146372Y-12983984D02*
X15165420Y-12974460D01*
X15165420Y-12974460D02*
X15174944Y-12964936D01*
X15174944Y-12964936D02*
X15184467Y-12945888D01*
X15184467Y-12945888D02*
X15184467Y-12907793D01*
X15184467Y-12907793D02*
X15174944Y-12888746D01*
X15174944Y-12888746D02*
X15165420Y-12879222D01*
X15165420Y-12879222D02*
X15146372Y-12869698D01*
X15251134Y-12783984D02*
X15384467Y-12783984D01*
X15384467Y-12783984D02*
X15298753Y-12983984D01*
X15451134Y-12783984D02*
X15451134Y-12822079D01*
X15527325Y-12783984D02*
X15527325Y-12822079D01*
X15822563Y-13060174D02*
X15813039Y-13050650D01*
X15813039Y-13050650D02*
X15793991Y-13022079D01*
X15793991Y-13022079D02*
X15784468Y-13003031D01*
X15784468Y-13003031D02*
X15774944Y-12974460D01*
X15774944Y-12974460D02*
X15765420Y-12926841D01*
X15765420Y-12926841D02*
X15765420Y-12888746D01*
X15765420Y-12888746D02*
X15774944Y-12841127D01*
X15774944Y-12841127D02*
X15784468Y-12812555D01*
X15784468Y-12812555D02*
X15793991Y-12793508D01*
X15793991Y-12793508D02*
X15813039Y-12764936D01*
X15813039Y-12764936D02*
X15822563Y-12755412D01*
X16003515Y-12983984D02*
X15889229Y-12983984D01*
X15946372Y-12983984D02*
X15946372Y-12783984D01*
X15946372Y-12783984D02*
X15927325Y-12812555D01*
X15927325Y-12812555D02*
X15908277Y-12831603D01*
X15908277Y-12831603D02*
X15889229Y-12841127D01*
X16241610Y-12983984D02*
X16241610Y-12783984D01*
X16327325Y-12983984D02*
X16327325Y-12879222D01*
X16327325Y-12879222D02*
X16317801Y-12860174D01*
X16317801Y-12860174D02*
X16298753Y-12850650D01*
X16298753Y-12850650D02*
X16270182Y-12850650D01*
X16270182Y-12850650D02*
X16251134Y-12860174D01*
X16251134Y-12860174D02*
X16241610Y-12869698D01*
X16451134Y-12983984D02*
X16432087Y-12974460D01*
X16432087Y-12974460D02*
X16422563Y-12964936D01*
X16422563Y-12964936D02*
X16413039Y-12945888D01*
X16413039Y-12945888D02*
X16413039Y-12888746D01*
X16413039Y-12888746D02*
X16422563Y-12869698D01*
X16422563Y-12869698D02*
X16432087Y-12860174D01*
X16432087Y-12860174D02*
X16451134Y-12850650D01*
X16451134Y-12850650D02*
X16479706Y-12850650D01*
X16479706Y-12850650D02*
X16498753Y-12860174D01*
X16498753Y-12860174D02*
X16508277Y-12869698D01*
X16508277Y-12869698D02*
X16517801Y-12888746D01*
X16517801Y-12888746D02*
X16517801Y-12945888D01*
X16517801Y-12945888D02*
X16508277Y-12964936D01*
X16508277Y-12964936D02*
X16498753Y-12974460D01*
X16498753Y-12974460D02*
X16479706Y-12983984D01*
X16479706Y-12983984D02*
X16451134Y-12983984D01*
X16632087Y-12983984D02*
X16613039Y-12974460D01*
X16613039Y-12974460D02*
X16603515Y-12955412D01*
X16603515Y-12955412D02*
X16603515Y-12783984D01*
X16784468Y-12974460D02*
X16765420Y-12983984D01*
X16765420Y-12983984D02*
X16727325Y-12983984D01*
X16727325Y-12983984D02*
X16708277Y-12974460D01*
X16708277Y-12974460D02*
X16698753Y-12955412D01*
X16698753Y-12955412D02*
X16698753Y-12879222D01*
X16698753Y-12879222D02*
X16708277Y-12860174D01*
X16708277Y-12860174D02*
X16727325Y-12850650D01*
X16727325Y-12850650D02*
X16765420Y-12850650D01*
X16765420Y-12850650D02*
X16784468Y-12860174D01*
X16784468Y-12860174D02*
X16793992Y-12879222D01*
X16793992Y-12879222D02*
X16793992Y-12898269D01*
X16793992Y-12898269D02*
X16698753Y-12917317D01*
X16860658Y-13060174D02*
X16870182Y-13050650D01*
X16870182Y-13050650D02*
X16889230Y-13022079D01*
X16889230Y-13022079D02*
X16898753Y-13003031D01*
X16898753Y-13003031D02*
X16908277Y-12974460D01*
X16908277Y-12974460D02*
X16917801Y-12926841D01*
X16917801Y-12926841D02*
X16917801Y-12888746D01*
X16917801Y-12888746D02*
X16908277Y-12841127D01*
X16908277Y-12841127D02*
X16898753Y-12812555D01*
X16898753Y-12812555D02*
X16889230Y-12793508D01*
X16889230Y-12793508D02*
X16870182Y-12764936D01*
X16870182Y-12764936D02*
X16860658Y-12755412D01*
X17222563Y-13060174D02*
X17213039Y-13050650D01*
X17213039Y-13050650D02*
X17193992Y-13022079D01*
X17193992Y-13022079D02*
X17184468Y-13003031D01*
X17184468Y-13003031D02*
X17174944Y-12974460D01*
X17174944Y-12974460D02*
X17165420Y-12926841D01*
X17165420Y-12926841D02*
X17165420Y-12888746D01*
X17165420Y-12888746D02*
X17174944Y-12841127D01*
X17174944Y-12841127D02*
X17184468Y-12812555D01*
X17184468Y-12812555D02*
X17193992Y-12793508D01*
X17193992Y-12793508D02*
X17213039Y-12764936D01*
X17213039Y-12764936D02*
X17222563Y-12755412D01*
X17298753Y-12850650D02*
X17298753Y-12983984D01*
X17298753Y-12869698D02*
X17308277Y-12860174D01*
X17308277Y-12860174D02*
X17327325Y-12850650D01*
X17327325Y-12850650D02*
X17355896Y-12850650D01*
X17355896Y-12850650D02*
X17374944Y-12860174D01*
X17374944Y-12860174D02*
X17384468Y-12879222D01*
X17384468Y-12879222D02*
X17384468Y-12983984D01*
X17508277Y-12983984D02*
X17489230Y-12974460D01*
X17489230Y-12974460D02*
X17479706Y-12964936D01*
X17479706Y-12964936D02*
X17470182Y-12945888D01*
X17470182Y-12945888D02*
X17470182Y-12888746D01*
X17470182Y-12888746D02*
X17479706Y-12869698D01*
X17479706Y-12869698D02*
X17489230Y-12860174D01*
X17489230Y-12860174D02*
X17508277Y-12850650D01*
X17508277Y-12850650D02*
X17536849Y-12850650D01*
X17536849Y-12850650D02*
X17555896Y-12860174D01*
X17555896Y-12860174D02*
X17565420Y-12869698D01*
X17565420Y-12869698D02*
X17574944Y-12888746D01*
X17574944Y-12888746D02*
X17574944Y-12945888D01*
X17574944Y-12945888D02*
X17565420Y-12964936D01*
X17565420Y-12964936D02*
X17555896Y-12974460D01*
X17555896Y-12974460D02*
X17536849Y-12983984D01*
X17536849Y-12983984D02*
X17508277Y-12983984D01*
X17632087Y-12850650D02*
X17708277Y-12850650D01*
X17660658Y-12783984D02*
X17660658Y-12955412D01*
X17660658Y-12955412D02*
X17670182Y-12974460D01*
X17670182Y-12974460D02*
X17689230Y-12983984D01*
X17689230Y-12983984D02*
X17708277Y-12983984D01*
X17927325Y-12850650D02*
X17927325Y-13050650D01*
X17927325Y-12860174D02*
X17946373Y-12850650D01*
X17946373Y-12850650D02*
X17984468Y-12850650D01*
X17984468Y-12850650D02*
X18003515Y-12860174D01*
X18003515Y-12860174D02*
X18013039Y-12869698D01*
X18013039Y-12869698D02*
X18022563Y-12888746D01*
X18022563Y-12888746D02*
X18022563Y-12945888D01*
X18022563Y-12945888D02*
X18013039Y-12964936D01*
X18013039Y-12964936D02*
X18003515Y-12974460D01*
X18003515Y-12974460D02*
X17984468Y-12983984D01*
X17984468Y-12983984D02*
X17946373Y-12983984D01*
X17946373Y-12983984D02*
X17927325Y-12974460D01*
X18136849Y-12983984D02*
X18117801Y-12974460D01*
X18117801Y-12974460D02*
X18108277Y-12955412D01*
X18108277Y-12955412D02*
X18108277Y-12783984D01*
X18298754Y-12983984D02*
X18298754Y-12879222D01*
X18298754Y-12879222D02*
X18289230Y-12860174D01*
X18289230Y-12860174D02*
X18270182Y-12850650D01*
X18270182Y-12850650D02*
X18232087Y-12850650D01*
X18232087Y-12850650D02*
X18213039Y-12860174D01*
X18298754Y-12974460D02*
X18279706Y-12983984D01*
X18279706Y-12983984D02*
X18232087Y-12983984D01*
X18232087Y-12983984D02*
X18213039Y-12974460D01*
X18213039Y-12974460D02*
X18203515Y-12955412D01*
X18203515Y-12955412D02*
X18203515Y-12936365D01*
X18203515Y-12936365D02*
X18213039Y-12917317D01*
X18213039Y-12917317D02*
X18232087Y-12907793D01*
X18232087Y-12907793D02*
X18279706Y-12907793D01*
X18279706Y-12907793D02*
X18298754Y-12898269D01*
X18365420Y-12850650D02*
X18441611Y-12850650D01*
X18393992Y-12783984D02*
X18393992Y-12955412D01*
X18393992Y-12955412D02*
X18403515Y-12974460D01*
X18403515Y-12974460D02*
X18422563Y-12983984D01*
X18422563Y-12983984D02*
X18441611Y-12983984D01*
X18584468Y-12974460D02*
X18565420Y-12983984D01*
X18565420Y-12983984D02*
X18527325Y-12983984D01*
X18527325Y-12983984D02*
X18508277Y-12974460D01*
X18508277Y-12974460D02*
X18498754Y-12955412D01*
X18498754Y-12955412D02*
X18498754Y-12879222D01*
X18498754Y-12879222D02*
X18508277Y-12860174D01*
X18508277Y-12860174D02*
X18527325Y-12850650D01*
X18527325Y-12850650D02*
X18565420Y-12850650D01*
X18565420Y-12850650D02*
X18584468Y-12860174D01*
X18584468Y-12860174D02*
X18593992Y-12879222D01*
X18593992Y-12879222D02*
X18593992Y-12898269D01*
X18593992Y-12898269D02*
X18498754Y-12917317D01*
X18765420Y-12983984D02*
X18765420Y-12783984D01*
X18765420Y-12974460D02*
X18746373Y-12983984D01*
X18746373Y-12983984D02*
X18708277Y-12983984D01*
X18708277Y-12983984D02*
X18689230Y-12974460D01*
X18689230Y-12974460D02*
X18679706Y-12964936D01*
X18679706Y-12964936D02*
X18670182Y-12945888D01*
X18670182Y-12945888D02*
X18670182Y-12888746D01*
X18670182Y-12888746D02*
X18679706Y-12869698D01*
X18679706Y-12869698D02*
X18689230Y-12860174D01*
X18689230Y-12860174D02*
X18708277Y-12850650D01*
X18708277Y-12850650D02*
X18746373Y-12850650D01*
X18746373Y-12850650D02*
X18765420Y-12860174D01*
X18841611Y-13060174D02*
X18851135Y-13050650D01*
X18851135Y-13050650D02*
X18870182Y-13022079D01*
X18870182Y-13022079D02*
X18879706Y-13003031D01*
X18879706Y-13003031D02*
X18889230Y-12974460D01*
X18889230Y-12974460D02*
X18898754Y-12926841D01*
X18898754Y-12926841D02*
X18898754Y-12888746D01*
X18898754Y-12888746D02*
X18889230Y-12841127D01*
X18889230Y-12841127D02*
X18879706Y-12812555D01*
X18879706Y-12812555D02*
X18870182Y-12793508D01*
X18870182Y-12793508D02*
X18851135Y-12764936D01*
X18851135Y-12764936D02*
X18841611Y-12755412D01*
M02*
