%TF.GenerationSoftware,KiCad,Pcbnew,10.0.1*%
%TF.CreationDate,2026-05-07T20:59:45-04:00*%
%TF.ProjectId,tomodachi,746f6d6f-6461-4636-9869-2e6b69636164,rev?*%
%TF.SameCoordinates,Original*%
%TF.FileFunction,Copper,L2,Bot*%
%TF.FilePolarity,Positive*%
%FSLAX46Y46*%
G04 Gerber Fmt 4.6, Leading zero omitted, Abs format (unit mm)*
G04 Created by KiCad (PCBNEW 10.0.1) date 2026-05-07 20:59:45*
%MOMM*%
%LPD*%
G01*
G04 APERTURE LIST*
G04 Aperture macros list*
%AMRoundRect*
0 Rectangle with rounded corners*
0 $1 Rounding radius*
0 $2 $3 $4 $5 $6 $7 $8 $9 X,Y pos of 4 corners*
0 Add a 4 corners polygon primitive as box body*
4,1,4,$2,$3,$4,$5,$6,$7,$8,$9,$2,$3,0*
0 Add four circle primitives for the rounded corners*
1,1,$1+$1,$2,$3*
1,1,$1+$1,$4,$5*
1,1,$1+$1,$6,$7*
1,1,$1+$1,$8,$9*
0 Add four rect primitives between the rounded corners*
20,1,$1+$1,$2,$3,$4,$5,0*
20,1,$1+$1,$4,$5,$6,$7,0*
20,1,$1+$1,$6,$7,$8,$9,0*
20,1,$1+$1,$8,$9,$2,$3,0*%
G04 Aperture macros list end*
%TA.AperFunction,ComponentPad*%
%ADD10R,2.800000X2.800000*%
%TD*%
%TA.AperFunction,ComponentPad*%
%ADD11C,1.524000*%
%TD*%
%TA.AperFunction,ComponentPad*%
%ADD12RoundRect,0.250002X-1.499998X-1.499998X1.499998X-1.499998X1.499998X1.499998X-1.499998X1.499998X0*%
%TD*%
%TA.AperFunction,ComponentPad*%
%ADD13C,1.600000*%
%TD*%
%TA.AperFunction,ComponentPad*%
%ADD14C,1.508000*%
%TD*%
%TA.AperFunction,ComponentPad*%
%ADD15R,1.508000X1.508000*%
%TD*%
%TA.AperFunction,ComponentPad*%
%ADD16O,1.600000X2.000000*%
%TD*%
%TA.AperFunction,ComponentPad*%
%ADD17C,1.930400*%
%TD*%
%TA.AperFunction,ComponentPad*%
%ADD18R,1.930400X1.930400*%
%TD*%
%TA.AperFunction,ViaPad*%
%ADD19C,0.600000*%
%TD*%
%TA.AperFunction,Conductor*%
%ADD20C,0.200000*%
%TD*%
G04 APERTURE END LIST*
D10*
%TO.P,TP4056-1,1,5V_1*%
%TO.N,Net-(D1-A)*%
X131887500Y-120287500D03*
%TO.P,TP4056-1,2,GND_2*%
%TO.N,GND*%
X146087500Y-120287500D03*
%TO.P,TP4056-1,3,Out+_3*%
%TO.N,Net-(SW1-A)*%
X131887500Y-97387500D03*
%TO.P,TP4056-1,4,Out-_4*%
%TO.N,Net-(D1-K)*%
X146387500Y-97387500D03*
%TO.P,TP4056-1,5,B+_5*%
%TO.N,Net-(BT1-+)*%
X135387500Y-97387500D03*
%TO.P,TP4056-1,6,B-_6*%
%TO.N,Net-(BT1--)*%
X142987500Y-97387500D03*
%TD*%
D11*
%TO.P,U1,1,GPIO2_A0_D0_1*%
%TO.N,Net-(U1-GPIO2_A0_D0)*%
X131660000Y-75255000D03*
%TO.P,U1,2,GPIO3_A1_D1_2*%
%TO.N,Net-(U1-GPIO3_A1_D1)*%
X131660000Y-77795000D03*
%TO.P,U1,3,GPIO4_A2_D2_3*%
%TO.N,Net-(U1-GPIO4_A2_D2)*%
X131660000Y-80335000D03*
%TO.P,U1,4,GPIO5_A3_D3_4*%
%TO.N,unconnected-(U1-GPIO5_A3_D3-Pad4)*%
X131660000Y-82875000D03*
%TO.P,U1,5,GPIO6_D4_SDA_5*%
%TO.N,Net-(SSD1-SDA)*%
X131660000Y-85415000D03*
%TO.P,U1,6,GPIO7_D5_SCL_6*%
%TO.N,Net-(SSD1-SCL)*%
X131660000Y-87955000D03*
%TO.P,U1,7,GPIO21_D6_TX_7*%
%TO.N,unconnected-(U1-GPIO21_D6_TX-Pad7)*%
X131660000Y-90495000D03*
%TO.P,U1,8,GPIO20_D7_RX_8*%
%TO.N,unconnected-(U1-GPIO20_D7_RX-Pad8)*%
X146900000Y-90495000D03*
%TO.P,U1,9,GPIO8_D8_SCK_9*%
%TO.N,unconnected-(U1-GPIO8_D8_SCK-Pad9)*%
X146900000Y-87955000D03*
%TO.P,U1,10,GPIO9_D9_MISO_10*%
%TO.N,unconnected-(U1-GPIO9_D9_MISO-Pad10)*%
X146900000Y-85415000D03*
%TO.P,U1,11,GPIO10_D10_MOSI_11*%
%TO.N,unconnected-(U1-GPIO10_D10_MOSI-Pad11)*%
X146900000Y-82875000D03*
%TO.P,U1,12,3V3_12*%
%TO.N,unconnected-(U1-3V3-Pad12)*%
X146900000Y-80335000D03*
%TO.P,U1,13,GND_13*%
%TO.N,Net-(D1-K)*%
X146900000Y-77795000D03*
%TO.P,U1,14,VBUS_14*%
X146900000Y-75255000D03*
%TD*%
D12*
%TO.P,E1,1*%
%TO.N,Net-(D2-A)*%
X126000000Y-119000000D03*
%TD*%
D13*
%TO.P,D2,1,K_1*%
%TO.N,Net-(D1-K)*%
X125875000Y-94840000D03*
%TO.P,D2,2,A_2*%
%TO.N,Net-(D2-A)*%
X125875000Y-115160000D03*
%TD*%
D14*
%TO.P,U3,1,32K_1*%
%TO.N,unconnected-(U3-32K-Pad1)*%
X144700000Y-68500000D03*
%TO.P,U3,2,SQW_2*%
%TO.N,unconnected-(U3-SQW-Pad2)*%
X142160000Y-68500000D03*
%TO.P,U3,3,SCL_3*%
%TO.N,Net-(SSD1-SCL)*%
X139620000Y-68500000D03*
%TO.P,U3,4,SDA_4*%
%TO.N,Net-(SSD1-SDA)*%
X137080000Y-68500000D03*
%TO.P,U3,5,VCC_5*%
%TO.N,Net-(D1-K)*%
X134540000Y-68500000D03*
D15*
%TO.P,U3,6,GND_6*%
X132000000Y-68500000D03*
%TD*%
D16*
%TO.P,SSD1,1,GND_1*%
%TO.N,Net-(D1-K)*%
X160080000Y-76275000D03*
%TO.P,SSD1,2,VCC_2*%
X162620000Y-76275000D03*
%TO.P,SSD1,3,SCL_3*%
%TO.N,Net-(SSD1-SCL)*%
X165160000Y-76275000D03*
%TO.P,SSD1,4,SDA_4*%
%TO.N,Net-(SSD1-SDA)*%
X167700000Y-76275000D03*
%TD*%
D13*
%TO.P,D1,1,K_1*%
%TO.N,Net-(D1-K)*%
X126000000Y-72105000D03*
%TO.P,D1,2,A_2*%
%TO.N,Net-(D1-A)*%
X126000000Y-92425000D03*
%TD*%
D17*
%TO.P,U2,CLK,CLK_CLK*%
%TO.N,Net-(U1-GPIO2_A0_D0)*%
X174746000Y-106667500D03*
%TO.P,U2,DT,DT_DT*%
%TO.N,Net-(U1-GPIO3_A1_D1)*%
X174746000Y-109207500D03*
D18*
%TO.P,U2,GND,GND_GND*%
%TO.N,Net-(D1-K)*%
X174746000Y-116827500D03*
D17*
%TO.P,U2,SW,SW_SW*%
%TO.N,Net-(U1-GPIO4_A2_D2)*%
X174746000Y-111747500D03*
%TO.P,U2,VCC,VCC_VCC*%
%TO.N,Net-(D1-K)*%
X174746000Y-114287500D03*
%TD*%
D19*
%TO.N,Net-(D1-K)*%
X157000000Y-71600000D03*
X150000000Y-77500000D03*
%TO.N,Net-(SSD1-SCL)*%
X129100000Y-84000000D03*
%TD*%
%TO.N,Net-(D1-K)*%
D20*
X130890947Y-92765947D02*
X130781894Y-92875000D01*
X135300000Y-71800000D02*
X157000000Y-71800000D01*
X174746000Y-114287500D02*
X150000000Y-89541500D01*
X146900000Y-77795000D02*
X146920000Y-77795000D01*
X150000000Y-89541500D02*
X150000000Y-77500000D01*
X161000000Y-74375000D02*
X162620000Y-75995000D01*
X131220105Y-89017000D02*
X133138000Y-89017000D01*
X157000000Y-71800000D02*
X157000000Y-71600000D01*
X127100000Y-95850000D02*
X127100000Y-93137105D01*
X126000000Y-83796895D02*
X131220105Y-89017000D01*
X162620000Y-75995000D02*
X162620000Y-76275000D01*
X147780000Y-74375000D02*
X161000000Y-74375000D01*
X145500000Y-96500000D02*
X145500000Y-79195000D01*
X132000000Y-68500000D02*
X135300000Y-71800000D01*
X125875000Y-97075000D02*
X127100000Y-95850000D01*
X146900000Y-75255000D02*
X147780000Y-74375000D01*
X126000000Y-74340000D02*
X126000000Y-83796895D01*
X159980000Y-76375000D02*
X160080000Y-76275000D01*
X155306000Y-97387500D02*
X174746000Y-116827500D01*
X146387500Y-97387500D02*
X155306000Y-97387500D01*
X145500000Y-79195000D02*
X146900000Y-77795000D01*
X127100000Y-93137105D02*
X131220105Y-89017000D01*
X146920000Y-77795000D02*
X148340000Y-76375000D01*
X130781895Y-92875000D02*
X130890947Y-92765947D01*
X148340000Y-76375000D02*
X159980000Y-76375000D01*
X133138000Y-89017000D02*
X146900000Y-75255000D01*
X146387500Y-97387500D02*
X145500000Y-96500000D01*
%TO.N,Net-(U1-GPIO2_A0_D0)*%
X174746000Y-80746000D02*
X167000000Y-73000000D01*
X133915000Y-73000000D02*
X131660000Y-75255000D01*
X174746000Y-106667500D02*
X174746000Y-80746000D01*
X167000000Y-73000000D02*
X133915000Y-73000000D01*
%TO.N,Net-(U1-GPIO3_A1_D1)*%
X176011200Y-81445515D02*
X167165685Y-72600000D01*
X174746000Y-109207500D02*
X176011200Y-107942300D01*
X167165685Y-72600000D02*
X132813105Y-72600000D01*
X130598000Y-76733000D02*
X131660000Y-77795000D01*
X130598000Y-74815105D02*
X130598000Y-76733000D01*
X132813105Y-72600000D02*
X130598000Y-74815105D01*
X176011200Y-107942300D02*
X176011200Y-81445515D01*
%TO.N,Net-(U1-GPIO4_A2_D2)*%
X176500000Y-109993500D02*
X176500000Y-81000000D01*
X130198000Y-78873000D02*
X131660000Y-80335000D01*
X167700000Y-72200000D02*
X132647419Y-72200000D01*
X176500000Y-81000000D02*
X167700000Y-72200000D01*
X130198000Y-74649420D02*
X130198000Y-78873000D01*
X132647419Y-72200000D02*
X130198000Y-74649420D01*
X174746000Y-111747500D02*
X176500000Y-109993500D01*
%TO.N,Net-(SSD1-SDA)*%
X167700000Y-76275000D02*
X164900000Y-73475000D01*
X143600000Y-73475000D02*
X131660000Y-85415000D01*
X164900000Y-73475000D02*
X143600000Y-73475000D01*
%TO.N,Net-(SSD1-SCL)*%
X130570605Y-86865605D02*
X131660000Y-87955000D01*
X129100000Y-84000000D02*
X129100000Y-86331209D01*
X163000000Y-73875000D02*
X165160000Y-76035000D01*
X129634396Y-86865605D02*
X130570605Y-86865605D01*
X146000000Y-73875000D02*
X163000000Y-73875000D01*
X129100000Y-86331209D02*
X129634396Y-86865605D01*
X165160000Y-76035000D02*
X165160000Y-76275000D01*
X131660000Y-87955000D02*
X131920000Y-87955000D01*
X131920000Y-87955000D02*
X146000000Y-73875000D01*
%TD*%
M02*
