M48
; DRILL file KiCad 10.0.1 date 2026-05-07T20:59:11
; FORMAT={-:-/ absolute / metric / decimal}
; #@! TF.CreationDate,2026-05-07T20:59:11-04:00
; #@! TF.GenerationSoftware,Kicad,Pcbnew,10.0.1
; #@! TF.FileFunction,Plated,1,2,PTH
FMAT,2
METRIC
; #@! TA.AperFunction,Plated,PTH,ViaDrill
T1C0.300
; #@! TA.AperFunction,Plated,PTH,ComponentDrill
T2C0.800
; #@! TA.AperFunction,Plated,PTH,ComponentDrill
T3C0.889
; #@! TA.AperFunction,Plated,PTH,ComponentDrill
T4C1.000
; #@! TA.AperFunction,Plated,PTH,ComponentDrill
T5C1.016
; #@! TA.AperFunction,Plated,PTH,ComponentDrill
T6C1.540
; #@! TA.AperFunction,Plated,PTH,ComponentDrill
T7C1.600
%
G90
G05
T1
X129.1Y-84.0
X150.0Y-77.5
X157.0Y-71.6
T2
X125.875Y-94.84
X125.875Y-115.16
X126.0Y-72.105
X126.0Y-92.425
T3
X131.66Y-75.255
X131.66Y-77.795
X131.66Y-80.335
X131.66Y-82.875
X131.66Y-85.415
X131.66Y-87.955
X131.66Y-90.495
X146.9Y-75.255
X146.9Y-77.795
X146.9Y-80.335
X146.9Y-82.875
X146.9Y-85.415
X146.9Y-87.955
X146.9Y-90.495
T4
X132.0Y-68.5
X134.54Y-68.5
X137.08Y-68.5
X139.62Y-68.5
X142.16Y-68.5
X144.7Y-68.5
X160.08Y-76.275
X162.62Y-76.275
X165.16Y-76.275
X167.7Y-76.275
T5
X174.746Y-106.667
X174.746Y-109.207
X174.746Y-111.747
X174.746Y-114.287
X174.746Y-116.828
T6
X131.887Y-97.387
X131.887Y-120.287
X135.387Y-97.387
X142.987Y-97.387
X146.088Y-120.287
X146.387Y-97.387
T7
X126.0Y-119.0
M30
