%TF.GenerationSoftware,KiCad,Pcbnew,10.0.1*%
%TF.CreationDate,2026-05-09T13:36:44-04:00*%
%TF.ProjectId,tomodachi,746f6d6f-6461-4636-9869-2e6b69636164,rev?*%
%TF.SameCoordinates,Original*%
%TF.FileFunction,Copper,L1,Top*%
%TF.FilePolarity,Positive*%
%FSLAX46Y46*%
G04 Gerber Fmt 4.6, Leading zero omitted, Abs format (unit mm)*
G04 Created by KiCad (PCBNEW 10.0.1) date 2026-05-09 13:36:44*
%MOMM*%
%LPD*%
G01*
G04 APERTURE LIST*
G04 Aperture macros list*
%AMRoundRect*
0 Rectangle with rounded corners*
0 $1 Rounding radius*
0 $2 $3 $4 $5 $6 $7 $8 $9 X,Y pos of 4 corners*
0 Add a 4 corners polygon primitive as box body*
4,1,4,$2,$3,$4,$5,$6,$7,$8,$9,$2,$3,0*
0 Add four circle primitives for the rounded corners*
1,1,$1+$1,$2,$3*
1,1,$1+$1,$4,$5*
1,1,$1+$1,$6,$7*
1,1,$1+$1,$8,$9*
0 Add four rect primitives between the rounded corners*
20,1,$1+$1,$2,$3,$4,$5,0*
20,1,$1+$1,$4,$5,$6,$7,0*
20,1,$1+$1,$6,$7,$8,$9,0*
20,1,$1+$1,$8,$9,$2,$3,0*%
G04 Aperture macros list end*
%TA.AperFunction,ComponentPad*%
%ADD10C,1.508000*%
%TD*%
%TA.AperFunction,ComponentPad*%
%ADD11R,1.508000X1.508000*%
%TD*%
%TA.AperFunction,ComponentPad*%
%ADD12R,2.800000X2.800000*%
%TD*%
%TA.AperFunction,ComponentPad*%
%ADD13RoundRect,0.250002X-1.499998X-1.499998X1.499998X-1.499998X1.499998X1.499998X-1.499998X1.499998X0*%
%TD*%
%TA.AperFunction,ComponentPad*%
%ADD14C,1.600000*%
%TD*%
%TA.AperFunction,ComponentPad*%
%ADD15O,1.600000X2.000000*%
%TD*%
%TA.AperFunction,ComponentPad*%
%ADD16C,1.930400*%
%TD*%
%TA.AperFunction,ComponentPad*%
%ADD17R,1.930400X1.930400*%
%TD*%
%TA.AperFunction,SMDPad,CuDef*%
%ADD18RoundRect,0.152400X1.063600X0.609600X-1.063600X0.609600X-1.063600X-0.609600X1.063600X-0.609600X0*%
%TD*%
%TA.AperFunction,ComponentPad*%
%ADD19C,1.524000*%
%TD*%
%TA.AperFunction,SMDPad,CuDef*%
%ADD20RoundRect,0.152400X-1.063600X-0.609600X1.063600X-0.609600X1.063600X0.609600X-1.063600X0.609600X0*%
%TD*%
%TA.AperFunction,ViaPad*%
%ADD21C,0.600000*%
%TD*%
%TA.AperFunction,Conductor*%
%ADD22C,0.200000*%
%TD*%
G04 APERTURE END LIST*
D10*
%TO.P,DS3231,1,32K_1*%
%TO.N,unconnected-(U3-32K-Pad1)*%
X144700000Y-68500000D03*
%TO.P,DS3231,2,SQW_2*%
%TO.N,unconnected-(U3-SQW-Pad2)*%
X142160000Y-68500000D03*
%TO.P,DS3231,3,SCL_3*%
%TO.N,Net-(SSD1-SCL)*%
X139620000Y-68500000D03*
%TO.P,DS3231,4,SDA_4*%
%TO.N,Net-(SSD1-SDA)*%
X137080000Y-68500000D03*
%TO.P,DS3231,5,VCC_5*%
%TO.N,Net-(D1-K)*%
X134540000Y-68500000D03*
D11*
%TO.P,DS3231,6,GND_6*%
%TO.N,Net-(SSD1-GND)*%
X132000000Y-68500000D03*
%TD*%
D12*
%TO.P,TP4056-1,1,5V_1*%
%TO.N,Net-(D1-A)*%
X131887500Y-120287500D03*
%TO.P,TP4056-1,2,GND_2*%
%TO.N,GND*%
X146087500Y-120287500D03*
%TO.P,TP4056-1,3,Out+_3*%
%TO.N,Net-(SW1-A)*%
X131887500Y-97387500D03*
%TO.P,TP4056-1,4,Out-_4*%
%TO.N,Net-(SSD1-GND)*%
X146387500Y-97387500D03*
%TO.P,TP4056-1,5,B+_5*%
%TO.N,Net-(BT1-+)*%
X135387500Y-97387500D03*
%TO.P,TP4056-1,6,B-_6*%
%TO.N,Net-(BT1--)*%
X142987500Y-97387500D03*
%TD*%
D13*
%TO.P,E1,1*%
%TO.N,Net-(D2-A)*%
X126000000Y-119000000D03*
%TD*%
D14*
%TO.P,D2,1,K_1*%
%TO.N,Net-(D1-K)*%
X125875000Y-94840000D03*
%TO.P,D2,2,A_2*%
%TO.N,Net-(D2-A)*%
X125875000Y-115160000D03*
%TD*%
D15*
%TO.P,SSD1306,1,GND_1*%
%TO.N,Net-(SSD1-GND)*%
X160080000Y-76275000D03*
%TO.P,SSD1306,2,VCC_2*%
%TO.N,Net-(D1-K)*%
X162620000Y-76275000D03*
%TO.P,SSD1306,3,SCL_3*%
%TO.N,Net-(SSD1-SCL)*%
X165160000Y-76275000D03*
%TO.P,SSD1306,4,SDA_4*%
%TO.N,Net-(SSD1-SDA)*%
X167700000Y-76275000D03*
%TD*%
D14*
%TO.P,D1,1,K_1*%
%TO.N,Net-(D1-K)*%
X126000000Y-72105000D03*
%TO.P,D1,2,A_2*%
%TO.N,Net-(D1-A)*%
X126000000Y-92425000D03*
%TD*%
D16*
%TO.P,KY-040,CLK,CLK_CLK*%
%TO.N,Net-(U1-GPIO2_A0_D0)*%
X174746000Y-106667500D03*
%TO.P,KY-040,DT,DT_DT*%
%TO.N,Net-(U1-GPIO3_A1_D1)*%
X174746000Y-109207500D03*
D17*
%TO.P,KY-040,GND,GND_GND*%
%TO.N,Net-(SSD1-GND)*%
X174746000Y-116827500D03*
D16*
%TO.P,KY-040,SW,SW_SW*%
%TO.N,Net-(U1-GPIO4_A2_D2)*%
X174746000Y-111747500D03*
%TO.P,KY-040,VCC,VCC_VCC*%
%TO.N,Net-(D1-K)*%
X174746000Y-114287500D03*
%TD*%
D18*
%TO.P,XIAO ESP32C3 DIP,1,GPIO2_A0_D0_1*%
%TO.N,Net-(U1-GPIO2_A0_D0)*%
X130825000Y-75255000D03*
D19*
X131660000Y-75255000D03*
D18*
%TO.P,XIAO ESP32C3 DIP,2,GPIO3_A1_D1_2*%
%TO.N,Net-(U1-GPIO3_A1_D1)*%
X130825000Y-77795000D03*
D19*
X131660000Y-77795000D03*
D18*
%TO.P,XIAO ESP32C3 DIP,3,GPIO4_A2_D2_3*%
%TO.N,Net-(U1-GPIO4_A2_D2)*%
X130825000Y-80335000D03*
D19*
X131660000Y-80335000D03*
D18*
%TO.P,XIAO ESP32C3 DIP,4,GPIO5_A3_D3_4*%
%TO.N,unconnected-(U1-GPIO5_A3_D3-Pad4)*%
X130825000Y-82875000D03*
D19*
X131660000Y-82875000D03*
D18*
%TO.P,XIAO ESP32C3 DIP,5,GPIO6_D4_SDA_5*%
%TO.N,Net-(SSD1-SDA)*%
X130825000Y-85415000D03*
D19*
X131660000Y-85415000D03*
D18*
%TO.P,XIAO ESP32C3 DIP,6,GPIO7_D5_SCL_6*%
%TO.N,Net-(SSD1-SCL)*%
X130825000Y-87955000D03*
D19*
X131660000Y-87955000D03*
D18*
%TO.P,XIAO ESP32C3 DIP,7,GPIO21_D6_TX_7*%
%TO.N,unconnected-(U1-GPIO21_D6_TX-Pad7)*%
X130825000Y-90495000D03*
D19*
X131660000Y-90495000D03*
%TO.P,XIAO ESP32C3 DIP,8,GPIO20_D7_RX_8*%
%TO.N,unconnected-(U1-GPIO20_D7_RX-Pad8)*%
X146900000Y-90495000D03*
D20*
X147735000Y-90495000D03*
D19*
%TO.P,XIAO ESP32C3 DIP,9,GPIO8_D8_SCK_9*%
%TO.N,unconnected-(U1-GPIO8_D8_SCK-Pad9)*%
X146900000Y-87955000D03*
D20*
X147735000Y-87955000D03*
D19*
%TO.P,XIAO ESP32C3 DIP,10,GPIO9_D9_MISO_10*%
%TO.N,unconnected-(U1-GPIO9_D9_MISO-Pad10)*%
X146900000Y-85415000D03*
D20*
X147735000Y-85415000D03*
D19*
%TO.P,XIAO ESP32C3 DIP,11,GPIO10_D10_MOSI_11*%
%TO.N,unconnected-(U1-GPIO10_D10_MOSI-Pad11)*%
X146900000Y-82875000D03*
D20*
X147735000Y-82875000D03*
D19*
%TO.P,XIAO ESP32C3 DIP,12,3V3_12*%
%TO.N,unconnected-(U1-3V3-Pad12)*%
X146900000Y-80335000D03*
D20*
X147735000Y-80335000D03*
D19*
%TO.P,XIAO ESP32C3 DIP,13,GND_13*%
%TO.N,Net-(SSD1-GND)*%
X146900000Y-77795000D03*
D20*
X147735000Y-77795000D03*
D19*
%TO.P,XIAO ESP32C3 DIP,14,VBUS_14*%
%TO.N,Net-(D1-K)*%
X146900000Y-75255000D03*
D20*
X147735000Y-75255000D03*
%TD*%
D21*
%TO.N,Net-(SSD1-GND)*%
X157000000Y-71600000D03*
%TO.N,Net-(D1-K)*%
X150000000Y-77500000D03*
%TO.N,Net-(SSD1-SCL)*%
X129100000Y-84000000D03*
%TD*%
%TO.N,Net-(D1-A)*%
D22*
X129500000Y-119500000D02*
X129500000Y-95925000D01*
X130287500Y-120287500D02*
X129500000Y-119500000D01*
X129500000Y-95925000D02*
X126000000Y-92425000D01*
X131887500Y-120287500D02*
X130287500Y-120287500D01*
%TO.N,Net-(D1-K)*%
X150000000Y-77500000D02*
X149980000Y-77500000D01*
%TO.N,Net-(SSD1-GND)*%
X157000000Y-71600000D02*
X160080000Y-74680000D01*
%TO.N,Net-(D1-K)*%
X149980000Y-77500000D02*
X147735000Y-75255000D01*
X127105000Y-71000000D02*
X126000000Y-72105000D01*
%TO.N,Net-(SSD1-GND)*%
X160080000Y-74680000D02*
X160080000Y-76275000D01*
%TO.N,Net-(D1-K)*%
X132040000Y-71000000D02*
X127105000Y-71000000D01*
X134540000Y-68500000D02*
X132040000Y-71000000D01*
%TO.N,Net-(SSD1-SDA)*%
X129415000Y-85415000D02*
X130825000Y-85415000D01*
X128500000Y-72500000D02*
X128500000Y-84500000D01*
X129500000Y-71500000D02*
X128500000Y-72500000D01*
X134080000Y-71500000D02*
X129500000Y-71500000D01*
X131660000Y-85415000D02*
X130825000Y-85415000D01*
X128500000Y-84500000D02*
X129415000Y-85415000D01*
X137080000Y-68500000D02*
X134080000Y-71500000D01*
%TO.N,Net-(SSD1-SCL)*%
X129000000Y-73000000D02*
X129000000Y-83900000D01*
X129000000Y-83900000D02*
X129100000Y-84000000D01*
X136120000Y-72000000D02*
X130000000Y-72000000D01*
X139620000Y-68500000D02*
X136120000Y-72000000D01*
X130000000Y-72000000D02*
X129000000Y-73000000D01*
%TO.N,Net-(D2-A)*%
X126000000Y-119000000D02*
X126000000Y-115285000D01*
X126000000Y-115285000D02*
X125875000Y-115160000D01*
%TD*%
M02*
