%TF.GenerationSoftware,KiCad,Pcbnew,10.0.1*%
%TF.CreationDate,2026-05-09T13:36:44-04:00*%
%TF.ProjectId,tomodachi,746f6d6f-6461-4636-9869-2e6b69636164,rev?*%
%TF.SameCoordinates,Original*%
%TF.FileFunction,Soldermask,Top*%
%TF.FilePolarity,Negative*%
%FSLAX46Y46*%
G04 Gerber Fmt 4.6, Leading zero omitted, Abs format (unit mm)*
G04 Created by KiCad (PCBNEW 10.0.1) date 2026-05-09 13:36:44*
%MOMM*%
%LPD*%
G01*
G04 APERTURE LIST*
G04 Aperture macros list*
%AMRoundRect*
0 Rectangle with rounded corners*
0 $1 Rounding radius*
0 $2 $3 $4 $5 $6 $7 $8 $9 X,Y pos of 4 corners*
0 Add a 4 corners polygon primitive as box body*
4,1,4,$2,$3,$4,$5,$6,$7,$8,$9,$2,$3,0*
0 Add four circle primitives for the rounded corners*
1,1,$1+$1,$2,$3*
1,1,$1+$1,$4,$5*
1,1,$1+$1,$6,$7*
1,1,$1+$1,$8,$9*
0 Add four rect primitives between the rounded corners*
20,1,$1+$1,$2,$3,$4,$5,0*
20,1,$1+$1,$4,$5,$6,$7,0*
20,1,$1+$1,$6,$7,$8,$9,0*
20,1,$1+$1,$8,$9,$2,$3,0*%
G04 Aperture macros list end*
%ADD10C,1.712000*%
%ADD11RoundRect,0.102000X0.754000X-0.754000X0.754000X0.754000X-0.754000X0.754000X-0.754000X-0.754000X0*%
%ADD12R,2.800000X2.800000*%
%ADD13RoundRect,0.250002X-1.499998X-1.499998X1.499998X-1.499998X1.499998X1.499998X-1.499998X1.499998X0*%
%ADD14C,1.600000*%
%ADD15O,1.600000X2.000000*%
%ADD16C,2.134400*%
%ADD17RoundRect,0.102000X-0.965200X0.965200X-0.965200X-0.965200X0.965200X-0.965200X0.965200X0.965200X0*%
%ADD18C,2.000000*%
%ADD19RoundRect,0.152400X1.063600X0.609600X-1.063600X0.609600X-1.063600X-0.609600X1.063600X-0.609600X0*%
%ADD20C,1.524000*%
%ADD21RoundRect,0.152400X-1.063600X-0.609600X1.063600X-0.609600X1.063600X0.609600X-1.063600X0.609600X0*%
G04 APERTURE END LIST*
D10*
%TO.C,DS3231*%
X144700000Y-68500000D03*
X142160000Y-68500000D03*
X139620000Y-68500000D03*
X137080000Y-68500000D03*
X134540000Y-68500000D03*
D11*
X132000000Y-68500000D03*
%TD*%
D12*
%TO.C,TP4056-1*%
X131887500Y-120287500D03*
X146087500Y-120287500D03*
X131887500Y-97387500D03*
X146387500Y-97387500D03*
X135387500Y-97387500D03*
X142987500Y-97387500D03*
%TD*%
D13*
%TO.C,E1*%
X126000000Y-119000000D03*
%TD*%
D14*
%TO.C,D2*%
X125875000Y-94840000D03*
X125875000Y-115160000D03*
%TD*%
D15*
%TO.C,SSD1306*%
X160080000Y-76275000D03*
X162620000Y-76275000D03*
X165160000Y-76275000D03*
X167700000Y-76275000D03*
%TD*%
D14*
%TO.C,D1*%
X126000000Y-72105000D03*
X126000000Y-92425000D03*
%TD*%
D16*
%TO.C,KY-040*%
X174746000Y-106667500D03*
X174746000Y-109207500D03*
D17*
X174746000Y-116827500D03*
D16*
X174746000Y-111747500D03*
X174746000Y-114287500D03*
%TD*%
D18*
%TO.C,REF\u002A\u002A*%
X176500000Y-72000000D03*
%TD*%
D19*
%TO.C,XIAO ESP32C3 DIP*%
X130825000Y-75255000D03*
D20*
X131660000Y-75255000D03*
D19*
X130825000Y-77795000D03*
D20*
X131660000Y-77795000D03*
D19*
X130825000Y-80335000D03*
D20*
X131660000Y-80335000D03*
D19*
X130825000Y-82875000D03*
D20*
X131660000Y-82875000D03*
D19*
X130825000Y-85415000D03*
D20*
X131660000Y-85415000D03*
D19*
X130825000Y-87955000D03*
D20*
X131660000Y-87955000D03*
D19*
X130825000Y-90495000D03*
D20*
X131660000Y-90495000D03*
X146900000Y-90495000D03*
D21*
X147735000Y-90495000D03*
D20*
X146900000Y-87955000D03*
D21*
X147735000Y-87955000D03*
D20*
X146900000Y-85415000D03*
D21*
X147735000Y-85415000D03*
D20*
X146900000Y-82875000D03*
D21*
X147735000Y-82875000D03*
D20*
X146900000Y-80335000D03*
D21*
X147735000Y-80335000D03*
D20*
X146900000Y-77795000D03*
D21*
X147735000Y-77795000D03*
D20*
X146900000Y-75255000D03*
D21*
X147735000Y-75255000D03*
%TD*%
M02*
