%TF.GenerationSoftware,KiCad,Pcbnew,10.0.1*%
%TF.CreationDate,2026-05-09T13:36:48-04:00*%
%TF.ProjectId,tomodachi,746f6d6f-6461-4636-9869-2e6b69636164,rev?*%
%TF.SameCoordinates,Original*%
%TF.FileFunction,Drillmap*%
%TF.FilePolarity,Positive*%
%FSLAX45Y45*%
G04 Gerber Fmt 4.5, Leading zero omitted, Abs format (unit mm)*
G04 Created by KiCad (PCBNEW 10.0.1) date 2026-05-09 13:36:48*
%MOMM*%
%LPD*%
G01*
G04 APERTURE LIST*
%ADD10C,0.050000*%
%ADD11C,0.200000*%
%ADD12C,0.100000*%
%ADD13C,0.101600*%
%ADD14C,0.154000*%
%ADD15C,0.160000*%
G04 APERTURE END LIST*
D10*
X12250000Y-5300000D02*
X15300000Y-5300000D01*
X12250000Y-7000000D02*
X12250000Y-5300000D01*
X12250000Y-7000000D02*
X12250000Y-12250000D01*
X12250000Y-12250000D02*
X17850000Y-12250000D01*
X15300000Y-7000000D02*
X15300000Y-5300000D01*
X15300000Y-7000000D02*
X17850000Y-7000000D01*
X17850000Y-12250000D02*
X17850000Y-7000000D01*
D11*
D12*
X12895000Y-8385000D02*
X12925000Y-8415000D01*
X12925000Y-8385000D02*
X12895000Y-8415000D01*
X14985000Y-7735000D02*
X15015000Y-7765000D01*
X15015000Y-7735000D02*
X14985000Y-7765000D01*
X15685000Y-7145000D02*
X15715000Y-7175000D01*
X15715000Y-7145000D02*
X15685000Y-7175000D01*
X12627500Y-9484000D02*
G75*
G02*
X12547500Y-9484000I-40000J0D01*
G01*
X12547500Y-9484000D02*
G75*
G02*
X12627500Y-9484000I40000J0D01*
G01*
X12627500Y-11516000D02*
G75*
G02*
X12547500Y-11516000I-40000J0D01*
G01*
X12547500Y-11516000D02*
G75*
G02*
X12627500Y-11516000I40000J0D01*
G01*
X12640000Y-7210500D02*
G75*
G02*
X12560000Y-7210500I-40000J0D01*
G01*
X12560000Y-7210500D02*
G75*
G02*
X12640000Y-7210500I40000J0D01*
G01*
X12640000Y-9242500D02*
G75*
G02*
X12560000Y-9242500I-40000J0D01*
G01*
X12560000Y-9242500D02*
G75*
G02*
X12640000Y-9242500I40000J0D01*
G01*
X13166000Y-7481050D02*
X13166000Y-7569950D01*
X13121550Y-7525500D02*
X13210450Y-7525500D01*
X13166000Y-7735050D02*
X13166000Y-7823950D01*
X13121550Y-7779500D02*
X13210450Y-7779500D01*
X13166000Y-7989050D02*
X13166000Y-8077950D01*
X13121550Y-8033500D02*
X13210450Y-8033500D01*
X13166000Y-8243050D02*
X13166000Y-8331950D01*
X13121550Y-8287500D02*
X13210450Y-8287500D01*
X13166000Y-8497050D02*
X13166000Y-8585950D01*
X13121550Y-8541500D02*
X13210450Y-8541500D01*
X13166000Y-8751050D02*
X13166000Y-8839950D01*
X13121550Y-8795500D02*
X13210450Y-8795500D01*
X13166000Y-9005050D02*
X13166000Y-9093950D01*
X13121550Y-9049500D02*
X13210450Y-9049500D01*
X14690000Y-7481050D02*
X14690000Y-7569950D01*
X14645550Y-7525500D02*
X14734450Y-7525500D01*
X14690000Y-7735050D02*
X14690000Y-7823950D01*
X14645550Y-7779500D02*
X14734450Y-7779500D01*
X14690000Y-7989050D02*
X14690000Y-8077950D01*
X14645550Y-8033500D02*
X14734450Y-8033500D01*
X14690000Y-8243050D02*
X14690000Y-8331950D01*
X14645550Y-8287500D02*
X14734450Y-8287500D01*
X14690000Y-8497050D02*
X14690000Y-8585950D01*
X14645550Y-8541500D02*
X14734450Y-8541500D01*
X14690000Y-8751050D02*
X14690000Y-8839950D01*
X14645550Y-8795500D02*
X14734450Y-8795500D01*
X14690000Y-9005050D02*
X14690000Y-9093950D01*
X14645550Y-9049500D02*
X14734450Y-9049500D01*
X13235356Y-6885356D02*
X13235356Y-6814644D01*
X13164644Y-6814644D01*
X13164644Y-6885356D01*
X13235356Y-6885356D01*
X13489356Y-6885356D02*
X13489356Y-6814644D01*
X13418644Y-6814644D01*
X13418644Y-6885356D01*
X13489356Y-6885356D01*
X13743356Y-6885356D02*
X13743356Y-6814644D01*
X13672644Y-6814644D01*
X13672644Y-6885356D01*
X13743356Y-6885356D01*
X13997356Y-6885356D02*
X13997356Y-6814644D01*
X13926644Y-6814644D01*
X13926644Y-6885356D01*
X13997356Y-6885356D01*
X14251356Y-6885356D02*
X14251356Y-6814644D01*
X14180644Y-6814644D01*
X14180644Y-6885356D01*
X14251356Y-6885356D01*
X14505356Y-6885356D02*
X14505356Y-6814644D01*
X14434644Y-6814644D01*
X14434644Y-6885356D01*
X14505356Y-6885356D01*
X16043356Y-7662856D02*
X16043356Y-7592144D01*
X15972644Y-7592144D01*
X15972644Y-7662856D01*
X16043356Y-7662856D01*
X16297356Y-7662856D02*
X16297356Y-7592144D01*
X16226644Y-7592144D01*
X16226644Y-7662856D01*
X16297356Y-7662856D01*
X16551356Y-7662856D02*
X16551356Y-7592144D01*
X16480644Y-7592144D01*
X16480644Y-7662856D01*
X16551356Y-7662856D01*
X16805356Y-7662856D02*
X16805356Y-7592144D01*
X16734644Y-7592144D01*
X16734644Y-7662856D01*
X16805356Y-7662856D01*
D13*
X17474600Y-10717550D02*
X17525400Y-10666750D01*
X17474600Y-10615950D01*
X17423800Y-10666750D01*
X17474600Y-10717550D01*
X17474600Y-10971550D02*
X17525400Y-10920750D01*
X17474600Y-10869950D01*
X17423800Y-10920750D01*
X17474600Y-10971550D01*
X17474600Y-11225550D02*
X17525400Y-11174750D01*
X17474600Y-11123950D01*
X17423800Y-11174750D01*
X17474600Y-11225550D01*
X17474600Y-11479550D02*
X17525400Y-11428750D01*
X17474600Y-11377950D01*
X17423800Y-11428750D01*
X17474600Y-11479550D01*
X17474600Y-11733550D02*
X17525400Y-11682750D01*
X17474600Y-11631950D01*
X17423800Y-11682750D01*
X17474600Y-11733550D01*
D14*
X13111750Y-9661750D02*
X13265750Y-9815750D01*
X13265750Y-9661750D02*
X13111750Y-9815750D01*
X13265750Y-9738750D02*
G75*
G02*
X13111750Y-9738750I-77000J0D01*
G01*
X13111750Y-9738750D02*
G75*
G02*
X13265750Y-9738750I77000J0D01*
G01*
X13111750Y-11951750D02*
X13265750Y-12105750D01*
X13265750Y-11951750D02*
X13111750Y-12105750D01*
X13265750Y-12028750D02*
G75*
G02*
X13111750Y-12028750I-77000J0D01*
G01*
X13111750Y-12028750D02*
G75*
G02*
X13265750Y-12028750I77000J0D01*
G01*
X13461750Y-9661750D02*
X13615750Y-9815750D01*
X13615750Y-9661750D02*
X13461750Y-9815750D01*
X13615750Y-9738750D02*
G75*
G02*
X13461750Y-9738750I-77000J0D01*
G01*
X13461750Y-9738750D02*
G75*
G02*
X13615750Y-9738750I77000J0D01*
G01*
X14221750Y-9661750D02*
X14375750Y-9815750D01*
X14375750Y-9661750D02*
X14221750Y-9815750D01*
X14375750Y-9738750D02*
G75*
G02*
X14221750Y-9738750I-77000J0D01*
G01*
X14221750Y-9738750D02*
G75*
G02*
X14375750Y-9738750I77000J0D01*
G01*
X14531750Y-11951750D02*
X14685750Y-12105750D01*
X14685750Y-11951750D02*
X14531750Y-12105750D01*
X14685750Y-12028750D02*
G75*
G02*
X14531750Y-12028750I-77000J0D01*
G01*
X14531750Y-12028750D02*
G75*
G02*
X14685750Y-12028750I77000J0D01*
G01*
X14561750Y-9661750D02*
X14715750Y-9815750D01*
X14715750Y-9661750D02*
X14561750Y-9815750D01*
X14715750Y-9738750D02*
G75*
G02*
X14561750Y-9738750I-77000J0D01*
G01*
X14561750Y-9738750D02*
G75*
G02*
X14715750Y-9738750I77000J0D01*
G01*
D15*
X12520000Y-11820000D02*
X12680000Y-11980000D01*
X12680000Y-11820000D02*
X12520000Y-11980000D01*
X12600000Y-11820000D02*
X12600000Y-11980000D01*
X12520000Y-11900000D02*
X12680000Y-11900000D01*
D11*
X12508277Y-12563984D02*
X12508277Y-12363984D01*
X12508277Y-12363984D02*
X12555896Y-12363984D01*
X12555896Y-12363984D02*
X12584467Y-12373508D01*
X12584467Y-12373508D02*
X12603515Y-12392555D01*
X12603515Y-12392555D02*
X12613039Y-12411603D01*
X12613039Y-12411603D02*
X12622562Y-12449698D01*
X12622562Y-12449698D02*
X12622562Y-12478269D01*
X12622562Y-12478269D02*
X12613039Y-12516365D01*
X12613039Y-12516365D02*
X12603515Y-12535412D01*
X12603515Y-12535412D02*
X12584467Y-12554460D01*
X12584467Y-12554460D02*
X12555896Y-12563984D01*
X12555896Y-12563984D02*
X12508277Y-12563984D01*
X12708277Y-12563984D02*
X12708277Y-12430650D01*
X12708277Y-12468746D02*
X12717801Y-12449698D01*
X12717801Y-12449698D02*
X12727324Y-12440174D01*
X12727324Y-12440174D02*
X12746372Y-12430650D01*
X12746372Y-12430650D02*
X12765420Y-12430650D01*
X12832086Y-12563984D02*
X12832086Y-12430650D01*
X12832086Y-12363984D02*
X12822562Y-12373508D01*
X12822562Y-12373508D02*
X12832086Y-12383031D01*
X12832086Y-12383031D02*
X12841610Y-12373508D01*
X12841610Y-12373508D02*
X12832086Y-12363984D01*
X12832086Y-12363984D02*
X12832086Y-12383031D01*
X12955896Y-12563984D02*
X12936848Y-12554460D01*
X12936848Y-12554460D02*
X12927324Y-12535412D01*
X12927324Y-12535412D02*
X12927324Y-12363984D01*
X13060658Y-12563984D02*
X13041610Y-12554460D01*
X13041610Y-12554460D02*
X13032086Y-12535412D01*
X13032086Y-12535412D02*
X13032086Y-12363984D01*
X13289229Y-12563984D02*
X13289229Y-12363984D01*
X13289229Y-12363984D02*
X13355896Y-12506841D01*
X13355896Y-12506841D02*
X13422562Y-12363984D01*
X13422562Y-12363984D02*
X13422562Y-12563984D01*
X13603515Y-12563984D02*
X13603515Y-12459222D01*
X13603515Y-12459222D02*
X13593991Y-12440174D01*
X13593991Y-12440174D02*
X13574943Y-12430650D01*
X13574943Y-12430650D02*
X13536848Y-12430650D01*
X13536848Y-12430650D02*
X13517801Y-12440174D01*
X13603515Y-12554460D02*
X13584467Y-12563984D01*
X13584467Y-12563984D02*
X13536848Y-12563984D01*
X13536848Y-12563984D02*
X13517801Y-12554460D01*
X13517801Y-12554460D02*
X13508277Y-12535412D01*
X13508277Y-12535412D02*
X13508277Y-12516365D01*
X13508277Y-12516365D02*
X13517801Y-12497317D01*
X13517801Y-12497317D02*
X13536848Y-12487793D01*
X13536848Y-12487793D02*
X13584467Y-12487793D01*
X13584467Y-12487793D02*
X13603515Y-12478269D01*
X13698753Y-12430650D02*
X13698753Y-12630650D01*
X13698753Y-12440174D02*
X13717801Y-12430650D01*
X13717801Y-12430650D02*
X13755896Y-12430650D01*
X13755896Y-12430650D02*
X13774943Y-12440174D01*
X13774943Y-12440174D02*
X13784467Y-12449698D01*
X13784467Y-12449698D02*
X13793991Y-12468746D01*
X13793991Y-12468746D02*
X13793991Y-12525888D01*
X13793991Y-12525888D02*
X13784467Y-12544936D01*
X13784467Y-12544936D02*
X13774943Y-12554460D01*
X13774943Y-12554460D02*
X13755896Y-12563984D01*
X13755896Y-12563984D02*
X13717801Y-12563984D01*
X13717801Y-12563984D02*
X13698753Y-12554460D01*
X13879705Y-12544936D02*
X13889229Y-12554460D01*
X13889229Y-12554460D02*
X13879705Y-12563984D01*
X13879705Y-12563984D02*
X13870182Y-12554460D01*
X13870182Y-12554460D02*
X13879705Y-12544936D01*
X13879705Y-12544936D02*
X13879705Y-12563984D01*
X13879705Y-12440174D02*
X13889229Y-12449698D01*
X13889229Y-12449698D02*
X13879705Y-12459222D01*
X13879705Y-12459222D02*
X13870182Y-12449698D01*
X13870182Y-12449698D02*
X13879705Y-12440174D01*
X13879705Y-12440174D02*
X13879705Y-12459222D01*
D12*
X12217500Y-12877500D02*
X12247500Y-12907500D01*
X12247500Y-12877500D02*
X12217500Y-12907500D01*
D11*
X12546372Y-12783984D02*
X12565420Y-12783984D01*
X12565420Y-12783984D02*
X12584467Y-12793508D01*
X12584467Y-12793508D02*
X12593991Y-12803031D01*
X12593991Y-12803031D02*
X12603515Y-12822079D01*
X12603515Y-12822079D02*
X12613039Y-12860174D01*
X12613039Y-12860174D02*
X12613039Y-12907793D01*
X12613039Y-12907793D02*
X12603515Y-12945888D01*
X12603515Y-12945888D02*
X12593991Y-12964936D01*
X12593991Y-12964936D02*
X12584467Y-12974460D01*
X12584467Y-12974460D02*
X12565420Y-12983984D01*
X12565420Y-12983984D02*
X12546372Y-12983984D01*
X12546372Y-12983984D02*
X12527324Y-12974460D01*
X12527324Y-12974460D02*
X12517801Y-12964936D01*
X12517801Y-12964936D02*
X12508277Y-12945888D01*
X12508277Y-12945888D02*
X12498753Y-12907793D01*
X12498753Y-12907793D02*
X12498753Y-12860174D01*
X12498753Y-12860174D02*
X12508277Y-12822079D01*
X12508277Y-12822079D02*
X12517801Y-12803031D01*
X12517801Y-12803031D02*
X12527324Y-12793508D01*
X12527324Y-12793508D02*
X12546372Y-12783984D01*
X12698753Y-12964936D02*
X12708277Y-12974460D01*
X12708277Y-12974460D02*
X12698753Y-12983984D01*
X12698753Y-12983984D02*
X12689229Y-12974460D01*
X12689229Y-12974460D02*
X12698753Y-12964936D01*
X12698753Y-12964936D02*
X12698753Y-12983984D01*
X12774943Y-12783984D02*
X12898753Y-12783984D01*
X12898753Y-12783984D02*
X12832086Y-12860174D01*
X12832086Y-12860174D02*
X12860658Y-12860174D01*
X12860658Y-12860174D02*
X12879705Y-12869698D01*
X12879705Y-12869698D02*
X12889229Y-12879222D01*
X12889229Y-12879222D02*
X12898753Y-12898269D01*
X12898753Y-12898269D02*
X12898753Y-12945888D01*
X12898753Y-12945888D02*
X12889229Y-12964936D01*
X12889229Y-12964936D02*
X12879705Y-12974460D01*
X12879705Y-12974460D02*
X12860658Y-12983984D01*
X12860658Y-12983984D02*
X12803515Y-12983984D01*
X12803515Y-12983984D02*
X12784467Y-12974460D01*
X12784467Y-12974460D02*
X12774943Y-12964936D01*
X13022562Y-12783984D02*
X13041610Y-12783984D01*
X13041610Y-12783984D02*
X13060658Y-12793508D01*
X13060658Y-12793508D02*
X13070182Y-12803031D01*
X13070182Y-12803031D02*
X13079705Y-12822079D01*
X13079705Y-12822079D02*
X13089229Y-12860174D01*
X13089229Y-12860174D02*
X13089229Y-12907793D01*
X13089229Y-12907793D02*
X13079705Y-12945888D01*
X13079705Y-12945888D02*
X13070182Y-12964936D01*
X13070182Y-12964936D02*
X13060658Y-12974460D01*
X13060658Y-12974460D02*
X13041610Y-12983984D01*
X13041610Y-12983984D02*
X13022562Y-12983984D01*
X13022562Y-12983984D02*
X13003515Y-12974460D01*
X13003515Y-12974460D02*
X12993991Y-12964936D01*
X12993991Y-12964936D02*
X12984467Y-12945888D01*
X12984467Y-12945888D02*
X12974943Y-12907793D01*
X12974943Y-12907793D02*
X12974943Y-12860174D01*
X12974943Y-12860174D02*
X12984467Y-12822079D01*
X12984467Y-12822079D02*
X12993991Y-12803031D01*
X12993991Y-12803031D02*
X13003515Y-12793508D01*
X13003515Y-12793508D02*
X13022562Y-12783984D01*
X13213039Y-12783984D02*
X13232086Y-12783984D01*
X13232086Y-12783984D02*
X13251134Y-12793508D01*
X13251134Y-12793508D02*
X13260658Y-12803031D01*
X13260658Y-12803031D02*
X13270182Y-12822079D01*
X13270182Y-12822079D02*
X13279705Y-12860174D01*
X13279705Y-12860174D02*
X13279705Y-12907793D01*
X13279705Y-12907793D02*
X13270182Y-12945888D01*
X13270182Y-12945888D02*
X13260658Y-12964936D01*
X13260658Y-12964936D02*
X13251134Y-12974460D01*
X13251134Y-12974460D02*
X13232086Y-12983984D01*
X13232086Y-12983984D02*
X13213039Y-12983984D01*
X13213039Y-12983984D02*
X13193991Y-12974460D01*
X13193991Y-12974460D02*
X13184467Y-12964936D01*
X13184467Y-12964936D02*
X13174943Y-12945888D01*
X13174943Y-12945888D02*
X13165420Y-12907793D01*
X13165420Y-12907793D02*
X13165420Y-12860174D01*
X13165420Y-12860174D02*
X13174943Y-12822079D01*
X13174943Y-12822079D02*
X13184467Y-12803031D01*
X13184467Y-12803031D02*
X13193991Y-12793508D01*
X13193991Y-12793508D02*
X13213039Y-12783984D01*
X13365420Y-12983984D02*
X13365420Y-12850650D01*
X13365420Y-12869698D02*
X13374943Y-12860174D01*
X13374943Y-12860174D02*
X13393991Y-12850650D01*
X13393991Y-12850650D02*
X13422563Y-12850650D01*
X13422563Y-12850650D02*
X13441610Y-12860174D01*
X13441610Y-12860174D02*
X13451134Y-12879222D01*
X13451134Y-12879222D02*
X13451134Y-12983984D01*
X13451134Y-12879222D02*
X13460658Y-12860174D01*
X13460658Y-12860174D02*
X13479705Y-12850650D01*
X13479705Y-12850650D02*
X13508277Y-12850650D01*
X13508277Y-12850650D02*
X13527324Y-12860174D01*
X13527324Y-12860174D02*
X13536848Y-12879222D01*
X13536848Y-12879222D02*
X13536848Y-12983984D01*
X13632086Y-12983984D02*
X13632086Y-12850650D01*
X13632086Y-12869698D02*
X13641610Y-12860174D01*
X13641610Y-12860174D02*
X13660658Y-12850650D01*
X13660658Y-12850650D02*
X13689229Y-12850650D01*
X13689229Y-12850650D02*
X13708277Y-12860174D01*
X13708277Y-12860174D02*
X13717801Y-12879222D01*
X13717801Y-12879222D02*
X13717801Y-12983984D01*
X13717801Y-12879222D02*
X13727324Y-12860174D01*
X13727324Y-12860174D02*
X13746372Y-12850650D01*
X13746372Y-12850650D02*
X13774943Y-12850650D01*
X13774943Y-12850650D02*
X13793991Y-12860174D01*
X13793991Y-12860174D02*
X13803515Y-12879222D01*
X13803515Y-12879222D02*
X13803515Y-12983984D01*
X14193991Y-12774460D02*
X14022563Y-13031603D01*
X14451134Y-12783984D02*
X14470182Y-12783984D01*
X14470182Y-12783984D02*
X14489229Y-12793508D01*
X14489229Y-12793508D02*
X14498753Y-12803031D01*
X14498753Y-12803031D02*
X14508277Y-12822079D01*
X14508277Y-12822079D02*
X14517801Y-12860174D01*
X14517801Y-12860174D02*
X14517801Y-12907793D01*
X14517801Y-12907793D02*
X14508277Y-12945888D01*
X14508277Y-12945888D02*
X14498753Y-12964936D01*
X14498753Y-12964936D02*
X14489229Y-12974460D01*
X14489229Y-12974460D02*
X14470182Y-12983984D01*
X14470182Y-12983984D02*
X14451134Y-12983984D01*
X14451134Y-12983984D02*
X14432086Y-12974460D01*
X14432086Y-12974460D02*
X14422563Y-12964936D01*
X14422563Y-12964936D02*
X14413039Y-12945888D01*
X14413039Y-12945888D02*
X14403515Y-12907793D01*
X14403515Y-12907793D02*
X14403515Y-12860174D01*
X14403515Y-12860174D02*
X14413039Y-12822079D01*
X14413039Y-12822079D02*
X14422563Y-12803031D01*
X14422563Y-12803031D02*
X14432086Y-12793508D01*
X14432086Y-12793508D02*
X14451134Y-12783984D01*
X14603515Y-12964936D02*
X14613039Y-12974460D01*
X14613039Y-12974460D02*
X14603515Y-12983984D01*
X14603515Y-12983984D02*
X14593991Y-12974460D01*
X14593991Y-12974460D02*
X14603515Y-12964936D01*
X14603515Y-12964936D02*
X14603515Y-12983984D01*
X14736848Y-12783984D02*
X14755896Y-12783984D01*
X14755896Y-12783984D02*
X14774944Y-12793508D01*
X14774944Y-12793508D02*
X14784467Y-12803031D01*
X14784467Y-12803031D02*
X14793991Y-12822079D01*
X14793991Y-12822079D02*
X14803515Y-12860174D01*
X14803515Y-12860174D02*
X14803515Y-12907793D01*
X14803515Y-12907793D02*
X14793991Y-12945888D01*
X14793991Y-12945888D02*
X14784467Y-12964936D01*
X14784467Y-12964936D02*
X14774944Y-12974460D01*
X14774944Y-12974460D02*
X14755896Y-12983984D01*
X14755896Y-12983984D02*
X14736848Y-12983984D01*
X14736848Y-12983984D02*
X14717801Y-12974460D01*
X14717801Y-12974460D02*
X14708277Y-12964936D01*
X14708277Y-12964936D02*
X14698753Y-12945888D01*
X14698753Y-12945888D02*
X14689229Y-12907793D01*
X14689229Y-12907793D02*
X14689229Y-12860174D01*
X14689229Y-12860174D02*
X14698753Y-12822079D01*
X14698753Y-12822079D02*
X14708277Y-12803031D01*
X14708277Y-12803031D02*
X14717801Y-12793508D01*
X14717801Y-12793508D02*
X14736848Y-12783984D01*
X14993991Y-12983984D02*
X14879706Y-12983984D01*
X14936848Y-12983984D02*
X14936848Y-12783984D01*
X14936848Y-12783984D02*
X14917801Y-12812555D01*
X14917801Y-12812555D02*
X14898753Y-12831603D01*
X14898753Y-12831603D02*
X14879706Y-12841127D01*
X15184467Y-12983984D02*
X15070182Y-12983984D01*
X15127325Y-12983984D02*
X15127325Y-12783984D01*
X15127325Y-12783984D02*
X15108277Y-12812555D01*
X15108277Y-12812555D02*
X15089229Y-12831603D01*
X15089229Y-12831603D02*
X15070182Y-12841127D01*
X15298753Y-12869698D02*
X15279706Y-12860174D01*
X15279706Y-12860174D02*
X15270182Y-12850650D01*
X15270182Y-12850650D02*
X15260658Y-12831603D01*
X15260658Y-12831603D02*
X15260658Y-12822079D01*
X15260658Y-12822079D02*
X15270182Y-12803031D01*
X15270182Y-12803031D02*
X15279706Y-12793508D01*
X15279706Y-12793508D02*
X15298753Y-12783984D01*
X15298753Y-12783984D02*
X15336848Y-12783984D01*
X15336848Y-12783984D02*
X15355896Y-12793508D01*
X15355896Y-12793508D02*
X15365420Y-12803031D01*
X15365420Y-12803031D02*
X15374944Y-12822079D01*
X15374944Y-12822079D02*
X15374944Y-12831603D01*
X15374944Y-12831603D02*
X15365420Y-12850650D01*
X15365420Y-12850650D02*
X15355896Y-12860174D01*
X15355896Y-12860174D02*
X15336848Y-12869698D01*
X15336848Y-12869698D02*
X15298753Y-12869698D01*
X15298753Y-12869698D02*
X15279706Y-12879222D01*
X15279706Y-12879222D02*
X15270182Y-12888746D01*
X15270182Y-12888746D02*
X15260658Y-12907793D01*
X15260658Y-12907793D02*
X15260658Y-12945888D01*
X15260658Y-12945888D02*
X15270182Y-12964936D01*
X15270182Y-12964936D02*
X15279706Y-12974460D01*
X15279706Y-12974460D02*
X15298753Y-12983984D01*
X15298753Y-12983984D02*
X15336848Y-12983984D01*
X15336848Y-12983984D02*
X15355896Y-12974460D01*
X15355896Y-12974460D02*
X15365420Y-12964936D01*
X15365420Y-12964936D02*
X15374944Y-12945888D01*
X15374944Y-12945888D02*
X15374944Y-12907793D01*
X15374944Y-12907793D02*
X15365420Y-12888746D01*
X15365420Y-12888746D02*
X15355896Y-12879222D01*
X15355896Y-12879222D02*
X15336848Y-12869698D01*
X15451134Y-12783984D02*
X15451134Y-12822079D01*
X15527325Y-12783984D02*
X15527325Y-12822079D01*
X15822563Y-13060174D02*
X15813039Y-13050650D01*
X15813039Y-13050650D02*
X15793991Y-13022079D01*
X15793991Y-13022079D02*
X15784468Y-13003031D01*
X15784468Y-13003031D02*
X15774944Y-12974460D01*
X15774944Y-12974460D02*
X15765420Y-12926841D01*
X15765420Y-12926841D02*
X15765420Y-12888746D01*
X15765420Y-12888746D02*
X15774944Y-12841127D01*
X15774944Y-12841127D02*
X15784468Y-12812555D01*
X15784468Y-12812555D02*
X15793991Y-12793508D01*
X15793991Y-12793508D02*
X15813039Y-12764936D01*
X15813039Y-12764936D02*
X15822563Y-12755412D01*
X15879706Y-12783984D02*
X16003515Y-12783984D01*
X16003515Y-12783984D02*
X15936848Y-12860174D01*
X15936848Y-12860174D02*
X15965420Y-12860174D01*
X15965420Y-12860174D02*
X15984468Y-12869698D01*
X15984468Y-12869698D02*
X15993991Y-12879222D01*
X15993991Y-12879222D02*
X16003515Y-12898269D01*
X16003515Y-12898269D02*
X16003515Y-12945888D01*
X16003515Y-12945888D02*
X15993991Y-12964936D01*
X15993991Y-12964936D02*
X15984468Y-12974460D01*
X15984468Y-12974460D02*
X15965420Y-12983984D01*
X15965420Y-12983984D02*
X15908277Y-12983984D01*
X15908277Y-12983984D02*
X15889229Y-12974460D01*
X15889229Y-12974460D02*
X15879706Y-12964936D01*
X16241610Y-12983984D02*
X16241610Y-12783984D01*
X16327325Y-12983984D02*
X16327325Y-12879222D01*
X16327325Y-12879222D02*
X16317801Y-12860174D01*
X16317801Y-12860174D02*
X16298753Y-12850650D01*
X16298753Y-12850650D02*
X16270182Y-12850650D01*
X16270182Y-12850650D02*
X16251134Y-12860174D01*
X16251134Y-12860174D02*
X16241610Y-12869698D01*
X16451134Y-12983984D02*
X16432087Y-12974460D01*
X16432087Y-12974460D02*
X16422563Y-12964936D01*
X16422563Y-12964936D02*
X16413039Y-12945888D01*
X16413039Y-12945888D02*
X16413039Y-12888746D01*
X16413039Y-12888746D02*
X16422563Y-12869698D01*
X16422563Y-12869698D02*
X16432087Y-12860174D01*
X16432087Y-12860174D02*
X16451134Y-12850650D01*
X16451134Y-12850650D02*
X16479706Y-12850650D01*
X16479706Y-12850650D02*
X16498753Y-12860174D01*
X16498753Y-12860174D02*
X16508277Y-12869698D01*
X16508277Y-12869698D02*
X16517801Y-12888746D01*
X16517801Y-12888746D02*
X16517801Y-12945888D01*
X16517801Y-12945888D02*
X16508277Y-12964936D01*
X16508277Y-12964936D02*
X16498753Y-12974460D01*
X16498753Y-12974460D02*
X16479706Y-12983984D01*
X16479706Y-12983984D02*
X16451134Y-12983984D01*
X16632087Y-12983984D02*
X16613039Y-12974460D01*
X16613039Y-12974460D02*
X16603515Y-12955412D01*
X16603515Y-12955412D02*
X16603515Y-12783984D01*
X16784468Y-12974460D02*
X16765420Y-12983984D01*
X16765420Y-12983984D02*
X16727325Y-12983984D01*
X16727325Y-12983984D02*
X16708277Y-12974460D01*
X16708277Y-12974460D02*
X16698753Y-12955412D01*
X16698753Y-12955412D02*
X16698753Y-12879222D01*
X16698753Y-12879222D02*
X16708277Y-12860174D01*
X16708277Y-12860174D02*
X16727325Y-12850650D01*
X16727325Y-12850650D02*
X16765420Y-12850650D01*
X16765420Y-12850650D02*
X16784468Y-12860174D01*
X16784468Y-12860174D02*
X16793992Y-12879222D01*
X16793992Y-12879222D02*
X16793992Y-12898269D01*
X16793992Y-12898269D02*
X16698753Y-12917317D01*
X16870182Y-12974460D02*
X16889230Y-12983984D01*
X16889230Y-12983984D02*
X16927325Y-12983984D01*
X16927325Y-12983984D02*
X16946373Y-12974460D01*
X16946373Y-12974460D02*
X16955896Y-12955412D01*
X16955896Y-12955412D02*
X16955896Y-12945888D01*
X16955896Y-12945888D02*
X16946373Y-12926841D01*
X16946373Y-12926841D02*
X16927325Y-12917317D01*
X16927325Y-12917317D02*
X16898753Y-12917317D01*
X16898753Y-12917317D02*
X16879706Y-12907793D01*
X16879706Y-12907793D02*
X16870182Y-12888746D01*
X16870182Y-12888746D02*
X16870182Y-12879222D01*
X16870182Y-12879222D02*
X16879706Y-12860174D01*
X16879706Y-12860174D02*
X16898753Y-12850650D01*
X16898753Y-12850650D02*
X16927325Y-12850650D01*
X16927325Y-12850650D02*
X16946373Y-12860174D01*
X17022563Y-13060174D02*
X17032087Y-13050650D01*
X17032087Y-13050650D02*
X17051134Y-13022079D01*
X17051134Y-13022079D02*
X17060658Y-13003031D01*
X17060658Y-13003031D02*
X17070182Y-12974460D01*
X17070182Y-12974460D02*
X17079706Y-12926841D01*
X17079706Y-12926841D02*
X17079706Y-12888746D01*
X17079706Y-12888746D02*
X17070182Y-12841127D01*
X17070182Y-12841127D02*
X17060658Y-12812555D01*
X17060658Y-12812555D02*
X17051134Y-12793508D01*
X17051134Y-12793508D02*
X17032087Y-12764936D01*
X17032087Y-12764936D02*
X17022563Y-12755412D01*
D12*
X12247500Y-13156500D02*
G75*
G02*
X12167500Y-13156500I-40000J0D01*
G01*
X12167500Y-13156500D02*
G75*
G02*
X12247500Y-13156500I40000J0D01*
G01*
D11*
X12546372Y-13047984D02*
X12565420Y-13047984D01*
X12565420Y-13047984D02*
X12584467Y-13057508D01*
X12584467Y-13057508D02*
X12593991Y-13067031D01*
X12593991Y-13067031D02*
X12603515Y-13086079D01*
X12603515Y-13086079D02*
X12613039Y-13124174D01*
X12613039Y-13124174D02*
X12613039Y-13171793D01*
X12613039Y-13171793D02*
X12603515Y-13209888D01*
X12603515Y-13209888D02*
X12593991Y-13228936D01*
X12593991Y-13228936D02*
X12584467Y-13238460D01*
X12584467Y-13238460D02*
X12565420Y-13247984D01*
X12565420Y-13247984D02*
X12546372Y-13247984D01*
X12546372Y-13247984D02*
X12527324Y-13238460D01*
X12527324Y-13238460D02*
X12517801Y-13228936D01*
X12517801Y-13228936D02*
X12508277Y-13209888D01*
X12508277Y-13209888D02*
X12498753Y-13171793D01*
X12498753Y-13171793D02*
X12498753Y-13124174D01*
X12498753Y-13124174D02*
X12508277Y-13086079D01*
X12508277Y-13086079D02*
X12517801Y-13067031D01*
X12517801Y-13067031D02*
X12527324Y-13057508D01*
X12527324Y-13057508D02*
X12546372Y-13047984D01*
X12698753Y-13228936D02*
X12708277Y-13238460D01*
X12708277Y-13238460D02*
X12698753Y-13247984D01*
X12698753Y-13247984D02*
X12689229Y-13238460D01*
X12689229Y-13238460D02*
X12698753Y-13228936D01*
X12698753Y-13228936D02*
X12698753Y-13247984D01*
X12822562Y-13133698D02*
X12803515Y-13124174D01*
X12803515Y-13124174D02*
X12793991Y-13114650D01*
X12793991Y-13114650D02*
X12784467Y-13095603D01*
X12784467Y-13095603D02*
X12784467Y-13086079D01*
X12784467Y-13086079D02*
X12793991Y-13067031D01*
X12793991Y-13067031D02*
X12803515Y-13057508D01*
X12803515Y-13057508D02*
X12822562Y-13047984D01*
X12822562Y-13047984D02*
X12860658Y-13047984D01*
X12860658Y-13047984D02*
X12879705Y-13057508D01*
X12879705Y-13057508D02*
X12889229Y-13067031D01*
X12889229Y-13067031D02*
X12898753Y-13086079D01*
X12898753Y-13086079D02*
X12898753Y-13095603D01*
X12898753Y-13095603D02*
X12889229Y-13114650D01*
X12889229Y-13114650D02*
X12879705Y-13124174D01*
X12879705Y-13124174D02*
X12860658Y-13133698D01*
X12860658Y-13133698D02*
X12822562Y-13133698D01*
X12822562Y-13133698D02*
X12803515Y-13143222D01*
X12803515Y-13143222D02*
X12793991Y-13152746D01*
X12793991Y-13152746D02*
X12784467Y-13171793D01*
X12784467Y-13171793D02*
X12784467Y-13209888D01*
X12784467Y-13209888D02*
X12793991Y-13228936D01*
X12793991Y-13228936D02*
X12803515Y-13238460D01*
X12803515Y-13238460D02*
X12822562Y-13247984D01*
X12822562Y-13247984D02*
X12860658Y-13247984D01*
X12860658Y-13247984D02*
X12879705Y-13238460D01*
X12879705Y-13238460D02*
X12889229Y-13228936D01*
X12889229Y-13228936D02*
X12898753Y-13209888D01*
X12898753Y-13209888D02*
X12898753Y-13171793D01*
X12898753Y-13171793D02*
X12889229Y-13152746D01*
X12889229Y-13152746D02*
X12879705Y-13143222D01*
X12879705Y-13143222D02*
X12860658Y-13133698D01*
X13022562Y-13047984D02*
X13041610Y-13047984D01*
X13041610Y-13047984D02*
X13060658Y-13057508D01*
X13060658Y-13057508D02*
X13070182Y-13067031D01*
X13070182Y-13067031D02*
X13079705Y-13086079D01*
X13079705Y-13086079D02*
X13089229Y-13124174D01*
X13089229Y-13124174D02*
X13089229Y-13171793D01*
X13089229Y-13171793D02*
X13079705Y-13209888D01*
X13079705Y-13209888D02*
X13070182Y-13228936D01*
X13070182Y-13228936D02*
X13060658Y-13238460D01*
X13060658Y-13238460D02*
X13041610Y-13247984D01*
X13041610Y-13247984D02*
X13022562Y-13247984D01*
X13022562Y-13247984D02*
X13003515Y-13238460D01*
X13003515Y-13238460D02*
X12993991Y-13228936D01*
X12993991Y-13228936D02*
X12984467Y-13209888D01*
X12984467Y-13209888D02*
X12974943Y-13171793D01*
X12974943Y-13171793D02*
X12974943Y-13124174D01*
X12974943Y-13124174D02*
X12984467Y-13086079D01*
X12984467Y-13086079D02*
X12993991Y-13067031D01*
X12993991Y-13067031D02*
X13003515Y-13057508D01*
X13003515Y-13057508D02*
X13022562Y-13047984D01*
X13213039Y-13047984D02*
X13232086Y-13047984D01*
X13232086Y-13047984D02*
X13251134Y-13057508D01*
X13251134Y-13057508D02*
X13260658Y-13067031D01*
X13260658Y-13067031D02*
X13270182Y-13086079D01*
X13270182Y-13086079D02*
X13279705Y-13124174D01*
X13279705Y-13124174D02*
X13279705Y-13171793D01*
X13279705Y-13171793D02*
X13270182Y-13209888D01*
X13270182Y-13209888D02*
X13260658Y-13228936D01*
X13260658Y-13228936D02*
X13251134Y-13238460D01*
X13251134Y-13238460D02*
X13232086Y-13247984D01*
X13232086Y-13247984D02*
X13213039Y-13247984D01*
X13213039Y-13247984D02*
X13193991Y-13238460D01*
X13193991Y-13238460D02*
X13184467Y-13228936D01*
X13184467Y-13228936D02*
X13174943Y-13209888D01*
X13174943Y-13209888D02*
X13165420Y-13171793D01*
X13165420Y-13171793D02*
X13165420Y-13124174D01*
X13165420Y-13124174D02*
X13174943Y-13086079D01*
X13174943Y-13086079D02*
X13184467Y-13067031D01*
X13184467Y-13067031D02*
X13193991Y-13057508D01*
X13193991Y-13057508D02*
X13213039Y-13047984D01*
X13365420Y-13247984D02*
X13365420Y-13114650D01*
X13365420Y-13133698D02*
X13374943Y-13124174D01*
X13374943Y-13124174D02*
X13393991Y-13114650D01*
X13393991Y-13114650D02*
X13422563Y-13114650D01*
X13422563Y-13114650D02*
X13441610Y-13124174D01*
X13441610Y-13124174D02*
X13451134Y-13143222D01*
X13451134Y-13143222D02*
X13451134Y-13247984D01*
X13451134Y-13143222D02*
X13460658Y-13124174D01*
X13460658Y-13124174D02*
X13479705Y-13114650D01*
X13479705Y-13114650D02*
X13508277Y-13114650D01*
X13508277Y-13114650D02*
X13527324Y-13124174D01*
X13527324Y-13124174D02*
X13536848Y-13143222D01*
X13536848Y-13143222D02*
X13536848Y-13247984D01*
X13632086Y-13247984D02*
X13632086Y-13114650D01*
X13632086Y-13133698D02*
X13641610Y-13124174D01*
X13641610Y-13124174D02*
X13660658Y-13114650D01*
X13660658Y-13114650D02*
X13689229Y-13114650D01*
X13689229Y-13114650D02*
X13708277Y-13124174D01*
X13708277Y-13124174D02*
X13717801Y-13143222D01*
X13717801Y-13143222D02*
X13717801Y-13247984D01*
X13717801Y-13143222D02*
X13727324Y-13124174D01*
X13727324Y-13124174D02*
X13746372Y-13114650D01*
X13746372Y-13114650D02*
X13774943Y-13114650D01*
X13774943Y-13114650D02*
X13793991Y-13124174D01*
X13793991Y-13124174D02*
X13803515Y-13143222D01*
X13803515Y-13143222D02*
X13803515Y-13247984D01*
X14193991Y-13038460D02*
X14022563Y-13295603D01*
X14451134Y-13047984D02*
X14470182Y-13047984D01*
X14470182Y-13047984D02*
X14489229Y-13057508D01*
X14489229Y-13057508D02*
X14498753Y-13067031D01*
X14498753Y-13067031D02*
X14508277Y-13086079D01*
X14508277Y-13086079D02*
X14517801Y-13124174D01*
X14517801Y-13124174D02*
X14517801Y-13171793D01*
X14517801Y-13171793D02*
X14508277Y-13209888D01*
X14508277Y-13209888D02*
X14498753Y-13228936D01*
X14498753Y-13228936D02*
X14489229Y-13238460D01*
X14489229Y-13238460D02*
X14470182Y-13247984D01*
X14470182Y-13247984D02*
X14451134Y-13247984D01*
X14451134Y-13247984D02*
X14432086Y-13238460D01*
X14432086Y-13238460D02*
X14422563Y-13228936D01*
X14422563Y-13228936D02*
X14413039Y-13209888D01*
X14413039Y-13209888D02*
X14403515Y-13171793D01*
X14403515Y-13171793D02*
X14403515Y-13124174D01*
X14403515Y-13124174D02*
X14413039Y-13086079D01*
X14413039Y-13086079D02*
X14422563Y-13067031D01*
X14422563Y-13067031D02*
X14432086Y-13057508D01*
X14432086Y-13057508D02*
X14451134Y-13047984D01*
X14603515Y-13228936D02*
X14613039Y-13238460D01*
X14613039Y-13238460D02*
X14603515Y-13247984D01*
X14603515Y-13247984D02*
X14593991Y-13238460D01*
X14593991Y-13238460D02*
X14603515Y-13228936D01*
X14603515Y-13228936D02*
X14603515Y-13247984D01*
X14736848Y-13047984D02*
X14755896Y-13047984D01*
X14755896Y-13047984D02*
X14774944Y-13057508D01*
X14774944Y-13057508D02*
X14784467Y-13067031D01*
X14784467Y-13067031D02*
X14793991Y-13086079D01*
X14793991Y-13086079D02*
X14803515Y-13124174D01*
X14803515Y-13124174D02*
X14803515Y-13171793D01*
X14803515Y-13171793D02*
X14793991Y-13209888D01*
X14793991Y-13209888D02*
X14784467Y-13228936D01*
X14784467Y-13228936D02*
X14774944Y-13238460D01*
X14774944Y-13238460D02*
X14755896Y-13247984D01*
X14755896Y-13247984D02*
X14736848Y-13247984D01*
X14736848Y-13247984D02*
X14717801Y-13238460D01*
X14717801Y-13238460D02*
X14708277Y-13228936D01*
X14708277Y-13228936D02*
X14698753Y-13209888D01*
X14698753Y-13209888D02*
X14689229Y-13171793D01*
X14689229Y-13171793D02*
X14689229Y-13124174D01*
X14689229Y-13124174D02*
X14698753Y-13086079D01*
X14698753Y-13086079D02*
X14708277Y-13067031D01*
X14708277Y-13067031D02*
X14717801Y-13057508D01*
X14717801Y-13057508D02*
X14736848Y-13047984D01*
X14870182Y-13047984D02*
X14993991Y-13047984D01*
X14993991Y-13047984D02*
X14927325Y-13124174D01*
X14927325Y-13124174D02*
X14955896Y-13124174D01*
X14955896Y-13124174D02*
X14974944Y-13133698D01*
X14974944Y-13133698D02*
X14984467Y-13143222D01*
X14984467Y-13143222D02*
X14993991Y-13162269D01*
X14993991Y-13162269D02*
X14993991Y-13209888D01*
X14993991Y-13209888D02*
X14984467Y-13228936D01*
X14984467Y-13228936D02*
X14974944Y-13238460D01*
X14974944Y-13238460D02*
X14955896Y-13247984D01*
X14955896Y-13247984D02*
X14898753Y-13247984D01*
X14898753Y-13247984D02*
X14879706Y-13238460D01*
X14879706Y-13238460D02*
X14870182Y-13228936D01*
X15184467Y-13247984D02*
X15070182Y-13247984D01*
X15127325Y-13247984D02*
X15127325Y-13047984D01*
X15127325Y-13047984D02*
X15108277Y-13076555D01*
X15108277Y-13076555D02*
X15089229Y-13095603D01*
X15089229Y-13095603D02*
X15070182Y-13105127D01*
X15365420Y-13047984D02*
X15270182Y-13047984D01*
X15270182Y-13047984D02*
X15260658Y-13143222D01*
X15260658Y-13143222D02*
X15270182Y-13133698D01*
X15270182Y-13133698D02*
X15289229Y-13124174D01*
X15289229Y-13124174D02*
X15336848Y-13124174D01*
X15336848Y-13124174D02*
X15355896Y-13133698D01*
X15355896Y-13133698D02*
X15365420Y-13143222D01*
X15365420Y-13143222D02*
X15374944Y-13162269D01*
X15374944Y-13162269D02*
X15374944Y-13209888D01*
X15374944Y-13209888D02*
X15365420Y-13228936D01*
X15365420Y-13228936D02*
X15355896Y-13238460D01*
X15355896Y-13238460D02*
X15336848Y-13247984D01*
X15336848Y-13247984D02*
X15289229Y-13247984D01*
X15289229Y-13247984D02*
X15270182Y-13238460D01*
X15270182Y-13238460D02*
X15260658Y-13228936D01*
X15451134Y-13047984D02*
X15451134Y-13086079D01*
X15527325Y-13047984D02*
X15527325Y-13086079D01*
X15822563Y-13324174D02*
X15813039Y-13314650D01*
X15813039Y-13314650D02*
X15793991Y-13286079D01*
X15793991Y-13286079D02*
X15784468Y-13267031D01*
X15784468Y-13267031D02*
X15774944Y-13238460D01*
X15774944Y-13238460D02*
X15765420Y-13190841D01*
X15765420Y-13190841D02*
X15765420Y-13152746D01*
X15765420Y-13152746D02*
X15774944Y-13105127D01*
X15774944Y-13105127D02*
X15784468Y-13076555D01*
X15784468Y-13076555D02*
X15793991Y-13057508D01*
X15793991Y-13057508D02*
X15813039Y-13028936D01*
X15813039Y-13028936D02*
X15822563Y-13019412D01*
X15984468Y-13114650D02*
X15984468Y-13247984D01*
X15936848Y-13038460D02*
X15889229Y-13181317D01*
X15889229Y-13181317D02*
X16013039Y-13181317D01*
X16241610Y-13247984D02*
X16241610Y-13047984D01*
X16327325Y-13247984D02*
X16327325Y-13143222D01*
X16327325Y-13143222D02*
X16317801Y-13124174D01*
X16317801Y-13124174D02*
X16298753Y-13114650D01*
X16298753Y-13114650D02*
X16270182Y-13114650D01*
X16270182Y-13114650D02*
X16251134Y-13124174D01*
X16251134Y-13124174D02*
X16241610Y-13133698D01*
X16451134Y-13247984D02*
X16432087Y-13238460D01*
X16432087Y-13238460D02*
X16422563Y-13228936D01*
X16422563Y-13228936D02*
X16413039Y-13209888D01*
X16413039Y-13209888D02*
X16413039Y-13152746D01*
X16413039Y-13152746D02*
X16422563Y-13133698D01*
X16422563Y-13133698D02*
X16432087Y-13124174D01*
X16432087Y-13124174D02*
X16451134Y-13114650D01*
X16451134Y-13114650D02*
X16479706Y-13114650D01*
X16479706Y-13114650D02*
X16498753Y-13124174D01*
X16498753Y-13124174D02*
X16508277Y-13133698D01*
X16508277Y-13133698D02*
X16517801Y-13152746D01*
X16517801Y-13152746D02*
X16517801Y-13209888D01*
X16517801Y-13209888D02*
X16508277Y-13228936D01*
X16508277Y-13228936D02*
X16498753Y-13238460D01*
X16498753Y-13238460D02*
X16479706Y-13247984D01*
X16479706Y-13247984D02*
X16451134Y-13247984D01*
X16632087Y-13247984D02*
X16613039Y-13238460D01*
X16613039Y-13238460D02*
X16603515Y-13219412D01*
X16603515Y-13219412D02*
X16603515Y-13047984D01*
X16784468Y-13238460D02*
X16765420Y-13247984D01*
X16765420Y-13247984D02*
X16727325Y-13247984D01*
X16727325Y-13247984D02*
X16708277Y-13238460D01*
X16708277Y-13238460D02*
X16698753Y-13219412D01*
X16698753Y-13219412D02*
X16698753Y-13143222D01*
X16698753Y-13143222D02*
X16708277Y-13124174D01*
X16708277Y-13124174D02*
X16727325Y-13114650D01*
X16727325Y-13114650D02*
X16765420Y-13114650D01*
X16765420Y-13114650D02*
X16784468Y-13124174D01*
X16784468Y-13124174D02*
X16793992Y-13143222D01*
X16793992Y-13143222D02*
X16793992Y-13162269D01*
X16793992Y-13162269D02*
X16698753Y-13181317D01*
X16870182Y-13238460D02*
X16889230Y-13247984D01*
X16889230Y-13247984D02*
X16927325Y-13247984D01*
X16927325Y-13247984D02*
X16946373Y-13238460D01*
X16946373Y-13238460D02*
X16955896Y-13219412D01*
X16955896Y-13219412D02*
X16955896Y-13209888D01*
X16955896Y-13209888D02*
X16946373Y-13190841D01*
X16946373Y-13190841D02*
X16927325Y-13181317D01*
X16927325Y-13181317D02*
X16898753Y-13181317D01*
X16898753Y-13181317D02*
X16879706Y-13171793D01*
X16879706Y-13171793D02*
X16870182Y-13152746D01*
X16870182Y-13152746D02*
X16870182Y-13143222D01*
X16870182Y-13143222D02*
X16879706Y-13124174D01*
X16879706Y-13124174D02*
X16898753Y-13114650D01*
X16898753Y-13114650D02*
X16927325Y-13114650D01*
X16927325Y-13114650D02*
X16946373Y-13124174D01*
X17022563Y-13324174D02*
X17032087Y-13314650D01*
X17032087Y-13314650D02*
X17051134Y-13286079D01*
X17051134Y-13286079D02*
X17060658Y-13267031D01*
X17060658Y-13267031D02*
X17070182Y-13238460D01*
X17070182Y-13238460D02*
X17079706Y-13190841D01*
X17079706Y-13190841D02*
X17079706Y-13152746D01*
X17079706Y-13152746D02*
X17070182Y-13105127D01*
X17070182Y-13105127D02*
X17060658Y-13076555D01*
X17060658Y-13076555D02*
X17051134Y-13057508D01*
X17051134Y-13057508D02*
X17032087Y-13028936D01*
X17032087Y-13028936D02*
X17022563Y-13019412D01*
D12*
X12203050Y-13376050D02*
X12203050Y-13464950D01*
X12158600Y-13420500D02*
X12247500Y-13420500D01*
D11*
X12546372Y-13311984D02*
X12565420Y-13311984D01*
X12565420Y-13311984D02*
X12584467Y-13321508D01*
X12584467Y-13321508D02*
X12593991Y-13331031D01*
X12593991Y-13331031D02*
X12603515Y-13350079D01*
X12603515Y-13350079D02*
X12613039Y-13388174D01*
X12613039Y-13388174D02*
X12613039Y-13435793D01*
X12613039Y-13435793D02*
X12603515Y-13473888D01*
X12603515Y-13473888D02*
X12593991Y-13492936D01*
X12593991Y-13492936D02*
X12584467Y-13502460D01*
X12584467Y-13502460D02*
X12565420Y-13511984D01*
X12565420Y-13511984D02*
X12546372Y-13511984D01*
X12546372Y-13511984D02*
X12527324Y-13502460D01*
X12527324Y-13502460D02*
X12517801Y-13492936D01*
X12517801Y-13492936D02*
X12508277Y-13473888D01*
X12508277Y-13473888D02*
X12498753Y-13435793D01*
X12498753Y-13435793D02*
X12498753Y-13388174D01*
X12498753Y-13388174D02*
X12508277Y-13350079D01*
X12508277Y-13350079D02*
X12517801Y-13331031D01*
X12517801Y-13331031D02*
X12527324Y-13321508D01*
X12527324Y-13321508D02*
X12546372Y-13311984D01*
X12698753Y-13492936D02*
X12708277Y-13502460D01*
X12708277Y-13502460D02*
X12698753Y-13511984D01*
X12698753Y-13511984D02*
X12689229Y-13502460D01*
X12689229Y-13502460D02*
X12698753Y-13492936D01*
X12698753Y-13492936D02*
X12698753Y-13511984D01*
X12822562Y-13397698D02*
X12803515Y-13388174D01*
X12803515Y-13388174D02*
X12793991Y-13378650D01*
X12793991Y-13378650D02*
X12784467Y-13359603D01*
X12784467Y-13359603D02*
X12784467Y-13350079D01*
X12784467Y-13350079D02*
X12793991Y-13331031D01*
X12793991Y-13331031D02*
X12803515Y-13321508D01*
X12803515Y-13321508D02*
X12822562Y-13311984D01*
X12822562Y-13311984D02*
X12860658Y-13311984D01*
X12860658Y-13311984D02*
X12879705Y-13321508D01*
X12879705Y-13321508D02*
X12889229Y-13331031D01*
X12889229Y-13331031D02*
X12898753Y-13350079D01*
X12898753Y-13350079D02*
X12898753Y-13359603D01*
X12898753Y-13359603D02*
X12889229Y-13378650D01*
X12889229Y-13378650D02*
X12879705Y-13388174D01*
X12879705Y-13388174D02*
X12860658Y-13397698D01*
X12860658Y-13397698D02*
X12822562Y-13397698D01*
X12822562Y-13397698D02*
X12803515Y-13407222D01*
X12803515Y-13407222D02*
X12793991Y-13416746D01*
X12793991Y-13416746D02*
X12784467Y-13435793D01*
X12784467Y-13435793D02*
X12784467Y-13473888D01*
X12784467Y-13473888D02*
X12793991Y-13492936D01*
X12793991Y-13492936D02*
X12803515Y-13502460D01*
X12803515Y-13502460D02*
X12822562Y-13511984D01*
X12822562Y-13511984D02*
X12860658Y-13511984D01*
X12860658Y-13511984D02*
X12879705Y-13502460D01*
X12879705Y-13502460D02*
X12889229Y-13492936D01*
X12889229Y-13492936D02*
X12898753Y-13473888D01*
X12898753Y-13473888D02*
X12898753Y-13435793D01*
X12898753Y-13435793D02*
X12889229Y-13416746D01*
X12889229Y-13416746D02*
X12879705Y-13407222D01*
X12879705Y-13407222D02*
X12860658Y-13397698D01*
X13013039Y-13397698D02*
X12993991Y-13388174D01*
X12993991Y-13388174D02*
X12984467Y-13378650D01*
X12984467Y-13378650D02*
X12974943Y-13359603D01*
X12974943Y-13359603D02*
X12974943Y-13350079D01*
X12974943Y-13350079D02*
X12984467Y-13331031D01*
X12984467Y-13331031D02*
X12993991Y-13321508D01*
X12993991Y-13321508D02*
X13013039Y-13311984D01*
X13013039Y-13311984D02*
X13051134Y-13311984D01*
X13051134Y-13311984D02*
X13070182Y-13321508D01*
X13070182Y-13321508D02*
X13079705Y-13331031D01*
X13079705Y-13331031D02*
X13089229Y-13350079D01*
X13089229Y-13350079D02*
X13089229Y-13359603D01*
X13089229Y-13359603D02*
X13079705Y-13378650D01*
X13079705Y-13378650D02*
X13070182Y-13388174D01*
X13070182Y-13388174D02*
X13051134Y-13397698D01*
X13051134Y-13397698D02*
X13013039Y-13397698D01*
X13013039Y-13397698D02*
X12993991Y-13407222D01*
X12993991Y-13407222D02*
X12984467Y-13416746D01*
X12984467Y-13416746D02*
X12974943Y-13435793D01*
X12974943Y-13435793D02*
X12974943Y-13473888D01*
X12974943Y-13473888D02*
X12984467Y-13492936D01*
X12984467Y-13492936D02*
X12993991Y-13502460D01*
X12993991Y-13502460D02*
X13013039Y-13511984D01*
X13013039Y-13511984D02*
X13051134Y-13511984D01*
X13051134Y-13511984D02*
X13070182Y-13502460D01*
X13070182Y-13502460D02*
X13079705Y-13492936D01*
X13079705Y-13492936D02*
X13089229Y-13473888D01*
X13089229Y-13473888D02*
X13089229Y-13435793D01*
X13089229Y-13435793D02*
X13079705Y-13416746D01*
X13079705Y-13416746D02*
X13070182Y-13407222D01*
X13070182Y-13407222D02*
X13051134Y-13397698D01*
X13184467Y-13511984D02*
X13222562Y-13511984D01*
X13222562Y-13511984D02*
X13241610Y-13502460D01*
X13241610Y-13502460D02*
X13251134Y-13492936D01*
X13251134Y-13492936D02*
X13270182Y-13464365D01*
X13270182Y-13464365D02*
X13279705Y-13426269D01*
X13279705Y-13426269D02*
X13279705Y-13350079D01*
X13279705Y-13350079D02*
X13270182Y-13331031D01*
X13270182Y-13331031D02*
X13260658Y-13321508D01*
X13260658Y-13321508D02*
X13241610Y-13311984D01*
X13241610Y-13311984D02*
X13203515Y-13311984D01*
X13203515Y-13311984D02*
X13184467Y-13321508D01*
X13184467Y-13321508D02*
X13174943Y-13331031D01*
X13174943Y-13331031D02*
X13165420Y-13350079D01*
X13165420Y-13350079D02*
X13165420Y-13397698D01*
X13165420Y-13397698D02*
X13174943Y-13416746D01*
X13174943Y-13416746D02*
X13184467Y-13426269D01*
X13184467Y-13426269D02*
X13203515Y-13435793D01*
X13203515Y-13435793D02*
X13241610Y-13435793D01*
X13241610Y-13435793D02*
X13260658Y-13426269D01*
X13260658Y-13426269D02*
X13270182Y-13416746D01*
X13270182Y-13416746D02*
X13279705Y-13397698D01*
X13365420Y-13511984D02*
X13365420Y-13378650D01*
X13365420Y-13397698D02*
X13374943Y-13388174D01*
X13374943Y-13388174D02*
X13393991Y-13378650D01*
X13393991Y-13378650D02*
X13422563Y-13378650D01*
X13422563Y-13378650D02*
X13441610Y-13388174D01*
X13441610Y-13388174D02*
X13451134Y-13407222D01*
X13451134Y-13407222D02*
X13451134Y-13511984D01*
X13451134Y-13407222D02*
X13460658Y-13388174D01*
X13460658Y-13388174D02*
X13479705Y-13378650D01*
X13479705Y-13378650D02*
X13508277Y-13378650D01*
X13508277Y-13378650D02*
X13527324Y-13388174D01*
X13527324Y-13388174D02*
X13536848Y-13407222D01*
X13536848Y-13407222D02*
X13536848Y-13511984D01*
X13632086Y-13511984D02*
X13632086Y-13378650D01*
X13632086Y-13397698D02*
X13641610Y-13388174D01*
X13641610Y-13388174D02*
X13660658Y-13378650D01*
X13660658Y-13378650D02*
X13689229Y-13378650D01*
X13689229Y-13378650D02*
X13708277Y-13388174D01*
X13708277Y-13388174D02*
X13717801Y-13407222D01*
X13717801Y-13407222D02*
X13717801Y-13511984D01*
X13717801Y-13407222D02*
X13727324Y-13388174D01*
X13727324Y-13388174D02*
X13746372Y-13378650D01*
X13746372Y-13378650D02*
X13774943Y-13378650D01*
X13774943Y-13378650D02*
X13793991Y-13388174D01*
X13793991Y-13388174D02*
X13803515Y-13407222D01*
X13803515Y-13407222D02*
X13803515Y-13511984D01*
X14193991Y-13302460D02*
X14022563Y-13559603D01*
X14451134Y-13311984D02*
X14470182Y-13311984D01*
X14470182Y-13311984D02*
X14489229Y-13321508D01*
X14489229Y-13321508D02*
X14498753Y-13331031D01*
X14498753Y-13331031D02*
X14508277Y-13350079D01*
X14508277Y-13350079D02*
X14517801Y-13388174D01*
X14517801Y-13388174D02*
X14517801Y-13435793D01*
X14517801Y-13435793D02*
X14508277Y-13473888D01*
X14508277Y-13473888D02*
X14498753Y-13492936D01*
X14498753Y-13492936D02*
X14489229Y-13502460D01*
X14489229Y-13502460D02*
X14470182Y-13511984D01*
X14470182Y-13511984D02*
X14451134Y-13511984D01*
X14451134Y-13511984D02*
X14432086Y-13502460D01*
X14432086Y-13502460D02*
X14422563Y-13492936D01*
X14422563Y-13492936D02*
X14413039Y-13473888D01*
X14413039Y-13473888D02*
X14403515Y-13435793D01*
X14403515Y-13435793D02*
X14403515Y-13388174D01*
X14403515Y-13388174D02*
X14413039Y-13350079D01*
X14413039Y-13350079D02*
X14422563Y-13331031D01*
X14422563Y-13331031D02*
X14432086Y-13321508D01*
X14432086Y-13321508D02*
X14451134Y-13311984D01*
X14603515Y-13492936D02*
X14613039Y-13502460D01*
X14613039Y-13502460D02*
X14603515Y-13511984D01*
X14603515Y-13511984D02*
X14593991Y-13502460D01*
X14593991Y-13502460D02*
X14603515Y-13492936D01*
X14603515Y-13492936D02*
X14603515Y-13511984D01*
X14736848Y-13311984D02*
X14755896Y-13311984D01*
X14755896Y-13311984D02*
X14774944Y-13321508D01*
X14774944Y-13321508D02*
X14784467Y-13331031D01*
X14784467Y-13331031D02*
X14793991Y-13350079D01*
X14793991Y-13350079D02*
X14803515Y-13388174D01*
X14803515Y-13388174D02*
X14803515Y-13435793D01*
X14803515Y-13435793D02*
X14793991Y-13473888D01*
X14793991Y-13473888D02*
X14784467Y-13492936D01*
X14784467Y-13492936D02*
X14774944Y-13502460D01*
X14774944Y-13502460D02*
X14755896Y-13511984D01*
X14755896Y-13511984D02*
X14736848Y-13511984D01*
X14736848Y-13511984D02*
X14717801Y-13502460D01*
X14717801Y-13502460D02*
X14708277Y-13492936D01*
X14708277Y-13492936D02*
X14698753Y-13473888D01*
X14698753Y-13473888D02*
X14689229Y-13435793D01*
X14689229Y-13435793D02*
X14689229Y-13388174D01*
X14689229Y-13388174D02*
X14698753Y-13350079D01*
X14698753Y-13350079D02*
X14708277Y-13331031D01*
X14708277Y-13331031D02*
X14717801Y-13321508D01*
X14717801Y-13321508D02*
X14736848Y-13311984D01*
X14870182Y-13311984D02*
X14993991Y-13311984D01*
X14993991Y-13311984D02*
X14927325Y-13388174D01*
X14927325Y-13388174D02*
X14955896Y-13388174D01*
X14955896Y-13388174D02*
X14974944Y-13397698D01*
X14974944Y-13397698D02*
X14984467Y-13407222D01*
X14984467Y-13407222D02*
X14993991Y-13426269D01*
X14993991Y-13426269D02*
X14993991Y-13473888D01*
X14993991Y-13473888D02*
X14984467Y-13492936D01*
X14984467Y-13492936D02*
X14974944Y-13502460D01*
X14974944Y-13502460D02*
X14955896Y-13511984D01*
X14955896Y-13511984D02*
X14898753Y-13511984D01*
X14898753Y-13511984D02*
X14879706Y-13502460D01*
X14879706Y-13502460D02*
X14870182Y-13492936D01*
X15174944Y-13311984D02*
X15079706Y-13311984D01*
X15079706Y-13311984D02*
X15070182Y-13407222D01*
X15070182Y-13407222D02*
X15079706Y-13397698D01*
X15079706Y-13397698D02*
X15098753Y-13388174D01*
X15098753Y-13388174D02*
X15146372Y-13388174D01*
X15146372Y-13388174D02*
X15165420Y-13397698D01*
X15165420Y-13397698D02*
X15174944Y-13407222D01*
X15174944Y-13407222D02*
X15184467Y-13426269D01*
X15184467Y-13426269D02*
X15184467Y-13473888D01*
X15184467Y-13473888D02*
X15174944Y-13492936D01*
X15174944Y-13492936D02*
X15165420Y-13502460D01*
X15165420Y-13502460D02*
X15146372Y-13511984D01*
X15146372Y-13511984D02*
X15098753Y-13511984D01*
X15098753Y-13511984D02*
X15079706Y-13502460D01*
X15079706Y-13502460D02*
X15070182Y-13492936D01*
X15308277Y-13311984D02*
X15327325Y-13311984D01*
X15327325Y-13311984D02*
X15346372Y-13321508D01*
X15346372Y-13321508D02*
X15355896Y-13331031D01*
X15355896Y-13331031D02*
X15365420Y-13350079D01*
X15365420Y-13350079D02*
X15374944Y-13388174D01*
X15374944Y-13388174D02*
X15374944Y-13435793D01*
X15374944Y-13435793D02*
X15365420Y-13473888D01*
X15365420Y-13473888D02*
X15355896Y-13492936D01*
X15355896Y-13492936D02*
X15346372Y-13502460D01*
X15346372Y-13502460D02*
X15327325Y-13511984D01*
X15327325Y-13511984D02*
X15308277Y-13511984D01*
X15308277Y-13511984D02*
X15289229Y-13502460D01*
X15289229Y-13502460D02*
X15279706Y-13492936D01*
X15279706Y-13492936D02*
X15270182Y-13473888D01*
X15270182Y-13473888D02*
X15260658Y-13435793D01*
X15260658Y-13435793D02*
X15260658Y-13388174D01*
X15260658Y-13388174D02*
X15270182Y-13350079D01*
X15270182Y-13350079D02*
X15279706Y-13331031D01*
X15279706Y-13331031D02*
X15289229Y-13321508D01*
X15289229Y-13321508D02*
X15308277Y-13311984D01*
X15451134Y-13311984D02*
X15451134Y-13350079D01*
X15527325Y-13311984D02*
X15527325Y-13350079D01*
X15822563Y-13588174D02*
X15813039Y-13578650D01*
X15813039Y-13578650D02*
X15793991Y-13550079D01*
X15793991Y-13550079D02*
X15784468Y-13531031D01*
X15784468Y-13531031D02*
X15774944Y-13502460D01*
X15774944Y-13502460D02*
X15765420Y-13454841D01*
X15765420Y-13454841D02*
X15765420Y-13416746D01*
X15765420Y-13416746D02*
X15774944Y-13369127D01*
X15774944Y-13369127D02*
X15784468Y-13340555D01*
X15784468Y-13340555D02*
X15793991Y-13321508D01*
X15793991Y-13321508D02*
X15813039Y-13292936D01*
X15813039Y-13292936D02*
X15822563Y-13283412D01*
X16003515Y-13511984D02*
X15889229Y-13511984D01*
X15946372Y-13511984D02*
X15946372Y-13311984D01*
X15946372Y-13311984D02*
X15927325Y-13340555D01*
X15927325Y-13340555D02*
X15908277Y-13359603D01*
X15908277Y-13359603D02*
X15889229Y-13369127D01*
X16174944Y-13378650D02*
X16174944Y-13511984D01*
X16127325Y-13302460D02*
X16079706Y-13445317D01*
X16079706Y-13445317D02*
X16203515Y-13445317D01*
X16432087Y-13511984D02*
X16432087Y-13311984D01*
X16517801Y-13511984D02*
X16517801Y-13407222D01*
X16517801Y-13407222D02*
X16508277Y-13388174D01*
X16508277Y-13388174D02*
X16489230Y-13378650D01*
X16489230Y-13378650D02*
X16460658Y-13378650D01*
X16460658Y-13378650D02*
X16441610Y-13388174D01*
X16441610Y-13388174D02*
X16432087Y-13397698D01*
X16641610Y-13511984D02*
X16622563Y-13502460D01*
X16622563Y-13502460D02*
X16613039Y-13492936D01*
X16613039Y-13492936D02*
X16603515Y-13473888D01*
X16603515Y-13473888D02*
X16603515Y-13416746D01*
X16603515Y-13416746D02*
X16613039Y-13397698D01*
X16613039Y-13397698D02*
X16622563Y-13388174D01*
X16622563Y-13388174D02*
X16641610Y-13378650D01*
X16641610Y-13378650D02*
X16670182Y-13378650D01*
X16670182Y-13378650D02*
X16689230Y-13388174D01*
X16689230Y-13388174D02*
X16698753Y-13397698D01*
X16698753Y-13397698D02*
X16708277Y-13416746D01*
X16708277Y-13416746D02*
X16708277Y-13473888D01*
X16708277Y-13473888D02*
X16698753Y-13492936D01*
X16698753Y-13492936D02*
X16689230Y-13502460D01*
X16689230Y-13502460D02*
X16670182Y-13511984D01*
X16670182Y-13511984D02*
X16641610Y-13511984D01*
X16822563Y-13511984D02*
X16803515Y-13502460D01*
X16803515Y-13502460D02*
X16793992Y-13483412D01*
X16793992Y-13483412D02*
X16793992Y-13311984D01*
X16974944Y-13502460D02*
X16955896Y-13511984D01*
X16955896Y-13511984D02*
X16917801Y-13511984D01*
X16917801Y-13511984D02*
X16898753Y-13502460D01*
X16898753Y-13502460D02*
X16889230Y-13483412D01*
X16889230Y-13483412D02*
X16889230Y-13407222D01*
X16889230Y-13407222D02*
X16898753Y-13388174D01*
X16898753Y-13388174D02*
X16917801Y-13378650D01*
X16917801Y-13378650D02*
X16955896Y-13378650D01*
X16955896Y-13378650D02*
X16974944Y-13388174D01*
X16974944Y-13388174D02*
X16984468Y-13407222D01*
X16984468Y-13407222D02*
X16984468Y-13426269D01*
X16984468Y-13426269D02*
X16889230Y-13445317D01*
X17060658Y-13502460D02*
X17079706Y-13511984D01*
X17079706Y-13511984D02*
X17117801Y-13511984D01*
X17117801Y-13511984D02*
X17136849Y-13502460D01*
X17136849Y-13502460D02*
X17146373Y-13483412D01*
X17146373Y-13483412D02*
X17146373Y-13473888D01*
X17146373Y-13473888D02*
X17136849Y-13454841D01*
X17136849Y-13454841D02*
X17117801Y-13445317D01*
X17117801Y-13445317D02*
X17089230Y-13445317D01*
X17089230Y-13445317D02*
X17070182Y-13435793D01*
X17070182Y-13435793D02*
X17060658Y-13416746D01*
X17060658Y-13416746D02*
X17060658Y-13407222D01*
X17060658Y-13407222D02*
X17070182Y-13388174D01*
X17070182Y-13388174D02*
X17089230Y-13378650D01*
X17089230Y-13378650D02*
X17117801Y-13378650D01*
X17117801Y-13378650D02*
X17136849Y-13388174D01*
X17213039Y-13588174D02*
X17222563Y-13578650D01*
X17222563Y-13578650D02*
X17241611Y-13550079D01*
X17241611Y-13550079D02*
X17251134Y-13531031D01*
X17251134Y-13531031D02*
X17260658Y-13502460D01*
X17260658Y-13502460D02*
X17270182Y-13454841D01*
X17270182Y-13454841D02*
X17270182Y-13416746D01*
X17270182Y-13416746D02*
X17260658Y-13369127D01*
X17260658Y-13369127D02*
X17251134Y-13340555D01*
X17251134Y-13340555D02*
X17241611Y-13321508D01*
X17241611Y-13321508D02*
X17222563Y-13292936D01*
X17222563Y-13292936D02*
X17213039Y-13283412D01*
D12*
X12232856Y-13719856D02*
X12232856Y-13649144D01*
X12162144Y-13649144D01*
X12162144Y-13719856D01*
X12232856Y-13719856D01*
D11*
X12613039Y-13775984D02*
X12498753Y-13775984D01*
X12555896Y-13775984D02*
X12555896Y-13575984D01*
X12555896Y-13575984D02*
X12536848Y-13604555D01*
X12536848Y-13604555D02*
X12517801Y-13623603D01*
X12517801Y-13623603D02*
X12498753Y-13633127D01*
X12698753Y-13756936D02*
X12708277Y-13766460D01*
X12708277Y-13766460D02*
X12698753Y-13775984D01*
X12698753Y-13775984D02*
X12689229Y-13766460D01*
X12689229Y-13766460D02*
X12698753Y-13756936D01*
X12698753Y-13756936D02*
X12698753Y-13775984D01*
X12832086Y-13575984D02*
X12851134Y-13575984D01*
X12851134Y-13575984D02*
X12870182Y-13585508D01*
X12870182Y-13585508D02*
X12879705Y-13595031D01*
X12879705Y-13595031D02*
X12889229Y-13614079D01*
X12889229Y-13614079D02*
X12898753Y-13652174D01*
X12898753Y-13652174D02*
X12898753Y-13699793D01*
X12898753Y-13699793D02*
X12889229Y-13737888D01*
X12889229Y-13737888D02*
X12879705Y-13756936D01*
X12879705Y-13756936D02*
X12870182Y-13766460D01*
X12870182Y-13766460D02*
X12851134Y-13775984D01*
X12851134Y-13775984D02*
X12832086Y-13775984D01*
X12832086Y-13775984D02*
X12813039Y-13766460D01*
X12813039Y-13766460D02*
X12803515Y-13756936D01*
X12803515Y-13756936D02*
X12793991Y-13737888D01*
X12793991Y-13737888D02*
X12784467Y-13699793D01*
X12784467Y-13699793D02*
X12784467Y-13652174D01*
X12784467Y-13652174D02*
X12793991Y-13614079D01*
X12793991Y-13614079D02*
X12803515Y-13595031D01*
X12803515Y-13595031D02*
X12813039Y-13585508D01*
X12813039Y-13585508D02*
X12832086Y-13575984D01*
X13022562Y-13575984D02*
X13041610Y-13575984D01*
X13041610Y-13575984D02*
X13060658Y-13585508D01*
X13060658Y-13585508D02*
X13070182Y-13595031D01*
X13070182Y-13595031D02*
X13079705Y-13614079D01*
X13079705Y-13614079D02*
X13089229Y-13652174D01*
X13089229Y-13652174D02*
X13089229Y-13699793D01*
X13089229Y-13699793D02*
X13079705Y-13737888D01*
X13079705Y-13737888D02*
X13070182Y-13756936D01*
X13070182Y-13756936D02*
X13060658Y-13766460D01*
X13060658Y-13766460D02*
X13041610Y-13775984D01*
X13041610Y-13775984D02*
X13022562Y-13775984D01*
X13022562Y-13775984D02*
X13003515Y-13766460D01*
X13003515Y-13766460D02*
X12993991Y-13756936D01*
X12993991Y-13756936D02*
X12984467Y-13737888D01*
X12984467Y-13737888D02*
X12974943Y-13699793D01*
X12974943Y-13699793D02*
X12974943Y-13652174D01*
X12974943Y-13652174D02*
X12984467Y-13614079D01*
X12984467Y-13614079D02*
X12993991Y-13595031D01*
X12993991Y-13595031D02*
X13003515Y-13585508D01*
X13003515Y-13585508D02*
X13022562Y-13575984D01*
X13213039Y-13575984D02*
X13232086Y-13575984D01*
X13232086Y-13575984D02*
X13251134Y-13585508D01*
X13251134Y-13585508D02*
X13260658Y-13595031D01*
X13260658Y-13595031D02*
X13270182Y-13614079D01*
X13270182Y-13614079D02*
X13279705Y-13652174D01*
X13279705Y-13652174D02*
X13279705Y-13699793D01*
X13279705Y-13699793D02*
X13270182Y-13737888D01*
X13270182Y-13737888D02*
X13260658Y-13756936D01*
X13260658Y-13756936D02*
X13251134Y-13766460D01*
X13251134Y-13766460D02*
X13232086Y-13775984D01*
X13232086Y-13775984D02*
X13213039Y-13775984D01*
X13213039Y-13775984D02*
X13193991Y-13766460D01*
X13193991Y-13766460D02*
X13184467Y-13756936D01*
X13184467Y-13756936D02*
X13174943Y-13737888D01*
X13174943Y-13737888D02*
X13165420Y-13699793D01*
X13165420Y-13699793D02*
X13165420Y-13652174D01*
X13165420Y-13652174D02*
X13174943Y-13614079D01*
X13174943Y-13614079D02*
X13184467Y-13595031D01*
X13184467Y-13595031D02*
X13193991Y-13585508D01*
X13193991Y-13585508D02*
X13213039Y-13575984D01*
X13365420Y-13775984D02*
X13365420Y-13642650D01*
X13365420Y-13661698D02*
X13374943Y-13652174D01*
X13374943Y-13652174D02*
X13393991Y-13642650D01*
X13393991Y-13642650D02*
X13422563Y-13642650D01*
X13422563Y-13642650D02*
X13441610Y-13652174D01*
X13441610Y-13652174D02*
X13451134Y-13671222D01*
X13451134Y-13671222D02*
X13451134Y-13775984D01*
X13451134Y-13671222D02*
X13460658Y-13652174D01*
X13460658Y-13652174D02*
X13479705Y-13642650D01*
X13479705Y-13642650D02*
X13508277Y-13642650D01*
X13508277Y-13642650D02*
X13527324Y-13652174D01*
X13527324Y-13652174D02*
X13536848Y-13671222D01*
X13536848Y-13671222D02*
X13536848Y-13775984D01*
X13632086Y-13775984D02*
X13632086Y-13642650D01*
X13632086Y-13661698D02*
X13641610Y-13652174D01*
X13641610Y-13652174D02*
X13660658Y-13642650D01*
X13660658Y-13642650D02*
X13689229Y-13642650D01*
X13689229Y-13642650D02*
X13708277Y-13652174D01*
X13708277Y-13652174D02*
X13717801Y-13671222D01*
X13717801Y-13671222D02*
X13717801Y-13775984D01*
X13717801Y-13671222D02*
X13727324Y-13652174D01*
X13727324Y-13652174D02*
X13746372Y-13642650D01*
X13746372Y-13642650D02*
X13774943Y-13642650D01*
X13774943Y-13642650D02*
X13793991Y-13652174D01*
X13793991Y-13652174D02*
X13803515Y-13671222D01*
X13803515Y-13671222D02*
X13803515Y-13775984D01*
X14193991Y-13566460D02*
X14022563Y-13823603D01*
X14451134Y-13575984D02*
X14470182Y-13575984D01*
X14470182Y-13575984D02*
X14489229Y-13585508D01*
X14489229Y-13585508D02*
X14498753Y-13595031D01*
X14498753Y-13595031D02*
X14508277Y-13614079D01*
X14508277Y-13614079D02*
X14517801Y-13652174D01*
X14517801Y-13652174D02*
X14517801Y-13699793D01*
X14517801Y-13699793D02*
X14508277Y-13737888D01*
X14508277Y-13737888D02*
X14498753Y-13756936D01*
X14498753Y-13756936D02*
X14489229Y-13766460D01*
X14489229Y-13766460D02*
X14470182Y-13775984D01*
X14470182Y-13775984D02*
X14451134Y-13775984D01*
X14451134Y-13775984D02*
X14432086Y-13766460D01*
X14432086Y-13766460D02*
X14422563Y-13756936D01*
X14422563Y-13756936D02*
X14413039Y-13737888D01*
X14413039Y-13737888D02*
X14403515Y-13699793D01*
X14403515Y-13699793D02*
X14403515Y-13652174D01*
X14403515Y-13652174D02*
X14413039Y-13614079D01*
X14413039Y-13614079D02*
X14422563Y-13595031D01*
X14422563Y-13595031D02*
X14432086Y-13585508D01*
X14432086Y-13585508D02*
X14451134Y-13575984D01*
X14603515Y-13756936D02*
X14613039Y-13766460D01*
X14613039Y-13766460D02*
X14603515Y-13775984D01*
X14603515Y-13775984D02*
X14593991Y-13766460D01*
X14593991Y-13766460D02*
X14603515Y-13756936D01*
X14603515Y-13756936D02*
X14603515Y-13775984D01*
X14736848Y-13575984D02*
X14755896Y-13575984D01*
X14755896Y-13575984D02*
X14774944Y-13585508D01*
X14774944Y-13585508D02*
X14784467Y-13595031D01*
X14784467Y-13595031D02*
X14793991Y-13614079D01*
X14793991Y-13614079D02*
X14803515Y-13652174D01*
X14803515Y-13652174D02*
X14803515Y-13699793D01*
X14803515Y-13699793D02*
X14793991Y-13737888D01*
X14793991Y-13737888D02*
X14784467Y-13756936D01*
X14784467Y-13756936D02*
X14774944Y-13766460D01*
X14774944Y-13766460D02*
X14755896Y-13775984D01*
X14755896Y-13775984D02*
X14736848Y-13775984D01*
X14736848Y-13775984D02*
X14717801Y-13766460D01*
X14717801Y-13766460D02*
X14708277Y-13756936D01*
X14708277Y-13756936D02*
X14698753Y-13737888D01*
X14698753Y-13737888D02*
X14689229Y-13699793D01*
X14689229Y-13699793D02*
X14689229Y-13652174D01*
X14689229Y-13652174D02*
X14698753Y-13614079D01*
X14698753Y-13614079D02*
X14708277Y-13595031D01*
X14708277Y-13595031D02*
X14717801Y-13585508D01*
X14717801Y-13585508D02*
X14736848Y-13575984D01*
X14870182Y-13575984D02*
X14993991Y-13575984D01*
X14993991Y-13575984D02*
X14927325Y-13652174D01*
X14927325Y-13652174D02*
X14955896Y-13652174D01*
X14955896Y-13652174D02*
X14974944Y-13661698D01*
X14974944Y-13661698D02*
X14984467Y-13671222D01*
X14984467Y-13671222D02*
X14993991Y-13690269D01*
X14993991Y-13690269D02*
X14993991Y-13737888D01*
X14993991Y-13737888D02*
X14984467Y-13756936D01*
X14984467Y-13756936D02*
X14974944Y-13766460D01*
X14974944Y-13766460D02*
X14955896Y-13775984D01*
X14955896Y-13775984D02*
X14898753Y-13775984D01*
X14898753Y-13775984D02*
X14879706Y-13766460D01*
X14879706Y-13766460D02*
X14870182Y-13756936D01*
X15089229Y-13775984D02*
X15127325Y-13775984D01*
X15127325Y-13775984D02*
X15146372Y-13766460D01*
X15146372Y-13766460D02*
X15155896Y-13756936D01*
X15155896Y-13756936D02*
X15174944Y-13728365D01*
X15174944Y-13728365D02*
X15184467Y-13690269D01*
X15184467Y-13690269D02*
X15184467Y-13614079D01*
X15184467Y-13614079D02*
X15174944Y-13595031D01*
X15174944Y-13595031D02*
X15165420Y-13585508D01*
X15165420Y-13585508D02*
X15146372Y-13575984D01*
X15146372Y-13575984D02*
X15108277Y-13575984D01*
X15108277Y-13575984D02*
X15089229Y-13585508D01*
X15089229Y-13585508D02*
X15079706Y-13595031D01*
X15079706Y-13595031D02*
X15070182Y-13614079D01*
X15070182Y-13614079D02*
X15070182Y-13661698D01*
X15070182Y-13661698D02*
X15079706Y-13680746D01*
X15079706Y-13680746D02*
X15089229Y-13690269D01*
X15089229Y-13690269D02*
X15108277Y-13699793D01*
X15108277Y-13699793D02*
X15146372Y-13699793D01*
X15146372Y-13699793D02*
X15165420Y-13690269D01*
X15165420Y-13690269D02*
X15174944Y-13680746D01*
X15174944Y-13680746D02*
X15184467Y-13661698D01*
X15355896Y-13642650D02*
X15355896Y-13775984D01*
X15308277Y-13566460D02*
X15260658Y-13709317D01*
X15260658Y-13709317D02*
X15384467Y-13709317D01*
X15451134Y-13575984D02*
X15451134Y-13614079D01*
X15527325Y-13575984D02*
X15527325Y-13614079D01*
X15822563Y-13852174D02*
X15813039Y-13842650D01*
X15813039Y-13842650D02*
X15793991Y-13814079D01*
X15793991Y-13814079D02*
X15784468Y-13795031D01*
X15784468Y-13795031D02*
X15774944Y-13766460D01*
X15774944Y-13766460D02*
X15765420Y-13718841D01*
X15765420Y-13718841D02*
X15765420Y-13680746D01*
X15765420Y-13680746D02*
X15774944Y-13633127D01*
X15774944Y-13633127D02*
X15784468Y-13604555D01*
X15784468Y-13604555D02*
X15793991Y-13585508D01*
X15793991Y-13585508D02*
X15813039Y-13556936D01*
X15813039Y-13556936D02*
X15822563Y-13547412D01*
X16003515Y-13775984D02*
X15889229Y-13775984D01*
X15946372Y-13775984D02*
X15946372Y-13575984D01*
X15946372Y-13575984D02*
X15927325Y-13604555D01*
X15927325Y-13604555D02*
X15908277Y-13623603D01*
X15908277Y-13623603D02*
X15889229Y-13633127D01*
X16127325Y-13575984D02*
X16146372Y-13575984D01*
X16146372Y-13575984D02*
X16165420Y-13585508D01*
X16165420Y-13585508D02*
X16174944Y-13595031D01*
X16174944Y-13595031D02*
X16184468Y-13614079D01*
X16184468Y-13614079D02*
X16193991Y-13652174D01*
X16193991Y-13652174D02*
X16193991Y-13699793D01*
X16193991Y-13699793D02*
X16184468Y-13737888D01*
X16184468Y-13737888D02*
X16174944Y-13756936D01*
X16174944Y-13756936D02*
X16165420Y-13766460D01*
X16165420Y-13766460D02*
X16146372Y-13775984D01*
X16146372Y-13775984D02*
X16127325Y-13775984D01*
X16127325Y-13775984D02*
X16108277Y-13766460D01*
X16108277Y-13766460D02*
X16098753Y-13756936D01*
X16098753Y-13756936D02*
X16089229Y-13737888D01*
X16089229Y-13737888D02*
X16079706Y-13699793D01*
X16079706Y-13699793D02*
X16079706Y-13652174D01*
X16079706Y-13652174D02*
X16089229Y-13614079D01*
X16089229Y-13614079D02*
X16098753Y-13595031D01*
X16098753Y-13595031D02*
X16108277Y-13585508D01*
X16108277Y-13585508D02*
X16127325Y-13575984D01*
X16432087Y-13775984D02*
X16432087Y-13575984D01*
X16517801Y-13775984D02*
X16517801Y-13671222D01*
X16517801Y-13671222D02*
X16508277Y-13652174D01*
X16508277Y-13652174D02*
X16489230Y-13642650D01*
X16489230Y-13642650D02*
X16460658Y-13642650D01*
X16460658Y-13642650D02*
X16441610Y-13652174D01*
X16441610Y-13652174D02*
X16432087Y-13661698D01*
X16641610Y-13775984D02*
X16622563Y-13766460D01*
X16622563Y-13766460D02*
X16613039Y-13756936D01*
X16613039Y-13756936D02*
X16603515Y-13737888D01*
X16603515Y-13737888D02*
X16603515Y-13680746D01*
X16603515Y-13680746D02*
X16613039Y-13661698D01*
X16613039Y-13661698D02*
X16622563Y-13652174D01*
X16622563Y-13652174D02*
X16641610Y-13642650D01*
X16641610Y-13642650D02*
X16670182Y-13642650D01*
X16670182Y-13642650D02*
X16689230Y-13652174D01*
X16689230Y-13652174D02*
X16698753Y-13661698D01*
X16698753Y-13661698D02*
X16708277Y-13680746D01*
X16708277Y-13680746D02*
X16708277Y-13737888D01*
X16708277Y-13737888D02*
X16698753Y-13756936D01*
X16698753Y-13756936D02*
X16689230Y-13766460D01*
X16689230Y-13766460D02*
X16670182Y-13775984D01*
X16670182Y-13775984D02*
X16641610Y-13775984D01*
X16822563Y-13775984D02*
X16803515Y-13766460D01*
X16803515Y-13766460D02*
X16793992Y-13747412D01*
X16793992Y-13747412D02*
X16793992Y-13575984D01*
X16974944Y-13766460D02*
X16955896Y-13775984D01*
X16955896Y-13775984D02*
X16917801Y-13775984D01*
X16917801Y-13775984D02*
X16898753Y-13766460D01*
X16898753Y-13766460D02*
X16889230Y-13747412D01*
X16889230Y-13747412D02*
X16889230Y-13671222D01*
X16889230Y-13671222D02*
X16898753Y-13652174D01*
X16898753Y-13652174D02*
X16917801Y-13642650D01*
X16917801Y-13642650D02*
X16955896Y-13642650D01*
X16955896Y-13642650D02*
X16974944Y-13652174D01*
X16974944Y-13652174D02*
X16984468Y-13671222D01*
X16984468Y-13671222D02*
X16984468Y-13690269D01*
X16984468Y-13690269D02*
X16889230Y-13709317D01*
X17060658Y-13766460D02*
X17079706Y-13775984D01*
X17079706Y-13775984D02*
X17117801Y-13775984D01*
X17117801Y-13775984D02*
X17136849Y-13766460D01*
X17136849Y-13766460D02*
X17146373Y-13747412D01*
X17146373Y-13747412D02*
X17146373Y-13737888D01*
X17146373Y-13737888D02*
X17136849Y-13718841D01*
X17136849Y-13718841D02*
X17117801Y-13709317D01*
X17117801Y-13709317D02*
X17089230Y-13709317D01*
X17089230Y-13709317D02*
X17070182Y-13699793D01*
X17070182Y-13699793D02*
X17060658Y-13680746D01*
X17060658Y-13680746D02*
X17060658Y-13671222D01*
X17060658Y-13671222D02*
X17070182Y-13652174D01*
X17070182Y-13652174D02*
X17089230Y-13642650D01*
X17089230Y-13642650D02*
X17117801Y-13642650D01*
X17117801Y-13642650D02*
X17136849Y-13652174D01*
X17213039Y-13852174D02*
X17222563Y-13842650D01*
X17222563Y-13842650D02*
X17241611Y-13814079D01*
X17241611Y-13814079D02*
X17251134Y-13795031D01*
X17251134Y-13795031D02*
X17260658Y-13766460D01*
X17260658Y-13766460D02*
X17270182Y-13718841D01*
X17270182Y-13718841D02*
X17270182Y-13680746D01*
X17270182Y-13680746D02*
X17260658Y-13633127D01*
X17260658Y-13633127D02*
X17251134Y-13604555D01*
X17251134Y-13604555D02*
X17241611Y-13585508D01*
X17241611Y-13585508D02*
X17222563Y-13556936D01*
X17222563Y-13556936D02*
X17213039Y-13547412D01*
D13*
X12196700Y-13999300D02*
X12247500Y-13948500D01*
X12196700Y-13897700D01*
X12145900Y-13948500D01*
X12196700Y-13999300D01*
D11*
X12613039Y-14039984D02*
X12498753Y-14039984D01*
X12555896Y-14039984D02*
X12555896Y-13839984D01*
X12555896Y-13839984D02*
X12536848Y-13868555D01*
X12536848Y-13868555D02*
X12517801Y-13887603D01*
X12517801Y-13887603D02*
X12498753Y-13897127D01*
X12698753Y-14020936D02*
X12708277Y-14030460D01*
X12708277Y-14030460D02*
X12698753Y-14039984D01*
X12698753Y-14039984D02*
X12689229Y-14030460D01*
X12689229Y-14030460D02*
X12698753Y-14020936D01*
X12698753Y-14020936D02*
X12698753Y-14039984D01*
X12832086Y-13839984D02*
X12851134Y-13839984D01*
X12851134Y-13839984D02*
X12870182Y-13849508D01*
X12870182Y-13849508D02*
X12879705Y-13859031D01*
X12879705Y-13859031D02*
X12889229Y-13878079D01*
X12889229Y-13878079D02*
X12898753Y-13916174D01*
X12898753Y-13916174D02*
X12898753Y-13963793D01*
X12898753Y-13963793D02*
X12889229Y-14001888D01*
X12889229Y-14001888D02*
X12879705Y-14020936D01*
X12879705Y-14020936D02*
X12870182Y-14030460D01*
X12870182Y-14030460D02*
X12851134Y-14039984D01*
X12851134Y-14039984D02*
X12832086Y-14039984D01*
X12832086Y-14039984D02*
X12813039Y-14030460D01*
X12813039Y-14030460D02*
X12803515Y-14020936D01*
X12803515Y-14020936D02*
X12793991Y-14001888D01*
X12793991Y-14001888D02*
X12784467Y-13963793D01*
X12784467Y-13963793D02*
X12784467Y-13916174D01*
X12784467Y-13916174D02*
X12793991Y-13878079D01*
X12793991Y-13878079D02*
X12803515Y-13859031D01*
X12803515Y-13859031D02*
X12813039Y-13849508D01*
X12813039Y-13849508D02*
X12832086Y-13839984D01*
X13089229Y-14039984D02*
X12974943Y-14039984D01*
X13032086Y-14039984D02*
X13032086Y-13839984D01*
X13032086Y-13839984D02*
X13013039Y-13868555D01*
X13013039Y-13868555D02*
X12993991Y-13887603D01*
X12993991Y-13887603D02*
X12974943Y-13897127D01*
X13260658Y-13839984D02*
X13222562Y-13839984D01*
X13222562Y-13839984D02*
X13203515Y-13849508D01*
X13203515Y-13849508D02*
X13193991Y-13859031D01*
X13193991Y-13859031D02*
X13174943Y-13887603D01*
X13174943Y-13887603D02*
X13165420Y-13925698D01*
X13165420Y-13925698D02*
X13165420Y-14001888D01*
X13165420Y-14001888D02*
X13174943Y-14020936D01*
X13174943Y-14020936D02*
X13184467Y-14030460D01*
X13184467Y-14030460D02*
X13203515Y-14039984D01*
X13203515Y-14039984D02*
X13241610Y-14039984D01*
X13241610Y-14039984D02*
X13260658Y-14030460D01*
X13260658Y-14030460D02*
X13270182Y-14020936D01*
X13270182Y-14020936D02*
X13279705Y-14001888D01*
X13279705Y-14001888D02*
X13279705Y-13954269D01*
X13279705Y-13954269D02*
X13270182Y-13935222D01*
X13270182Y-13935222D02*
X13260658Y-13925698D01*
X13260658Y-13925698D02*
X13241610Y-13916174D01*
X13241610Y-13916174D02*
X13203515Y-13916174D01*
X13203515Y-13916174D02*
X13184467Y-13925698D01*
X13184467Y-13925698D02*
X13174943Y-13935222D01*
X13174943Y-13935222D02*
X13165420Y-13954269D01*
X13365420Y-14039984D02*
X13365420Y-13906650D01*
X13365420Y-13925698D02*
X13374943Y-13916174D01*
X13374943Y-13916174D02*
X13393991Y-13906650D01*
X13393991Y-13906650D02*
X13422563Y-13906650D01*
X13422563Y-13906650D02*
X13441610Y-13916174D01*
X13441610Y-13916174D02*
X13451134Y-13935222D01*
X13451134Y-13935222D02*
X13451134Y-14039984D01*
X13451134Y-13935222D02*
X13460658Y-13916174D01*
X13460658Y-13916174D02*
X13479705Y-13906650D01*
X13479705Y-13906650D02*
X13508277Y-13906650D01*
X13508277Y-13906650D02*
X13527324Y-13916174D01*
X13527324Y-13916174D02*
X13536848Y-13935222D01*
X13536848Y-13935222D02*
X13536848Y-14039984D01*
X13632086Y-14039984D02*
X13632086Y-13906650D01*
X13632086Y-13925698D02*
X13641610Y-13916174D01*
X13641610Y-13916174D02*
X13660658Y-13906650D01*
X13660658Y-13906650D02*
X13689229Y-13906650D01*
X13689229Y-13906650D02*
X13708277Y-13916174D01*
X13708277Y-13916174D02*
X13717801Y-13935222D01*
X13717801Y-13935222D02*
X13717801Y-14039984D01*
X13717801Y-13935222D02*
X13727324Y-13916174D01*
X13727324Y-13916174D02*
X13746372Y-13906650D01*
X13746372Y-13906650D02*
X13774943Y-13906650D01*
X13774943Y-13906650D02*
X13793991Y-13916174D01*
X13793991Y-13916174D02*
X13803515Y-13935222D01*
X13803515Y-13935222D02*
X13803515Y-14039984D01*
X14193991Y-13830460D02*
X14022563Y-14087603D01*
X14451134Y-13839984D02*
X14470182Y-13839984D01*
X14470182Y-13839984D02*
X14489229Y-13849508D01*
X14489229Y-13849508D02*
X14498753Y-13859031D01*
X14498753Y-13859031D02*
X14508277Y-13878079D01*
X14508277Y-13878079D02*
X14517801Y-13916174D01*
X14517801Y-13916174D02*
X14517801Y-13963793D01*
X14517801Y-13963793D02*
X14508277Y-14001888D01*
X14508277Y-14001888D02*
X14498753Y-14020936D01*
X14498753Y-14020936D02*
X14489229Y-14030460D01*
X14489229Y-14030460D02*
X14470182Y-14039984D01*
X14470182Y-14039984D02*
X14451134Y-14039984D01*
X14451134Y-14039984D02*
X14432086Y-14030460D01*
X14432086Y-14030460D02*
X14422563Y-14020936D01*
X14422563Y-14020936D02*
X14413039Y-14001888D01*
X14413039Y-14001888D02*
X14403515Y-13963793D01*
X14403515Y-13963793D02*
X14403515Y-13916174D01*
X14403515Y-13916174D02*
X14413039Y-13878079D01*
X14413039Y-13878079D02*
X14422563Y-13859031D01*
X14422563Y-13859031D02*
X14432086Y-13849508D01*
X14432086Y-13849508D02*
X14451134Y-13839984D01*
X14603515Y-14020936D02*
X14613039Y-14030460D01*
X14613039Y-14030460D02*
X14603515Y-14039984D01*
X14603515Y-14039984D02*
X14593991Y-14030460D01*
X14593991Y-14030460D02*
X14603515Y-14020936D01*
X14603515Y-14020936D02*
X14603515Y-14039984D01*
X14736848Y-13839984D02*
X14755896Y-13839984D01*
X14755896Y-13839984D02*
X14774944Y-13849508D01*
X14774944Y-13849508D02*
X14784467Y-13859031D01*
X14784467Y-13859031D02*
X14793991Y-13878079D01*
X14793991Y-13878079D02*
X14803515Y-13916174D01*
X14803515Y-13916174D02*
X14803515Y-13963793D01*
X14803515Y-13963793D02*
X14793991Y-14001888D01*
X14793991Y-14001888D02*
X14784467Y-14020936D01*
X14784467Y-14020936D02*
X14774944Y-14030460D01*
X14774944Y-14030460D02*
X14755896Y-14039984D01*
X14755896Y-14039984D02*
X14736848Y-14039984D01*
X14736848Y-14039984D02*
X14717801Y-14030460D01*
X14717801Y-14030460D02*
X14708277Y-14020936D01*
X14708277Y-14020936D02*
X14698753Y-14001888D01*
X14698753Y-14001888D02*
X14689229Y-13963793D01*
X14689229Y-13963793D02*
X14689229Y-13916174D01*
X14689229Y-13916174D02*
X14698753Y-13878079D01*
X14698753Y-13878079D02*
X14708277Y-13859031D01*
X14708277Y-13859031D02*
X14717801Y-13849508D01*
X14717801Y-13849508D02*
X14736848Y-13839984D01*
X14974944Y-13906650D02*
X14974944Y-14039984D01*
X14927325Y-13830460D02*
X14879706Y-13973317D01*
X14879706Y-13973317D02*
X15003515Y-13973317D01*
X15117801Y-13839984D02*
X15136848Y-13839984D01*
X15136848Y-13839984D02*
X15155896Y-13849508D01*
X15155896Y-13849508D02*
X15165420Y-13859031D01*
X15165420Y-13859031D02*
X15174944Y-13878079D01*
X15174944Y-13878079D02*
X15184467Y-13916174D01*
X15184467Y-13916174D02*
X15184467Y-13963793D01*
X15184467Y-13963793D02*
X15174944Y-14001888D01*
X15174944Y-14001888D02*
X15165420Y-14020936D01*
X15165420Y-14020936D02*
X15155896Y-14030460D01*
X15155896Y-14030460D02*
X15136848Y-14039984D01*
X15136848Y-14039984D02*
X15117801Y-14039984D01*
X15117801Y-14039984D02*
X15098753Y-14030460D01*
X15098753Y-14030460D02*
X15089229Y-14020936D01*
X15089229Y-14020936D02*
X15079706Y-14001888D01*
X15079706Y-14001888D02*
X15070182Y-13963793D01*
X15070182Y-13963793D02*
X15070182Y-13916174D01*
X15070182Y-13916174D02*
X15079706Y-13878079D01*
X15079706Y-13878079D02*
X15089229Y-13859031D01*
X15089229Y-13859031D02*
X15098753Y-13849508D01*
X15098753Y-13849508D02*
X15117801Y-13839984D01*
X15308277Y-13839984D02*
X15327325Y-13839984D01*
X15327325Y-13839984D02*
X15346372Y-13849508D01*
X15346372Y-13849508D02*
X15355896Y-13859031D01*
X15355896Y-13859031D02*
X15365420Y-13878079D01*
X15365420Y-13878079D02*
X15374944Y-13916174D01*
X15374944Y-13916174D02*
X15374944Y-13963793D01*
X15374944Y-13963793D02*
X15365420Y-14001888D01*
X15365420Y-14001888D02*
X15355896Y-14020936D01*
X15355896Y-14020936D02*
X15346372Y-14030460D01*
X15346372Y-14030460D02*
X15327325Y-14039984D01*
X15327325Y-14039984D02*
X15308277Y-14039984D01*
X15308277Y-14039984D02*
X15289229Y-14030460D01*
X15289229Y-14030460D02*
X15279706Y-14020936D01*
X15279706Y-14020936D02*
X15270182Y-14001888D01*
X15270182Y-14001888D02*
X15260658Y-13963793D01*
X15260658Y-13963793D02*
X15260658Y-13916174D01*
X15260658Y-13916174D02*
X15270182Y-13878079D01*
X15270182Y-13878079D02*
X15279706Y-13859031D01*
X15279706Y-13859031D02*
X15289229Y-13849508D01*
X15289229Y-13849508D02*
X15308277Y-13839984D01*
X15451134Y-13839984D02*
X15451134Y-13878079D01*
X15527325Y-13839984D02*
X15527325Y-13878079D01*
X15822563Y-14116174D02*
X15813039Y-14106650D01*
X15813039Y-14106650D02*
X15793991Y-14078079D01*
X15793991Y-14078079D02*
X15784468Y-14059031D01*
X15784468Y-14059031D02*
X15774944Y-14030460D01*
X15774944Y-14030460D02*
X15765420Y-13982841D01*
X15765420Y-13982841D02*
X15765420Y-13944746D01*
X15765420Y-13944746D02*
X15774944Y-13897127D01*
X15774944Y-13897127D02*
X15784468Y-13868555D01*
X15784468Y-13868555D02*
X15793991Y-13849508D01*
X15793991Y-13849508D02*
X15813039Y-13820936D01*
X15813039Y-13820936D02*
X15822563Y-13811412D01*
X15993991Y-13839984D02*
X15898753Y-13839984D01*
X15898753Y-13839984D02*
X15889229Y-13935222D01*
X15889229Y-13935222D02*
X15898753Y-13925698D01*
X15898753Y-13925698D02*
X15917801Y-13916174D01*
X15917801Y-13916174D02*
X15965420Y-13916174D01*
X15965420Y-13916174D02*
X15984468Y-13925698D01*
X15984468Y-13925698D02*
X15993991Y-13935222D01*
X15993991Y-13935222D02*
X16003515Y-13954269D01*
X16003515Y-13954269D02*
X16003515Y-14001888D01*
X16003515Y-14001888D02*
X15993991Y-14020936D01*
X15993991Y-14020936D02*
X15984468Y-14030460D01*
X15984468Y-14030460D02*
X15965420Y-14039984D01*
X15965420Y-14039984D02*
X15917801Y-14039984D01*
X15917801Y-14039984D02*
X15898753Y-14030460D01*
X15898753Y-14030460D02*
X15889229Y-14020936D01*
X16241610Y-14039984D02*
X16241610Y-13839984D01*
X16327325Y-14039984D02*
X16327325Y-13935222D01*
X16327325Y-13935222D02*
X16317801Y-13916174D01*
X16317801Y-13916174D02*
X16298753Y-13906650D01*
X16298753Y-13906650D02*
X16270182Y-13906650D01*
X16270182Y-13906650D02*
X16251134Y-13916174D01*
X16251134Y-13916174D02*
X16241610Y-13925698D01*
X16451134Y-14039984D02*
X16432087Y-14030460D01*
X16432087Y-14030460D02*
X16422563Y-14020936D01*
X16422563Y-14020936D02*
X16413039Y-14001888D01*
X16413039Y-14001888D02*
X16413039Y-13944746D01*
X16413039Y-13944746D02*
X16422563Y-13925698D01*
X16422563Y-13925698D02*
X16432087Y-13916174D01*
X16432087Y-13916174D02*
X16451134Y-13906650D01*
X16451134Y-13906650D02*
X16479706Y-13906650D01*
X16479706Y-13906650D02*
X16498753Y-13916174D01*
X16498753Y-13916174D02*
X16508277Y-13925698D01*
X16508277Y-13925698D02*
X16517801Y-13944746D01*
X16517801Y-13944746D02*
X16517801Y-14001888D01*
X16517801Y-14001888D02*
X16508277Y-14020936D01*
X16508277Y-14020936D02*
X16498753Y-14030460D01*
X16498753Y-14030460D02*
X16479706Y-14039984D01*
X16479706Y-14039984D02*
X16451134Y-14039984D01*
X16632087Y-14039984D02*
X16613039Y-14030460D01*
X16613039Y-14030460D02*
X16603515Y-14011412D01*
X16603515Y-14011412D02*
X16603515Y-13839984D01*
X16784468Y-14030460D02*
X16765420Y-14039984D01*
X16765420Y-14039984D02*
X16727325Y-14039984D01*
X16727325Y-14039984D02*
X16708277Y-14030460D01*
X16708277Y-14030460D02*
X16698753Y-14011412D01*
X16698753Y-14011412D02*
X16698753Y-13935222D01*
X16698753Y-13935222D02*
X16708277Y-13916174D01*
X16708277Y-13916174D02*
X16727325Y-13906650D01*
X16727325Y-13906650D02*
X16765420Y-13906650D01*
X16765420Y-13906650D02*
X16784468Y-13916174D01*
X16784468Y-13916174D02*
X16793992Y-13935222D01*
X16793992Y-13935222D02*
X16793992Y-13954269D01*
X16793992Y-13954269D02*
X16698753Y-13973317D01*
X16870182Y-14030460D02*
X16889230Y-14039984D01*
X16889230Y-14039984D02*
X16927325Y-14039984D01*
X16927325Y-14039984D02*
X16946373Y-14030460D01*
X16946373Y-14030460D02*
X16955896Y-14011412D01*
X16955896Y-14011412D02*
X16955896Y-14001888D01*
X16955896Y-14001888D02*
X16946373Y-13982841D01*
X16946373Y-13982841D02*
X16927325Y-13973317D01*
X16927325Y-13973317D02*
X16898753Y-13973317D01*
X16898753Y-13973317D02*
X16879706Y-13963793D01*
X16879706Y-13963793D02*
X16870182Y-13944746D01*
X16870182Y-13944746D02*
X16870182Y-13935222D01*
X16870182Y-13935222D02*
X16879706Y-13916174D01*
X16879706Y-13916174D02*
X16898753Y-13906650D01*
X16898753Y-13906650D02*
X16927325Y-13906650D01*
X16927325Y-13906650D02*
X16946373Y-13916174D01*
X17022563Y-14116174D02*
X17032087Y-14106650D01*
X17032087Y-14106650D02*
X17051134Y-14078079D01*
X17051134Y-14078079D02*
X17060658Y-14059031D01*
X17060658Y-14059031D02*
X17070182Y-14030460D01*
X17070182Y-14030460D02*
X17079706Y-13982841D01*
X17079706Y-13982841D02*
X17079706Y-13944746D01*
X17079706Y-13944746D02*
X17070182Y-13897127D01*
X17070182Y-13897127D02*
X17060658Y-13868555D01*
X17060658Y-13868555D02*
X17051134Y-13849508D01*
X17051134Y-13849508D02*
X17032087Y-13820936D01*
X17032087Y-13820936D02*
X17022563Y-13811412D01*
D14*
X12093500Y-14135500D02*
X12247500Y-14289500D01*
X12247500Y-14135500D02*
X12093500Y-14289500D01*
X12247500Y-14212500D02*
G75*
G02*
X12093500Y-14212500I-77000J0D01*
G01*
X12093500Y-14212500D02*
G75*
G02*
X12247500Y-14212500I77000J0D01*
G01*
D11*
X12613039Y-14303984D02*
X12498753Y-14303984D01*
X12555896Y-14303984D02*
X12555896Y-14103984D01*
X12555896Y-14103984D02*
X12536848Y-14132555D01*
X12536848Y-14132555D02*
X12517801Y-14151603D01*
X12517801Y-14151603D02*
X12498753Y-14161127D01*
X12698753Y-14284936D02*
X12708277Y-14294460D01*
X12708277Y-14294460D02*
X12698753Y-14303984D01*
X12698753Y-14303984D02*
X12689229Y-14294460D01*
X12689229Y-14294460D02*
X12698753Y-14284936D01*
X12698753Y-14284936D02*
X12698753Y-14303984D01*
X12889229Y-14103984D02*
X12793991Y-14103984D01*
X12793991Y-14103984D02*
X12784467Y-14199222D01*
X12784467Y-14199222D02*
X12793991Y-14189698D01*
X12793991Y-14189698D02*
X12813039Y-14180174D01*
X12813039Y-14180174D02*
X12860658Y-14180174D01*
X12860658Y-14180174D02*
X12879705Y-14189698D01*
X12879705Y-14189698D02*
X12889229Y-14199222D01*
X12889229Y-14199222D02*
X12898753Y-14218269D01*
X12898753Y-14218269D02*
X12898753Y-14265888D01*
X12898753Y-14265888D02*
X12889229Y-14284936D01*
X12889229Y-14284936D02*
X12879705Y-14294460D01*
X12879705Y-14294460D02*
X12860658Y-14303984D01*
X12860658Y-14303984D02*
X12813039Y-14303984D01*
X12813039Y-14303984D02*
X12793991Y-14294460D01*
X12793991Y-14294460D02*
X12784467Y-14284936D01*
X13070182Y-14170650D02*
X13070182Y-14303984D01*
X13022562Y-14094460D02*
X12974943Y-14237317D01*
X12974943Y-14237317D02*
X13098753Y-14237317D01*
X13213039Y-14103984D02*
X13232086Y-14103984D01*
X13232086Y-14103984D02*
X13251134Y-14113508D01*
X13251134Y-14113508D02*
X13260658Y-14123031D01*
X13260658Y-14123031D02*
X13270182Y-14142079D01*
X13270182Y-14142079D02*
X13279705Y-14180174D01*
X13279705Y-14180174D02*
X13279705Y-14227793D01*
X13279705Y-14227793D02*
X13270182Y-14265888D01*
X13270182Y-14265888D02*
X13260658Y-14284936D01*
X13260658Y-14284936D02*
X13251134Y-14294460D01*
X13251134Y-14294460D02*
X13232086Y-14303984D01*
X13232086Y-14303984D02*
X13213039Y-14303984D01*
X13213039Y-14303984D02*
X13193991Y-14294460D01*
X13193991Y-14294460D02*
X13184467Y-14284936D01*
X13184467Y-14284936D02*
X13174943Y-14265888D01*
X13174943Y-14265888D02*
X13165420Y-14227793D01*
X13165420Y-14227793D02*
X13165420Y-14180174D01*
X13165420Y-14180174D02*
X13174943Y-14142079D01*
X13174943Y-14142079D02*
X13184467Y-14123031D01*
X13184467Y-14123031D02*
X13193991Y-14113508D01*
X13193991Y-14113508D02*
X13213039Y-14103984D01*
X13365420Y-14303984D02*
X13365420Y-14170650D01*
X13365420Y-14189698D02*
X13374943Y-14180174D01*
X13374943Y-14180174D02*
X13393991Y-14170650D01*
X13393991Y-14170650D02*
X13422563Y-14170650D01*
X13422563Y-14170650D02*
X13441610Y-14180174D01*
X13441610Y-14180174D02*
X13451134Y-14199222D01*
X13451134Y-14199222D02*
X13451134Y-14303984D01*
X13451134Y-14199222D02*
X13460658Y-14180174D01*
X13460658Y-14180174D02*
X13479705Y-14170650D01*
X13479705Y-14170650D02*
X13508277Y-14170650D01*
X13508277Y-14170650D02*
X13527324Y-14180174D01*
X13527324Y-14180174D02*
X13536848Y-14199222D01*
X13536848Y-14199222D02*
X13536848Y-14303984D01*
X13632086Y-14303984D02*
X13632086Y-14170650D01*
X13632086Y-14189698D02*
X13641610Y-14180174D01*
X13641610Y-14180174D02*
X13660658Y-14170650D01*
X13660658Y-14170650D02*
X13689229Y-14170650D01*
X13689229Y-14170650D02*
X13708277Y-14180174D01*
X13708277Y-14180174D02*
X13717801Y-14199222D01*
X13717801Y-14199222D02*
X13717801Y-14303984D01*
X13717801Y-14199222D02*
X13727324Y-14180174D01*
X13727324Y-14180174D02*
X13746372Y-14170650D01*
X13746372Y-14170650D02*
X13774943Y-14170650D01*
X13774943Y-14170650D02*
X13793991Y-14180174D01*
X13793991Y-14180174D02*
X13803515Y-14199222D01*
X13803515Y-14199222D02*
X13803515Y-14303984D01*
X14193991Y-14094460D02*
X14022563Y-14351603D01*
X14451134Y-14103984D02*
X14470182Y-14103984D01*
X14470182Y-14103984D02*
X14489229Y-14113508D01*
X14489229Y-14113508D02*
X14498753Y-14123031D01*
X14498753Y-14123031D02*
X14508277Y-14142079D01*
X14508277Y-14142079D02*
X14517801Y-14180174D01*
X14517801Y-14180174D02*
X14517801Y-14227793D01*
X14517801Y-14227793D02*
X14508277Y-14265888D01*
X14508277Y-14265888D02*
X14498753Y-14284936D01*
X14498753Y-14284936D02*
X14489229Y-14294460D01*
X14489229Y-14294460D02*
X14470182Y-14303984D01*
X14470182Y-14303984D02*
X14451134Y-14303984D01*
X14451134Y-14303984D02*
X14432086Y-14294460D01*
X14432086Y-14294460D02*
X14422563Y-14284936D01*
X14422563Y-14284936D02*
X14413039Y-14265888D01*
X14413039Y-14265888D02*
X14403515Y-14227793D01*
X14403515Y-14227793D02*
X14403515Y-14180174D01*
X14403515Y-14180174D02*
X14413039Y-14142079D01*
X14413039Y-14142079D02*
X14422563Y-14123031D01*
X14422563Y-14123031D02*
X14432086Y-14113508D01*
X14432086Y-14113508D02*
X14451134Y-14103984D01*
X14603515Y-14284936D02*
X14613039Y-14294460D01*
X14613039Y-14294460D02*
X14603515Y-14303984D01*
X14603515Y-14303984D02*
X14593991Y-14294460D01*
X14593991Y-14294460D02*
X14603515Y-14284936D01*
X14603515Y-14284936D02*
X14603515Y-14303984D01*
X14736848Y-14103984D02*
X14755896Y-14103984D01*
X14755896Y-14103984D02*
X14774944Y-14113508D01*
X14774944Y-14113508D02*
X14784467Y-14123031D01*
X14784467Y-14123031D02*
X14793991Y-14142079D01*
X14793991Y-14142079D02*
X14803515Y-14180174D01*
X14803515Y-14180174D02*
X14803515Y-14227793D01*
X14803515Y-14227793D02*
X14793991Y-14265888D01*
X14793991Y-14265888D02*
X14784467Y-14284936D01*
X14784467Y-14284936D02*
X14774944Y-14294460D01*
X14774944Y-14294460D02*
X14755896Y-14303984D01*
X14755896Y-14303984D02*
X14736848Y-14303984D01*
X14736848Y-14303984D02*
X14717801Y-14294460D01*
X14717801Y-14294460D02*
X14708277Y-14284936D01*
X14708277Y-14284936D02*
X14698753Y-14265888D01*
X14698753Y-14265888D02*
X14689229Y-14227793D01*
X14689229Y-14227793D02*
X14689229Y-14180174D01*
X14689229Y-14180174D02*
X14698753Y-14142079D01*
X14698753Y-14142079D02*
X14708277Y-14123031D01*
X14708277Y-14123031D02*
X14717801Y-14113508D01*
X14717801Y-14113508D02*
X14736848Y-14103984D01*
X14974944Y-14103984D02*
X14936848Y-14103984D01*
X14936848Y-14103984D02*
X14917801Y-14113508D01*
X14917801Y-14113508D02*
X14908277Y-14123031D01*
X14908277Y-14123031D02*
X14889229Y-14151603D01*
X14889229Y-14151603D02*
X14879706Y-14189698D01*
X14879706Y-14189698D02*
X14879706Y-14265888D01*
X14879706Y-14265888D02*
X14889229Y-14284936D01*
X14889229Y-14284936D02*
X14898753Y-14294460D01*
X14898753Y-14294460D02*
X14917801Y-14303984D01*
X14917801Y-14303984D02*
X14955896Y-14303984D01*
X14955896Y-14303984D02*
X14974944Y-14294460D01*
X14974944Y-14294460D02*
X14984467Y-14284936D01*
X14984467Y-14284936D02*
X14993991Y-14265888D01*
X14993991Y-14265888D02*
X14993991Y-14218269D01*
X14993991Y-14218269D02*
X14984467Y-14199222D01*
X14984467Y-14199222D02*
X14974944Y-14189698D01*
X14974944Y-14189698D02*
X14955896Y-14180174D01*
X14955896Y-14180174D02*
X14917801Y-14180174D01*
X14917801Y-14180174D02*
X14898753Y-14189698D01*
X14898753Y-14189698D02*
X14889229Y-14199222D01*
X14889229Y-14199222D02*
X14879706Y-14218269D01*
X15117801Y-14103984D02*
X15136848Y-14103984D01*
X15136848Y-14103984D02*
X15155896Y-14113508D01*
X15155896Y-14113508D02*
X15165420Y-14123031D01*
X15165420Y-14123031D02*
X15174944Y-14142079D01*
X15174944Y-14142079D02*
X15184467Y-14180174D01*
X15184467Y-14180174D02*
X15184467Y-14227793D01*
X15184467Y-14227793D02*
X15174944Y-14265888D01*
X15174944Y-14265888D02*
X15165420Y-14284936D01*
X15165420Y-14284936D02*
X15155896Y-14294460D01*
X15155896Y-14294460D02*
X15136848Y-14303984D01*
X15136848Y-14303984D02*
X15117801Y-14303984D01*
X15117801Y-14303984D02*
X15098753Y-14294460D01*
X15098753Y-14294460D02*
X15089229Y-14284936D01*
X15089229Y-14284936D02*
X15079706Y-14265888D01*
X15079706Y-14265888D02*
X15070182Y-14227793D01*
X15070182Y-14227793D02*
X15070182Y-14180174D01*
X15070182Y-14180174D02*
X15079706Y-14142079D01*
X15079706Y-14142079D02*
X15089229Y-14123031D01*
X15089229Y-14123031D02*
X15098753Y-14113508D01*
X15098753Y-14113508D02*
X15117801Y-14103984D01*
X15355896Y-14103984D02*
X15317801Y-14103984D01*
X15317801Y-14103984D02*
X15298753Y-14113508D01*
X15298753Y-14113508D02*
X15289229Y-14123031D01*
X15289229Y-14123031D02*
X15270182Y-14151603D01*
X15270182Y-14151603D02*
X15260658Y-14189698D01*
X15260658Y-14189698D02*
X15260658Y-14265888D01*
X15260658Y-14265888D02*
X15270182Y-14284936D01*
X15270182Y-14284936D02*
X15279706Y-14294460D01*
X15279706Y-14294460D02*
X15298753Y-14303984D01*
X15298753Y-14303984D02*
X15336848Y-14303984D01*
X15336848Y-14303984D02*
X15355896Y-14294460D01*
X15355896Y-14294460D02*
X15365420Y-14284936D01*
X15365420Y-14284936D02*
X15374944Y-14265888D01*
X15374944Y-14265888D02*
X15374944Y-14218269D01*
X15374944Y-14218269D02*
X15365420Y-14199222D01*
X15365420Y-14199222D02*
X15355896Y-14189698D01*
X15355896Y-14189698D02*
X15336848Y-14180174D01*
X15336848Y-14180174D02*
X15298753Y-14180174D01*
X15298753Y-14180174D02*
X15279706Y-14189698D01*
X15279706Y-14189698D02*
X15270182Y-14199222D01*
X15270182Y-14199222D02*
X15260658Y-14218269D01*
X15451134Y-14103984D02*
X15451134Y-14142079D01*
X15527325Y-14103984D02*
X15527325Y-14142079D01*
X15822563Y-14380174D02*
X15813039Y-14370650D01*
X15813039Y-14370650D02*
X15793991Y-14342079D01*
X15793991Y-14342079D02*
X15784468Y-14323031D01*
X15784468Y-14323031D02*
X15774944Y-14294460D01*
X15774944Y-14294460D02*
X15765420Y-14246841D01*
X15765420Y-14246841D02*
X15765420Y-14208746D01*
X15765420Y-14208746D02*
X15774944Y-14161127D01*
X15774944Y-14161127D02*
X15784468Y-14132555D01*
X15784468Y-14132555D02*
X15793991Y-14113508D01*
X15793991Y-14113508D02*
X15813039Y-14084936D01*
X15813039Y-14084936D02*
X15822563Y-14075412D01*
X15984468Y-14103984D02*
X15946372Y-14103984D01*
X15946372Y-14103984D02*
X15927325Y-14113508D01*
X15927325Y-14113508D02*
X15917801Y-14123031D01*
X15917801Y-14123031D02*
X15898753Y-14151603D01*
X15898753Y-14151603D02*
X15889229Y-14189698D01*
X15889229Y-14189698D02*
X15889229Y-14265888D01*
X15889229Y-14265888D02*
X15898753Y-14284936D01*
X15898753Y-14284936D02*
X15908277Y-14294460D01*
X15908277Y-14294460D02*
X15927325Y-14303984D01*
X15927325Y-14303984D02*
X15965420Y-14303984D01*
X15965420Y-14303984D02*
X15984468Y-14294460D01*
X15984468Y-14294460D02*
X15993991Y-14284936D01*
X15993991Y-14284936D02*
X16003515Y-14265888D01*
X16003515Y-14265888D02*
X16003515Y-14218269D01*
X16003515Y-14218269D02*
X15993991Y-14199222D01*
X15993991Y-14199222D02*
X15984468Y-14189698D01*
X15984468Y-14189698D02*
X15965420Y-14180174D01*
X15965420Y-14180174D02*
X15927325Y-14180174D01*
X15927325Y-14180174D02*
X15908277Y-14189698D01*
X15908277Y-14189698D02*
X15898753Y-14199222D01*
X15898753Y-14199222D02*
X15889229Y-14218269D01*
X16241610Y-14303984D02*
X16241610Y-14103984D01*
X16327325Y-14303984D02*
X16327325Y-14199222D01*
X16327325Y-14199222D02*
X16317801Y-14180174D01*
X16317801Y-14180174D02*
X16298753Y-14170650D01*
X16298753Y-14170650D02*
X16270182Y-14170650D01*
X16270182Y-14170650D02*
X16251134Y-14180174D01*
X16251134Y-14180174D02*
X16241610Y-14189698D01*
X16451134Y-14303984D02*
X16432087Y-14294460D01*
X16432087Y-14294460D02*
X16422563Y-14284936D01*
X16422563Y-14284936D02*
X16413039Y-14265888D01*
X16413039Y-14265888D02*
X16413039Y-14208746D01*
X16413039Y-14208746D02*
X16422563Y-14189698D01*
X16422563Y-14189698D02*
X16432087Y-14180174D01*
X16432087Y-14180174D02*
X16451134Y-14170650D01*
X16451134Y-14170650D02*
X16479706Y-14170650D01*
X16479706Y-14170650D02*
X16498753Y-14180174D01*
X16498753Y-14180174D02*
X16508277Y-14189698D01*
X16508277Y-14189698D02*
X16517801Y-14208746D01*
X16517801Y-14208746D02*
X16517801Y-14265888D01*
X16517801Y-14265888D02*
X16508277Y-14284936D01*
X16508277Y-14284936D02*
X16498753Y-14294460D01*
X16498753Y-14294460D02*
X16479706Y-14303984D01*
X16479706Y-14303984D02*
X16451134Y-14303984D01*
X16632087Y-14303984D02*
X16613039Y-14294460D01*
X16613039Y-14294460D02*
X16603515Y-14275412D01*
X16603515Y-14275412D02*
X16603515Y-14103984D01*
X16784468Y-14294460D02*
X16765420Y-14303984D01*
X16765420Y-14303984D02*
X16727325Y-14303984D01*
X16727325Y-14303984D02*
X16708277Y-14294460D01*
X16708277Y-14294460D02*
X16698753Y-14275412D01*
X16698753Y-14275412D02*
X16698753Y-14199222D01*
X16698753Y-14199222D02*
X16708277Y-14180174D01*
X16708277Y-14180174D02*
X16727325Y-14170650D01*
X16727325Y-14170650D02*
X16765420Y-14170650D01*
X16765420Y-14170650D02*
X16784468Y-14180174D01*
X16784468Y-14180174D02*
X16793992Y-14199222D01*
X16793992Y-14199222D02*
X16793992Y-14218269D01*
X16793992Y-14218269D02*
X16698753Y-14237317D01*
X16870182Y-14294460D02*
X16889230Y-14303984D01*
X16889230Y-14303984D02*
X16927325Y-14303984D01*
X16927325Y-14303984D02*
X16946373Y-14294460D01*
X16946373Y-14294460D02*
X16955896Y-14275412D01*
X16955896Y-14275412D02*
X16955896Y-14265888D01*
X16955896Y-14265888D02*
X16946373Y-14246841D01*
X16946373Y-14246841D02*
X16927325Y-14237317D01*
X16927325Y-14237317D02*
X16898753Y-14237317D01*
X16898753Y-14237317D02*
X16879706Y-14227793D01*
X16879706Y-14227793D02*
X16870182Y-14208746D01*
X16870182Y-14208746D02*
X16870182Y-14199222D01*
X16870182Y-14199222D02*
X16879706Y-14180174D01*
X16879706Y-14180174D02*
X16898753Y-14170650D01*
X16898753Y-14170650D02*
X16927325Y-14170650D01*
X16927325Y-14170650D02*
X16946373Y-14180174D01*
X17022563Y-14380174D02*
X17032087Y-14370650D01*
X17032087Y-14370650D02*
X17051134Y-14342079D01*
X17051134Y-14342079D02*
X17060658Y-14323031D01*
X17060658Y-14323031D02*
X17070182Y-14294460D01*
X17070182Y-14294460D02*
X17079706Y-14246841D01*
X17079706Y-14246841D02*
X17079706Y-14208746D01*
X17079706Y-14208746D02*
X17070182Y-14161127D01*
X17070182Y-14161127D02*
X17060658Y-14132555D01*
X17060658Y-14132555D02*
X17051134Y-14113508D01*
X17051134Y-14113508D02*
X17032087Y-14084936D01*
X17032087Y-14084936D02*
X17022563Y-14075412D01*
D15*
X12087500Y-14406500D02*
X12247500Y-14566500D01*
X12247500Y-14406500D02*
X12087500Y-14566500D01*
X12167500Y-14406500D02*
X12167500Y-14566500D01*
X12087500Y-14486500D02*
X12247500Y-14486500D01*
D11*
X12613039Y-14577984D02*
X12498753Y-14577984D01*
X12555896Y-14577984D02*
X12555896Y-14377984D01*
X12555896Y-14377984D02*
X12536848Y-14406555D01*
X12536848Y-14406555D02*
X12517801Y-14425603D01*
X12517801Y-14425603D02*
X12498753Y-14435127D01*
X12698753Y-14558936D02*
X12708277Y-14568460D01*
X12708277Y-14568460D02*
X12698753Y-14577984D01*
X12698753Y-14577984D02*
X12689229Y-14568460D01*
X12689229Y-14568460D02*
X12698753Y-14558936D01*
X12698753Y-14558936D02*
X12698753Y-14577984D01*
X12879705Y-14377984D02*
X12841610Y-14377984D01*
X12841610Y-14377984D02*
X12822562Y-14387508D01*
X12822562Y-14387508D02*
X12813039Y-14397031D01*
X12813039Y-14397031D02*
X12793991Y-14425603D01*
X12793991Y-14425603D02*
X12784467Y-14463698D01*
X12784467Y-14463698D02*
X12784467Y-14539888D01*
X12784467Y-14539888D02*
X12793991Y-14558936D01*
X12793991Y-14558936D02*
X12803515Y-14568460D01*
X12803515Y-14568460D02*
X12822562Y-14577984D01*
X12822562Y-14577984D02*
X12860658Y-14577984D01*
X12860658Y-14577984D02*
X12879705Y-14568460D01*
X12879705Y-14568460D02*
X12889229Y-14558936D01*
X12889229Y-14558936D02*
X12898753Y-14539888D01*
X12898753Y-14539888D02*
X12898753Y-14492269D01*
X12898753Y-14492269D02*
X12889229Y-14473222D01*
X12889229Y-14473222D02*
X12879705Y-14463698D01*
X12879705Y-14463698D02*
X12860658Y-14454174D01*
X12860658Y-14454174D02*
X12822562Y-14454174D01*
X12822562Y-14454174D02*
X12803515Y-14463698D01*
X12803515Y-14463698D02*
X12793991Y-14473222D01*
X12793991Y-14473222D02*
X12784467Y-14492269D01*
X13022562Y-14377984D02*
X13041610Y-14377984D01*
X13041610Y-14377984D02*
X13060658Y-14387508D01*
X13060658Y-14387508D02*
X13070182Y-14397031D01*
X13070182Y-14397031D02*
X13079705Y-14416079D01*
X13079705Y-14416079D02*
X13089229Y-14454174D01*
X13089229Y-14454174D02*
X13089229Y-14501793D01*
X13089229Y-14501793D02*
X13079705Y-14539888D01*
X13079705Y-14539888D02*
X13070182Y-14558936D01*
X13070182Y-14558936D02*
X13060658Y-14568460D01*
X13060658Y-14568460D02*
X13041610Y-14577984D01*
X13041610Y-14577984D02*
X13022562Y-14577984D01*
X13022562Y-14577984D02*
X13003515Y-14568460D01*
X13003515Y-14568460D02*
X12993991Y-14558936D01*
X12993991Y-14558936D02*
X12984467Y-14539888D01*
X12984467Y-14539888D02*
X12974943Y-14501793D01*
X12974943Y-14501793D02*
X12974943Y-14454174D01*
X12974943Y-14454174D02*
X12984467Y-14416079D01*
X12984467Y-14416079D02*
X12993991Y-14397031D01*
X12993991Y-14397031D02*
X13003515Y-14387508D01*
X13003515Y-14387508D02*
X13022562Y-14377984D01*
X13213039Y-14377984D02*
X13232086Y-14377984D01*
X13232086Y-14377984D02*
X13251134Y-14387508D01*
X13251134Y-14387508D02*
X13260658Y-14397031D01*
X13260658Y-14397031D02*
X13270182Y-14416079D01*
X13270182Y-14416079D02*
X13279705Y-14454174D01*
X13279705Y-14454174D02*
X13279705Y-14501793D01*
X13279705Y-14501793D02*
X13270182Y-14539888D01*
X13270182Y-14539888D02*
X13260658Y-14558936D01*
X13260658Y-14558936D02*
X13251134Y-14568460D01*
X13251134Y-14568460D02*
X13232086Y-14577984D01*
X13232086Y-14577984D02*
X13213039Y-14577984D01*
X13213039Y-14577984D02*
X13193991Y-14568460D01*
X13193991Y-14568460D02*
X13184467Y-14558936D01*
X13184467Y-14558936D02*
X13174943Y-14539888D01*
X13174943Y-14539888D02*
X13165420Y-14501793D01*
X13165420Y-14501793D02*
X13165420Y-14454174D01*
X13165420Y-14454174D02*
X13174943Y-14416079D01*
X13174943Y-14416079D02*
X13184467Y-14397031D01*
X13184467Y-14397031D02*
X13193991Y-14387508D01*
X13193991Y-14387508D02*
X13213039Y-14377984D01*
X13365420Y-14577984D02*
X13365420Y-14444650D01*
X13365420Y-14463698D02*
X13374943Y-14454174D01*
X13374943Y-14454174D02*
X13393991Y-14444650D01*
X13393991Y-14444650D02*
X13422563Y-14444650D01*
X13422563Y-14444650D02*
X13441610Y-14454174D01*
X13441610Y-14454174D02*
X13451134Y-14473222D01*
X13451134Y-14473222D02*
X13451134Y-14577984D01*
X13451134Y-14473222D02*
X13460658Y-14454174D01*
X13460658Y-14454174D02*
X13479705Y-14444650D01*
X13479705Y-14444650D02*
X13508277Y-14444650D01*
X13508277Y-14444650D02*
X13527324Y-14454174D01*
X13527324Y-14454174D02*
X13536848Y-14473222D01*
X13536848Y-14473222D02*
X13536848Y-14577984D01*
X13632086Y-14577984D02*
X13632086Y-14444650D01*
X13632086Y-14463698D02*
X13641610Y-14454174D01*
X13641610Y-14454174D02*
X13660658Y-14444650D01*
X13660658Y-14444650D02*
X13689229Y-14444650D01*
X13689229Y-14444650D02*
X13708277Y-14454174D01*
X13708277Y-14454174D02*
X13717801Y-14473222D01*
X13717801Y-14473222D02*
X13717801Y-14577984D01*
X13717801Y-14473222D02*
X13727324Y-14454174D01*
X13727324Y-14454174D02*
X13746372Y-14444650D01*
X13746372Y-14444650D02*
X13774943Y-14444650D01*
X13774943Y-14444650D02*
X13793991Y-14454174D01*
X13793991Y-14454174D02*
X13803515Y-14473222D01*
X13803515Y-14473222D02*
X13803515Y-14577984D01*
X14193991Y-14368460D02*
X14022563Y-14625603D01*
X14451134Y-14377984D02*
X14470182Y-14377984D01*
X14470182Y-14377984D02*
X14489229Y-14387508D01*
X14489229Y-14387508D02*
X14498753Y-14397031D01*
X14498753Y-14397031D02*
X14508277Y-14416079D01*
X14508277Y-14416079D02*
X14517801Y-14454174D01*
X14517801Y-14454174D02*
X14517801Y-14501793D01*
X14517801Y-14501793D02*
X14508277Y-14539888D01*
X14508277Y-14539888D02*
X14498753Y-14558936D01*
X14498753Y-14558936D02*
X14489229Y-14568460D01*
X14489229Y-14568460D02*
X14470182Y-14577984D01*
X14470182Y-14577984D02*
X14451134Y-14577984D01*
X14451134Y-14577984D02*
X14432086Y-14568460D01*
X14432086Y-14568460D02*
X14422563Y-14558936D01*
X14422563Y-14558936D02*
X14413039Y-14539888D01*
X14413039Y-14539888D02*
X14403515Y-14501793D01*
X14403515Y-14501793D02*
X14403515Y-14454174D01*
X14403515Y-14454174D02*
X14413039Y-14416079D01*
X14413039Y-14416079D02*
X14422563Y-14397031D01*
X14422563Y-14397031D02*
X14432086Y-14387508D01*
X14432086Y-14387508D02*
X14451134Y-14377984D01*
X14603515Y-14558936D02*
X14613039Y-14568460D01*
X14613039Y-14568460D02*
X14603515Y-14577984D01*
X14603515Y-14577984D02*
X14593991Y-14568460D01*
X14593991Y-14568460D02*
X14603515Y-14558936D01*
X14603515Y-14558936D02*
X14603515Y-14577984D01*
X14736848Y-14377984D02*
X14755896Y-14377984D01*
X14755896Y-14377984D02*
X14774944Y-14387508D01*
X14774944Y-14387508D02*
X14784467Y-14397031D01*
X14784467Y-14397031D02*
X14793991Y-14416079D01*
X14793991Y-14416079D02*
X14803515Y-14454174D01*
X14803515Y-14454174D02*
X14803515Y-14501793D01*
X14803515Y-14501793D02*
X14793991Y-14539888D01*
X14793991Y-14539888D02*
X14784467Y-14558936D01*
X14784467Y-14558936D02*
X14774944Y-14568460D01*
X14774944Y-14568460D02*
X14755896Y-14577984D01*
X14755896Y-14577984D02*
X14736848Y-14577984D01*
X14736848Y-14577984D02*
X14717801Y-14568460D01*
X14717801Y-14568460D02*
X14708277Y-14558936D01*
X14708277Y-14558936D02*
X14698753Y-14539888D01*
X14698753Y-14539888D02*
X14689229Y-14501793D01*
X14689229Y-14501793D02*
X14689229Y-14454174D01*
X14689229Y-14454174D02*
X14698753Y-14416079D01*
X14698753Y-14416079D02*
X14708277Y-14397031D01*
X14708277Y-14397031D02*
X14717801Y-14387508D01*
X14717801Y-14387508D02*
X14736848Y-14377984D01*
X14974944Y-14377984D02*
X14936848Y-14377984D01*
X14936848Y-14377984D02*
X14917801Y-14387508D01*
X14917801Y-14387508D02*
X14908277Y-14397031D01*
X14908277Y-14397031D02*
X14889229Y-14425603D01*
X14889229Y-14425603D02*
X14879706Y-14463698D01*
X14879706Y-14463698D02*
X14879706Y-14539888D01*
X14879706Y-14539888D02*
X14889229Y-14558936D01*
X14889229Y-14558936D02*
X14898753Y-14568460D01*
X14898753Y-14568460D02*
X14917801Y-14577984D01*
X14917801Y-14577984D02*
X14955896Y-14577984D01*
X14955896Y-14577984D02*
X14974944Y-14568460D01*
X14974944Y-14568460D02*
X14984467Y-14558936D01*
X14984467Y-14558936D02*
X14993991Y-14539888D01*
X14993991Y-14539888D02*
X14993991Y-14492269D01*
X14993991Y-14492269D02*
X14984467Y-14473222D01*
X14984467Y-14473222D02*
X14974944Y-14463698D01*
X14974944Y-14463698D02*
X14955896Y-14454174D01*
X14955896Y-14454174D02*
X14917801Y-14454174D01*
X14917801Y-14454174D02*
X14898753Y-14463698D01*
X14898753Y-14463698D02*
X14889229Y-14473222D01*
X14889229Y-14473222D02*
X14879706Y-14492269D01*
X15060658Y-14377984D02*
X15184467Y-14377984D01*
X15184467Y-14377984D02*
X15117801Y-14454174D01*
X15117801Y-14454174D02*
X15146372Y-14454174D01*
X15146372Y-14454174D02*
X15165420Y-14463698D01*
X15165420Y-14463698D02*
X15174944Y-14473222D01*
X15174944Y-14473222D02*
X15184467Y-14492269D01*
X15184467Y-14492269D02*
X15184467Y-14539888D01*
X15184467Y-14539888D02*
X15174944Y-14558936D01*
X15174944Y-14558936D02*
X15165420Y-14568460D01*
X15165420Y-14568460D02*
X15146372Y-14577984D01*
X15146372Y-14577984D02*
X15089229Y-14577984D01*
X15089229Y-14577984D02*
X15070182Y-14568460D01*
X15070182Y-14568460D02*
X15060658Y-14558936D01*
X15308277Y-14377984D02*
X15327325Y-14377984D01*
X15327325Y-14377984D02*
X15346372Y-14387508D01*
X15346372Y-14387508D02*
X15355896Y-14397031D01*
X15355896Y-14397031D02*
X15365420Y-14416079D01*
X15365420Y-14416079D02*
X15374944Y-14454174D01*
X15374944Y-14454174D02*
X15374944Y-14501793D01*
X15374944Y-14501793D02*
X15365420Y-14539888D01*
X15365420Y-14539888D02*
X15355896Y-14558936D01*
X15355896Y-14558936D02*
X15346372Y-14568460D01*
X15346372Y-14568460D02*
X15327325Y-14577984D01*
X15327325Y-14577984D02*
X15308277Y-14577984D01*
X15308277Y-14577984D02*
X15289229Y-14568460D01*
X15289229Y-14568460D02*
X15279706Y-14558936D01*
X15279706Y-14558936D02*
X15270182Y-14539888D01*
X15270182Y-14539888D02*
X15260658Y-14501793D01*
X15260658Y-14501793D02*
X15260658Y-14454174D01*
X15260658Y-14454174D02*
X15270182Y-14416079D01*
X15270182Y-14416079D02*
X15279706Y-14397031D01*
X15279706Y-14397031D02*
X15289229Y-14387508D01*
X15289229Y-14387508D02*
X15308277Y-14377984D01*
X15451134Y-14377984D02*
X15451134Y-14416079D01*
X15527325Y-14377984D02*
X15527325Y-14416079D01*
X15822563Y-14654174D02*
X15813039Y-14644650D01*
X15813039Y-14644650D02*
X15793991Y-14616079D01*
X15793991Y-14616079D02*
X15784468Y-14597031D01*
X15784468Y-14597031D02*
X15774944Y-14568460D01*
X15774944Y-14568460D02*
X15765420Y-14520841D01*
X15765420Y-14520841D02*
X15765420Y-14482746D01*
X15765420Y-14482746D02*
X15774944Y-14435127D01*
X15774944Y-14435127D02*
X15784468Y-14406555D01*
X15784468Y-14406555D02*
X15793991Y-14387508D01*
X15793991Y-14387508D02*
X15813039Y-14358936D01*
X15813039Y-14358936D02*
X15822563Y-14349412D01*
X16003515Y-14577984D02*
X15889229Y-14577984D01*
X15946372Y-14577984D02*
X15946372Y-14377984D01*
X15946372Y-14377984D02*
X15927325Y-14406555D01*
X15927325Y-14406555D02*
X15908277Y-14425603D01*
X15908277Y-14425603D02*
X15889229Y-14435127D01*
X16241610Y-14577984D02*
X16241610Y-14377984D01*
X16327325Y-14577984D02*
X16327325Y-14473222D01*
X16327325Y-14473222D02*
X16317801Y-14454174D01*
X16317801Y-14454174D02*
X16298753Y-14444650D01*
X16298753Y-14444650D02*
X16270182Y-14444650D01*
X16270182Y-14444650D02*
X16251134Y-14454174D01*
X16251134Y-14454174D02*
X16241610Y-14463698D01*
X16451134Y-14577984D02*
X16432087Y-14568460D01*
X16432087Y-14568460D02*
X16422563Y-14558936D01*
X16422563Y-14558936D02*
X16413039Y-14539888D01*
X16413039Y-14539888D02*
X16413039Y-14482746D01*
X16413039Y-14482746D02*
X16422563Y-14463698D01*
X16422563Y-14463698D02*
X16432087Y-14454174D01*
X16432087Y-14454174D02*
X16451134Y-14444650D01*
X16451134Y-14444650D02*
X16479706Y-14444650D01*
X16479706Y-14444650D02*
X16498753Y-14454174D01*
X16498753Y-14454174D02*
X16508277Y-14463698D01*
X16508277Y-14463698D02*
X16517801Y-14482746D01*
X16517801Y-14482746D02*
X16517801Y-14539888D01*
X16517801Y-14539888D02*
X16508277Y-14558936D01*
X16508277Y-14558936D02*
X16498753Y-14568460D01*
X16498753Y-14568460D02*
X16479706Y-14577984D01*
X16479706Y-14577984D02*
X16451134Y-14577984D01*
X16632087Y-14577984D02*
X16613039Y-14568460D01*
X16613039Y-14568460D02*
X16603515Y-14549412D01*
X16603515Y-14549412D02*
X16603515Y-14377984D01*
X16784468Y-14568460D02*
X16765420Y-14577984D01*
X16765420Y-14577984D02*
X16727325Y-14577984D01*
X16727325Y-14577984D02*
X16708277Y-14568460D01*
X16708277Y-14568460D02*
X16698753Y-14549412D01*
X16698753Y-14549412D02*
X16698753Y-14473222D01*
X16698753Y-14473222D02*
X16708277Y-14454174D01*
X16708277Y-14454174D02*
X16727325Y-14444650D01*
X16727325Y-14444650D02*
X16765420Y-14444650D01*
X16765420Y-14444650D02*
X16784468Y-14454174D01*
X16784468Y-14454174D02*
X16793992Y-14473222D01*
X16793992Y-14473222D02*
X16793992Y-14492269D01*
X16793992Y-14492269D02*
X16698753Y-14511317D01*
X16860658Y-14654174D02*
X16870182Y-14644650D01*
X16870182Y-14644650D02*
X16889230Y-14616079D01*
X16889230Y-14616079D02*
X16898753Y-14597031D01*
X16898753Y-14597031D02*
X16908277Y-14568460D01*
X16908277Y-14568460D02*
X16917801Y-14520841D01*
X16917801Y-14520841D02*
X16917801Y-14482746D01*
X16917801Y-14482746D02*
X16908277Y-14435127D01*
X16908277Y-14435127D02*
X16898753Y-14406555D01*
X16898753Y-14406555D02*
X16889230Y-14387508D01*
X16889230Y-14387508D02*
X16870182Y-14358936D01*
X16870182Y-14358936D02*
X16860658Y-14349412D01*
M02*
