ISO-10303-21;
HEADER;
/* Generated by software containing ST-Developer
 * from STEP Tools, Inc. (www.steptools.com) 
 */

FILE_DESCRIPTION(
/* description */ (''),
/* implementation_level */ '2;1');

FILE_NAME(
/* name */ 'panda_ears.step',
/* time_stamp */ '2026-05-11T15:06:00-04:00',
/* author */ (''),
/* organization */ (''),
/* preprocessor_version */ 'ST-DEVELOPER v20.1',
/* originating_system */ 'Autodesk Translation Framework v15.8.0.0',
/* authorisation */ '');

FILE_SCHEMA (('AUTOMOTIVE_DESIGN { 1 0 10303 214 3 1 1 }'));
ENDSEC;

DATA;
#10=MECHANICAL_DESIGN_GEOMETRIC_PRESENTATION_REPRESENTATION('',(#13),#991);
#11=SHAPE_REPRESENTATION_RELATIONSHIP('SRR','None',#997,#12);
#12=ADVANCED_BREP_SHAPE_REPRESENTATION('',(#14),#990);
#13=STYLED_ITEM('',(#1008),#14);
#14=MANIFOLD_SOLID_BREP('pandaears',#595);
#15=(
BOUNDED_SURFACE()
B_SPLINE_SURFACE(1,2,((#948,#949,#950,#951,#952),(#953,#954,#955,#956,#957)),
 .UNSPECIFIED.,.F.,.F.,.F.)
B_SPLINE_SURFACE_WITH_KNOTS((2,2),(3,2,3),(0.,0.37),(-4.71238898038469,
-3.15393955252751,-1.59549012467033),.UNSPECIFIED.)
GEOMETRIC_REPRESENTATION_ITEM()
RATIONAL_B_SPLINE_SURFACE(((1.,0.711458567041818,1.,0.711458567041818,1.),
(1.,0.711458567041818,1.,0.711458567041818,1.)))
REPRESENTATION_ITEM('')
SURFACE()
);
#16=(
BOUNDED_SURFACE()
B_SPLINE_SURFACE(1,2,((#961,#962,#963,#964,#965),(#966,#967,#968,#969,#970)),
 .UNSPECIFIED.,.F.,.F.,.F.)
B_SPLINE_SURFACE_WITH_KNOTS((2,2),(3,2,3),(0.,0.37),(-1.54610252891946,
0.0123468989377165,1.5707963267949),.UNSPECIFIED.)
GEOMETRIC_REPRESENTATION_ITEM()
RATIONAL_B_SPLINE_SURFACE(((1.,0.711458567041818,1.,0.711458567041818,1.),
(1.,0.711458567041818,1.,0.711458567041818,1.)))
REPRESENTATION_ITEM('')
SURFACE()
);
#17=CYLINDRICAL_SURFACE('',#625,0.1);
#18=CYLINDRICAL_SURFACE('',#627,0.1);
#19=CYLINDRICAL_SURFACE('',#629,0.05);
#20=CYLINDRICAL_SURFACE('',#630,0.05);
#21=CYLINDRICAL_SURFACE('',#631,0.02);
#22=CYLINDRICAL_SURFACE('',#633,0.02);
#23=ELLIPSE('',#605,2.,1.);
#24=ELLIPSE('',#608,2.,1.);
#25=ELLIPSE('',#617,2.,1.);
#26=ELLIPSE('',#620,2.,1.);
#27=CIRCLE('',#603,0.02);
#28=CIRCLE('',#604,0.1);
#29=CIRCLE('',#606,0.05);
#30=CIRCLE('',#607,0.05);
#31=CIRCLE('',#609,0.1);
#32=CIRCLE('',#610,0.02);
#33=CIRCLE('',#615,0.02);
#34=CIRCLE('',#616,0.1);
#35=CIRCLE('',#618,0.05);
#36=CIRCLE('',#619,0.05);
#37=CIRCLE('',#621,0.1);
#38=CIRCLE('',#622,0.02);
#39=FACE_OUTER_BOUND('',#69,.T.);
#40=FACE_OUTER_BOUND('',#70,.T.);
#41=FACE_OUTER_BOUND('',#71,.T.);
#42=FACE_OUTER_BOUND('',#72,.T.);
#43=FACE_OUTER_BOUND('',#73,.T.);
#44=FACE_OUTER_BOUND('',#74,.T.);
#45=FACE_OUTER_BOUND('',#75,.T.);
#46=FACE_OUTER_BOUND('',#76,.T.);
#47=FACE_OUTER_BOUND('',#77,.T.);
#48=FACE_OUTER_BOUND('',#78,.T.);
#49=FACE_OUTER_BOUND('',#79,.T.);
#50=FACE_OUTER_BOUND('',#80,.T.);
#51=FACE_OUTER_BOUND('',#81,.T.);
#52=FACE_OUTER_BOUND('',#82,.T.);
#53=FACE_OUTER_BOUND('',#83,.T.);
#54=FACE_OUTER_BOUND('',#84,.T.);
#55=FACE_OUTER_BOUND('',#85,.T.);
#56=FACE_OUTER_BOUND('',#86,.T.);
#57=FACE_OUTER_BOUND('',#87,.T.);
#58=FACE_OUTER_BOUND('',#88,.T.);
#59=FACE_OUTER_BOUND('',#89,.T.);
#60=FACE_OUTER_BOUND('',#90,.T.);
#61=FACE_OUTER_BOUND('',#91,.T.);
#62=FACE_OUTER_BOUND('',#92,.T.);
#63=FACE_OUTER_BOUND('',#93,.T.);
#64=FACE_OUTER_BOUND('',#94,.T.);
#65=FACE_OUTER_BOUND('',#95,.T.);
#66=FACE_OUTER_BOUND('',#96,.T.);
#67=FACE_OUTER_BOUND('',#97,.T.);
#68=FACE_OUTER_BOUND('',#98,.T.);
#69=EDGE_LOOP('',(#375,#376,#377,#378));
#70=EDGE_LOOP('',(#379,#380,#381,#382));
#71=EDGE_LOOP('',(#383,#384,#385,#386));
#72=EDGE_LOOP('',(#387,#388,#389,#390));
#73=EDGE_LOOP('',(#391,#392,#393,#394));
#74=EDGE_LOOP('',(#395,#396,#397,#398,#399,#400,#401,#402,#403,#404,#405,
#406,#407,#408,#409,#410,#411,#412,#413,#414,#415,#416,#417,#418,#419,#420,
#421,#422));
#75=EDGE_LOOP('',(#423,#424,#425,#426));
#76=EDGE_LOOP('',(#427,#428,#429,#430));
#77=EDGE_LOOP('',(#431,#432,#433,#434));
#78=EDGE_LOOP('',(#435,#436,#437,#438,#439,#440,#441,#442,#443,#444,#445,
#446,#447,#448,#449,#450,#451,#452,#453,#454,#455,#456,#457,#458,#459,#460,
#461,#462));
#79=EDGE_LOOP('',(#463,#464,#465,#466));
#80=EDGE_LOOP('',(#467,#468,#469,#470));
#81=EDGE_LOOP('',(#471,#472,#473,#474));
#82=EDGE_LOOP('',(#475,#476,#477,#478));
#83=EDGE_LOOP('',(#479,#480,#481,#482));
#84=EDGE_LOOP('',(#483,#484,#485,#486));
#85=EDGE_LOOP('',(#487,#488,#489,#490));
#86=EDGE_LOOP('',(#491,#492,#493,#494));
#87=EDGE_LOOP('',(#495,#496,#497,#498));
#88=EDGE_LOOP('',(#499,#500,#501,#502));
#89=EDGE_LOOP('',(#503,#504,#505,#506));
#90=EDGE_LOOP('',(#507,#508,#509,#510));
#91=EDGE_LOOP('',(#511,#512,#513,#514));
#92=EDGE_LOOP('',(#515,#516,#517,#518));
#93=EDGE_LOOP('',(#519,#520,#521,#522));
#94=EDGE_LOOP('',(#523,#524,#525,#526));
#95=EDGE_LOOP('',(#527,#528,#529,#530));
#96=EDGE_LOOP('',(#531,#532,#533,#534));
#97=EDGE_LOOP('',(#535,#536,#537,#538));
#98=EDGE_LOOP('',(#539,#540,#541,#542));
#99=LINE('',#803,#167);
#100=LINE('',#805,#168);
#101=LINE('',#807,#169);
#102=LINE('',#808,#170);
#103=LINE('',#811,#171);
#104=LINE('',#813,#172);
#105=LINE('',#814,#173);
#106=LINE('',#818,#174);
#107=LINE('',#820,#175);
#108=LINE('',#822,#176);
#109=LINE('',#823,#177);
#110=LINE('',#826,#178);
#111=LINE('',#828,#179);
#112=LINE('',#829,#180);
#113=LINE('',#831,#181);
#114=LINE('',#832,#182);
#115=LINE('',#835,#183);
#116=LINE('',#837,#184);
#117=LINE('',#839,#185);
#118=LINE('',#841,#186);
#119=LINE('',#843,#187);
#120=LINE('',#847,#188);
#121=LINE('',#851,#189);
#122=LINE('',#857,#190);
#123=LINE('',#863,#191);
#124=LINE('',#867,#192);
#125=LINE('',#871,#193);
#126=LINE('',#873,#194);
#127=LINE('',#875,#195);
#128=LINE('',#877,#196);
#129=LINE('',#878,#197);
#130=LINE('',#881,#198);
#131=LINE('',#882,#199);
#132=LINE('',#885,#200);
#133=LINE('',#887,#201);
#134=LINE('',#888,#202);
#135=LINE('',#890,#203);
#136=LINE('',#893,#204);
#137=LINE('',#895,#205);
#138=LINE('',#897,#206);
#139=LINE('',#901,#207);
#140=LINE('',#905,#208);
#141=LINE('',#911,#209);
#142=LINE('',#917,#210);
#143=LINE('',#921,#211);
#144=LINE('',#925,#212);
#145=LINE('',#927,#213);
#146=LINE('',#929,#214);
#147=LINE('',#930,#215);
#148=LINE('',#932,#216);
#149=LINE('',#934,#217);
#150=LINE('',#936,#218);
#151=LINE('',#937,#219);
#152=LINE('',#939,#220);
#153=LINE('',#941,#221);
#154=LINE('',#942,#222);
#155=LINE('',#944,#223);
#156=LINE('',#946,#224);
#157=LINE('',#947,#225);
#158=LINE('',#959,#226);
#159=LINE('',#960,#227);
#160=LINE('',#972,#228);
#161=LINE('',#973,#229);
#162=LINE('',#976,#230);
#163=LINE('',#977,#231);
#164=LINE('',#980,#232);
#165=LINE('',#982,#233);
#166=LINE('',#984,#234);
#167=VECTOR('',#645,1.);
#168=VECTOR('',#646,1.);
#169=VECTOR('',#647,1.);
#170=VECTOR('',#648,1.);
#171=VECTOR('',#651,1.);
#172=VECTOR('',#652,1.);
#173=VECTOR('',#653,1.);
#174=VECTOR('',#656,1.);
#175=VECTOR('',#657,1.);
#176=VECTOR('',#658,1.);
#177=VECTOR('',#659,1.);
#178=VECTOR('',#662,1.);
#179=VECTOR('',#663,1.);
#180=VECTOR('',#664,1.);
#181=VECTOR('',#667,1.);
#182=VECTOR('',#668,1.);
#183=VECTOR('',#671,1.);
#184=VECTOR('',#672,1.);
#185=VECTOR('',#673,1.);
#186=VECTOR('',#674,1.);
#187=VECTOR('',#675,1.);
#188=VECTOR('',#678,1.);
#189=VECTOR('',#681,1.);
#190=VECTOR('',#686,1.);
#191=VECTOR('',#691,1.);
#192=VECTOR('',#694,1.);
#193=VECTOR('',#697,1.);
#194=VECTOR('',#698,1.);
#195=VECTOR('',#699,1.);
#196=VECTOR('',#700,1.);
#197=VECTOR('',#701,1.);
#198=VECTOR('',#704,1.);
#199=VECTOR('',#705,1.);
#200=VECTOR('',#708,1.);
#201=VECTOR('',#709,1.);
#202=VECTOR('',#710,1.);
#203=VECTOR('',#713,1.);
#204=VECTOR('',#716,1.);
#205=VECTOR('',#717,1.);
#206=VECTOR('',#718,1.);
#207=VECTOR('',#721,1.);
#208=VECTOR('',#724,1.);
#209=VECTOR('',#729,1.);
#210=VECTOR('',#734,1.);
#211=VECTOR('',#737,1.);
#212=VECTOR('',#740,1.);
#213=VECTOR('',#741,1.);
#214=VECTOR('',#742,1.);
#215=VECTOR('',#743,1.);
#216=VECTOR('',#746,1.);
#217=VECTOR('',#749,1.);
#218=VECTOR('',#752,1.);
#219=VECTOR('',#753,1.);
#220=VECTOR('',#756,1.);
#221=VECTOR('',#759,1.);
#222=VECTOR('',#760,1.);
#223=VECTOR('',#763,1.);
#224=VECTOR('',#766,1.);
#225=VECTOR('',#767,1.);
#226=VECTOR('',#770,1.);
#227=VECTOR('',#771,1.);
#228=VECTOR('',#774,1.);
#229=VECTOR('',#775,1.);
#230=VECTOR('',#780,1.);
#231=VECTOR('',#781,1.);
#232=VECTOR('',#786,1.);
#233=VECTOR('',#789,1.);
#234=VECTOR('',#792,1.);
#235=VERTEX_POINT('',#801);
#236=VERTEX_POINT('',#802);
#237=VERTEX_POINT('',#804);
#238=VERTEX_POINT('',#806);
#239=VERTEX_POINT('',#810);
#240=VERTEX_POINT('',#812);
#241=VERTEX_POINT('',#816);
#242=VERTEX_POINT('',#817);
#243=VERTEX_POINT('',#819);
#244=VERTEX_POINT('',#821);
#245=VERTEX_POINT('',#825);
#246=VERTEX_POINT('',#827);
#247=VERTEX_POINT('',#834);
#248=VERTEX_POINT('',#836);
#249=VERTEX_POINT('',#838);
#250=VERTEX_POINT('',#840);
#251=VERTEX_POINT('',#842);
#252=VERTEX_POINT('',#844);
#253=VERTEX_POINT('',#846);
#254=VERTEX_POINT('',#848);
#255=VERTEX_POINT('',#850);
#256=VERTEX_POINT('',#852);
#257=VERTEX_POINT('',#854);
#258=VERTEX_POINT('',#856);
#259=VERTEX_POINT('',#858);
#260=VERTEX_POINT('',#860);
#261=VERTEX_POINT('',#862);
#262=VERTEX_POINT('',#864);
#263=VERTEX_POINT('',#866);
#264=VERTEX_POINT('',#868);
#265=VERTEX_POINT('',#870);
#266=VERTEX_POINT('',#872);
#267=VERTEX_POINT('',#874);
#268=VERTEX_POINT('',#876);
#269=VERTEX_POINT('',#880);
#270=VERTEX_POINT('',#884);
#271=VERTEX_POINT('',#886);
#272=VERTEX_POINT('',#892);
#273=VERTEX_POINT('',#894);
#274=VERTEX_POINT('',#896);
#275=VERTEX_POINT('',#898);
#276=VERTEX_POINT('',#900);
#277=VERTEX_POINT('',#902);
#278=VERTEX_POINT('',#904);
#279=VERTEX_POINT('',#906);
#280=VERTEX_POINT('',#908);
#281=VERTEX_POINT('',#910);
#282=VERTEX_POINT('',#912);
#283=VERTEX_POINT('',#914);
#284=VERTEX_POINT('',#916);
#285=VERTEX_POINT('',#918);
#286=VERTEX_POINT('',#920);
#287=VERTEX_POINT('',#922);
#288=VERTEX_POINT('',#924);
#289=VERTEX_POINT('',#926);
#290=VERTEX_POINT('',#928);
#291=EDGE_CURVE('',#235,#236,#99,.T.);
#292=EDGE_CURVE('',#236,#237,#100,.T.);
#293=EDGE_CURVE('',#237,#238,#101,.T.);
#294=EDGE_CURVE('',#238,#235,#102,.T.);
#295=EDGE_CURVE('',#239,#236,#103,.T.);
#296=EDGE_CURVE('',#240,#239,#104,.T.);
#297=EDGE_CURVE('',#237,#240,#105,.T.);
#298=EDGE_CURVE('',#241,#242,#106,.T.);
#299=EDGE_CURVE('',#242,#243,#107,.T.);
#300=EDGE_CURVE('',#243,#244,#108,.T.);
#301=EDGE_CURVE('',#244,#241,#109,.T.);
#302=EDGE_CURVE('',#245,#242,#110,.T.);
#303=EDGE_CURVE('',#246,#245,#111,.T.);
#304=EDGE_CURVE('',#243,#246,#112,.T.);
#305=EDGE_CURVE('',#241,#238,#113,.T.);
#306=EDGE_CURVE('',#235,#244,#114,.T.);
#307=EDGE_CURVE('',#247,#246,#115,.T.);
#308=EDGE_CURVE('',#248,#247,#116,.T.);
#309=EDGE_CURVE('',#249,#248,#117,.T.);
#310=EDGE_CURVE('',#249,#250,#118,.T.);
#311=EDGE_CURVE('',#250,#251,#119,.T.);
#312=EDGE_CURVE('',#252,#251,#27,.T.);
#313=EDGE_CURVE('',#253,#252,#120,.T.);
#314=EDGE_CURVE('',#254,#253,#28,.T.);
#315=EDGE_CURVE('',#255,#254,#121,.T.);
#316=EDGE_CURVE('',#256,#255,#23,.T.);
#317=EDGE_CURVE('',#257,#256,#29,.T.);
#318=EDGE_CURVE('',#257,#258,#122,.T.);
#319=EDGE_CURVE('',#259,#258,#30,.T.);
#320=EDGE_CURVE('',#260,#259,#24,.T.);
#321=EDGE_CURVE('',#260,#261,#123,.T.);
#322=EDGE_CURVE('',#262,#261,#31,.T.);
#323=EDGE_CURVE('',#263,#262,#124,.T.);
#324=EDGE_CURVE('',#264,#263,#32,.T.);
#325=EDGE_CURVE('',#264,#265,#125,.T.);
#326=EDGE_CURVE('',#265,#266,#126,.T.);
#327=EDGE_CURVE('',#267,#266,#127,.T.);
#328=EDGE_CURVE('',#268,#267,#128,.T.);
#329=EDGE_CURVE('',#239,#268,#129,.T.);
#330=EDGE_CURVE('',#245,#269,#130,.T.);
#331=EDGE_CURVE('',#247,#269,#131,.T.);
#332=EDGE_CURVE('',#267,#270,#132,.T.);
#333=EDGE_CURVE('',#270,#271,#133,.T.);
#334=EDGE_CURVE('',#271,#268,#134,.T.);
#335=EDGE_CURVE('',#271,#240,#135,.T.);
#336=EDGE_CURVE('',#272,#270,#136,.T.);
#337=EDGE_CURVE('',#272,#273,#137,.T.);
#338=EDGE_CURVE('',#273,#274,#138,.T.);
#339=EDGE_CURVE('',#275,#274,#33,.T.);
#340=EDGE_CURVE('',#276,#275,#139,.T.);
#341=EDGE_CURVE('',#277,#276,#34,.T.);
#342=EDGE_CURVE('',#278,#277,#140,.T.);
#343=EDGE_CURVE('',#279,#278,#25,.T.);
#344=EDGE_CURVE('',#280,#279,#35,.T.);
#345=EDGE_CURVE('',#281,#280,#141,.T.);
#346=EDGE_CURVE('',#282,#281,#36,.T.);
#347=EDGE_CURVE('',#283,#282,#26,.T.);
#348=EDGE_CURVE('',#283,#284,#142,.T.);
#349=EDGE_CURVE('',#285,#284,#37,.T.);
#350=EDGE_CURVE('',#286,#285,#143,.T.);
#351=EDGE_CURVE('',#287,#286,#38,.T.);
#352=EDGE_CURVE('',#287,#288,#144,.T.);
#353=EDGE_CURVE('',#288,#289,#145,.T.);
#354=EDGE_CURVE('',#290,#289,#146,.T.);
#355=EDGE_CURVE('',#269,#290,#147,.T.);
#356=EDGE_CURVE('',#290,#248,#148,.T.);
#357=EDGE_CURVE('',#289,#249,#149,.T.);
#358=EDGE_CURVE('',#253,#285,#150,.T.);
#359=EDGE_CURVE('',#284,#254,#151,.T.);
#360=EDGE_CURVE('',#283,#255,#152,.T.);
#361=EDGE_CURVE('',#276,#262,#153,.T.);
#362=EDGE_CURVE('',#261,#277,#154,.T.);
#363=EDGE_CURVE('',#260,#278,#155,.T.);
#364=EDGE_CURVE('',#279,#259,#156,.T.);
#365=EDGE_CURVE('',#258,#280,#157,.T.);
#366=EDGE_CURVE('',#256,#282,#158,.T.);
#367=EDGE_CURVE('',#281,#257,#159,.T.);
#368=EDGE_CURVE('',#286,#252,#160,.T.);
#369=EDGE_CURVE('',#251,#287,#161,.T.);
#370=EDGE_CURVE('',#263,#275,#162,.T.);
#371=EDGE_CURVE('',#274,#264,#163,.T.);
#372=EDGE_CURVE('',#265,#273,#164,.T.);
#373=EDGE_CURVE('',#266,#272,#165,.T.);
#374=EDGE_CURVE('',#288,#250,#166,.T.);
#375=ORIENTED_EDGE('',*,*,#291,.T.);
#376=ORIENTED_EDGE('',*,*,#292,.T.);
#377=ORIENTED_EDGE('',*,*,#293,.T.);
#378=ORIENTED_EDGE('',*,*,#294,.T.);
#379=ORIENTED_EDGE('',*,*,#292,.F.);
#380=ORIENTED_EDGE('',*,*,#295,.F.);
#381=ORIENTED_EDGE('',*,*,#296,.F.);
#382=ORIENTED_EDGE('',*,*,#297,.F.);
#383=ORIENTED_EDGE('',*,*,#298,.T.);
#384=ORIENTED_EDGE('',*,*,#299,.T.);
#385=ORIENTED_EDGE('',*,*,#300,.T.);
#386=ORIENTED_EDGE('',*,*,#301,.T.);
#387=ORIENTED_EDGE('',*,*,#299,.F.);
#388=ORIENTED_EDGE('',*,*,#302,.F.);
#389=ORIENTED_EDGE('',*,*,#303,.F.);
#390=ORIENTED_EDGE('',*,*,#304,.F.);
#391=ORIENTED_EDGE('',*,*,#294,.F.);
#392=ORIENTED_EDGE('',*,*,#305,.F.);
#393=ORIENTED_EDGE('',*,*,#301,.F.);
#394=ORIENTED_EDGE('',*,*,#306,.F.);
#395=ORIENTED_EDGE('',*,*,#295,.T.);
#396=ORIENTED_EDGE('',*,*,#291,.F.);
#397=ORIENTED_EDGE('',*,*,#306,.T.);
#398=ORIENTED_EDGE('',*,*,#300,.F.);
#399=ORIENTED_EDGE('',*,*,#304,.T.);
#400=ORIENTED_EDGE('',*,*,#307,.F.);
#401=ORIENTED_EDGE('',*,*,#308,.F.);
#402=ORIENTED_EDGE('',*,*,#309,.F.);
#403=ORIENTED_EDGE('',*,*,#310,.T.);
#404=ORIENTED_EDGE('',*,*,#311,.T.);
#405=ORIENTED_EDGE('',*,*,#312,.F.);
#406=ORIENTED_EDGE('',*,*,#313,.F.);
#407=ORIENTED_EDGE('',*,*,#314,.F.);
#408=ORIENTED_EDGE('',*,*,#315,.F.);
#409=ORIENTED_EDGE('',*,*,#316,.F.);
#410=ORIENTED_EDGE('',*,*,#317,.F.);
#411=ORIENTED_EDGE('',*,*,#318,.T.);
#412=ORIENTED_EDGE('',*,*,#319,.F.);
#413=ORIENTED_EDGE('',*,*,#320,.F.);
#414=ORIENTED_EDGE('',*,*,#321,.T.);
#415=ORIENTED_EDGE('',*,*,#322,.F.);
#416=ORIENTED_EDGE('',*,*,#323,.F.);
#417=ORIENTED_EDGE('',*,*,#324,.F.);
#418=ORIENTED_EDGE('',*,*,#325,.T.);
#419=ORIENTED_EDGE('',*,*,#326,.T.);
#420=ORIENTED_EDGE('',*,*,#327,.F.);
#421=ORIENTED_EDGE('',*,*,#328,.F.);
#422=ORIENTED_EDGE('',*,*,#329,.F.);
#423=ORIENTED_EDGE('',*,*,#303,.T.);
#424=ORIENTED_EDGE('',*,*,#330,.T.);
#425=ORIENTED_EDGE('',*,*,#331,.F.);
#426=ORIENTED_EDGE('',*,*,#307,.T.);
#427=ORIENTED_EDGE('',*,*,#328,.T.);
#428=ORIENTED_EDGE('',*,*,#332,.T.);
#429=ORIENTED_EDGE('',*,*,#333,.T.);
#430=ORIENTED_EDGE('',*,*,#334,.T.);
#431=ORIENTED_EDGE('',*,*,#296,.T.);
#432=ORIENTED_EDGE('',*,*,#329,.T.);
#433=ORIENTED_EDGE('',*,*,#334,.F.);
#434=ORIENTED_EDGE('',*,*,#335,.T.);
#435=ORIENTED_EDGE('',*,*,#297,.T.);
#436=ORIENTED_EDGE('',*,*,#335,.F.);
#437=ORIENTED_EDGE('',*,*,#333,.F.);
#438=ORIENTED_EDGE('',*,*,#336,.F.);
#439=ORIENTED_EDGE('',*,*,#337,.T.);
#440=ORIENTED_EDGE('',*,*,#338,.T.);
#441=ORIENTED_EDGE('',*,*,#339,.F.);
#442=ORIENTED_EDGE('',*,*,#340,.F.);
#443=ORIENTED_EDGE('',*,*,#341,.F.);
#444=ORIENTED_EDGE('',*,*,#342,.F.);
#445=ORIENTED_EDGE('',*,*,#343,.F.);
#446=ORIENTED_EDGE('',*,*,#344,.F.);
#447=ORIENTED_EDGE('',*,*,#345,.F.);
#448=ORIENTED_EDGE('',*,*,#346,.F.);
#449=ORIENTED_EDGE('',*,*,#347,.F.);
#450=ORIENTED_EDGE('',*,*,#348,.T.);
#451=ORIENTED_EDGE('',*,*,#349,.F.);
#452=ORIENTED_EDGE('',*,*,#350,.F.);
#453=ORIENTED_EDGE('',*,*,#351,.F.);
#454=ORIENTED_EDGE('',*,*,#352,.T.);
#455=ORIENTED_EDGE('',*,*,#353,.T.);
#456=ORIENTED_EDGE('',*,*,#354,.F.);
#457=ORIENTED_EDGE('',*,*,#355,.F.);
#458=ORIENTED_EDGE('',*,*,#330,.F.);
#459=ORIENTED_EDGE('',*,*,#302,.T.);
#460=ORIENTED_EDGE('',*,*,#298,.F.);
#461=ORIENTED_EDGE('',*,*,#305,.T.);
#462=ORIENTED_EDGE('',*,*,#293,.F.);
#463=ORIENTED_EDGE('',*,*,#355,.T.);
#464=ORIENTED_EDGE('',*,*,#356,.T.);
#465=ORIENTED_EDGE('',*,*,#308,.T.);
#466=ORIENTED_EDGE('',*,*,#331,.T.);
#467=ORIENTED_EDGE('',*,*,#356,.F.);
#468=ORIENTED_EDGE('',*,*,#354,.T.);
#469=ORIENTED_EDGE('',*,*,#357,.T.);
#470=ORIENTED_EDGE('',*,*,#309,.T.);
#471=ORIENTED_EDGE('',*,*,#314,.T.);
#472=ORIENTED_EDGE('',*,*,#358,.T.);
#473=ORIENTED_EDGE('',*,*,#349,.T.);
#474=ORIENTED_EDGE('',*,*,#359,.T.);
#475=ORIENTED_EDGE('',*,*,#359,.F.);
#476=ORIENTED_EDGE('',*,*,#348,.F.);
#477=ORIENTED_EDGE('',*,*,#360,.T.);
#478=ORIENTED_EDGE('',*,*,#315,.T.);
#479=ORIENTED_EDGE('',*,*,#341,.T.);
#480=ORIENTED_EDGE('',*,*,#361,.T.);
#481=ORIENTED_EDGE('',*,*,#322,.T.);
#482=ORIENTED_EDGE('',*,*,#362,.T.);
#483=ORIENTED_EDGE('',*,*,#362,.F.);
#484=ORIENTED_EDGE('',*,*,#321,.F.);
#485=ORIENTED_EDGE('',*,*,#363,.T.);
#486=ORIENTED_EDGE('',*,*,#342,.T.);
#487=ORIENTED_EDGE('',*,*,#344,.T.);
#488=ORIENTED_EDGE('',*,*,#364,.T.);
#489=ORIENTED_EDGE('',*,*,#319,.T.);
#490=ORIENTED_EDGE('',*,*,#365,.T.);
#491=ORIENTED_EDGE('',*,*,#364,.F.);
#492=ORIENTED_EDGE('',*,*,#343,.T.);
#493=ORIENTED_EDGE('',*,*,#363,.F.);
#494=ORIENTED_EDGE('',*,*,#320,.T.);
#495=ORIENTED_EDGE('',*,*,#317,.T.);
#496=ORIENTED_EDGE('',*,*,#366,.T.);
#497=ORIENTED_EDGE('',*,*,#346,.T.);
#498=ORIENTED_EDGE('',*,*,#367,.T.);
#499=ORIENTED_EDGE('',*,*,#366,.F.);
#500=ORIENTED_EDGE('',*,*,#316,.T.);
#501=ORIENTED_EDGE('',*,*,#360,.F.);
#502=ORIENTED_EDGE('',*,*,#347,.T.);
#503=ORIENTED_EDGE('',*,*,#351,.T.);
#504=ORIENTED_EDGE('',*,*,#368,.T.);
#505=ORIENTED_EDGE('',*,*,#312,.T.);
#506=ORIENTED_EDGE('',*,*,#369,.T.);
#507=ORIENTED_EDGE('',*,*,#358,.F.);
#508=ORIENTED_EDGE('',*,*,#313,.T.);
#509=ORIENTED_EDGE('',*,*,#368,.F.);
#510=ORIENTED_EDGE('',*,*,#350,.T.);
#511=ORIENTED_EDGE('',*,*,#324,.T.);
#512=ORIENTED_EDGE('',*,*,#370,.T.);
#513=ORIENTED_EDGE('',*,*,#339,.T.);
#514=ORIENTED_EDGE('',*,*,#371,.T.);
#515=ORIENTED_EDGE('',*,*,#361,.F.);
#516=ORIENTED_EDGE('',*,*,#340,.T.);
#517=ORIENTED_EDGE('',*,*,#370,.F.);
#518=ORIENTED_EDGE('',*,*,#323,.T.);
#519=ORIENTED_EDGE('',*,*,#371,.F.);
#520=ORIENTED_EDGE('',*,*,#338,.F.);
#521=ORIENTED_EDGE('',*,*,#372,.F.);
#522=ORIENTED_EDGE('',*,*,#325,.F.);
#523=ORIENTED_EDGE('',*,*,#373,.F.);
#524=ORIENTED_EDGE('',*,*,#326,.F.);
#525=ORIENTED_EDGE('',*,*,#372,.T.);
#526=ORIENTED_EDGE('',*,*,#337,.F.);
#527=ORIENTED_EDGE('',*,*,#357,.F.);
#528=ORIENTED_EDGE('',*,*,#353,.F.);
#529=ORIENTED_EDGE('',*,*,#374,.T.);
#530=ORIENTED_EDGE('',*,*,#310,.F.);
#531=ORIENTED_EDGE('',*,*,#369,.F.);
#532=ORIENTED_EDGE('',*,*,#311,.F.);
#533=ORIENTED_EDGE('',*,*,#374,.F.);
#534=ORIENTED_EDGE('',*,*,#352,.F.);
#535=ORIENTED_EDGE('',*,*,#365,.F.);
#536=ORIENTED_EDGE('',*,*,#318,.F.);
#537=ORIENTED_EDGE('',*,*,#367,.F.);
#538=ORIENTED_EDGE('',*,*,#345,.T.);
#539=ORIENTED_EDGE('',*,*,#332,.F.);
#540=ORIENTED_EDGE('',*,*,#327,.T.);
#541=ORIENTED_EDGE('',*,*,#373,.T.);
#542=ORIENTED_EDGE('',*,*,#336,.T.);
#543=PLANE('',#597);
#544=PLANE('',#598);
#545=PLANE('',#599);
#546=PLANE('',#600);
#547=PLANE('',#601);
#548=PLANE('',#602);
#549=PLANE('',#611);
#550=PLANE('',#612);
#551=PLANE('',#613);
#552=PLANE('',#614);
#553=PLANE('',#623);
#554=PLANE('',#624);
#555=PLANE('',#626);
#556=PLANE('',#628);
#557=PLANE('',#632);
#558=PLANE('',#634);
#559=PLANE('',#635);
#560=PLANE('',#636);
#561=PLANE('',#637);
#562=PLANE('',#638);
#563=PLANE('',#639);
#564=PLANE('',#640);
#565=ADVANCED_FACE('',(#39),#543,.T.);
#566=ADVANCED_FACE('',(#40),#544,.F.);
#567=ADVANCED_FACE('',(#41),#545,.T.);
#568=ADVANCED_FACE('',(#42),#546,.F.);
#569=ADVANCED_FACE('',(#43),#547,.T.);
#570=ADVANCED_FACE('',(#44),#548,.T.);
#571=ADVANCED_FACE('',(#45),#549,.F.);
#572=ADVANCED_FACE('',(#46),#550,.T.);
#573=ADVANCED_FACE('',(#47),#551,.F.);
#574=ADVANCED_FACE('',(#48),#552,.T.);
#575=ADVANCED_FACE('',(#49),#553,.T.);
#576=ADVANCED_FACE('',(#50),#554,.T.);
#577=ADVANCED_FACE('',(#51),#17,.T.);
#578=ADVANCED_FACE('',(#52),#555,.T.);
#579=ADVANCED_FACE('',(#53),#18,.T.);
#580=ADVANCED_FACE('',(#54),#556,.T.);
#581=ADVANCED_FACE('',(#55),#19,.F.);
#582=ADVANCED_FACE('',(#56),#15,.F.);
#583=ADVANCED_FACE('',(#57),#20,.F.);
#584=ADVANCED_FACE('',(#58),#16,.F.);
#585=ADVANCED_FACE('',(#59),#21,.F.);
#586=ADVANCED_FACE('',(#60),#557,.F.);
#587=ADVANCED_FACE('',(#61),#22,.F.);
#588=ADVANCED_FACE('',(#62),#558,.F.);
#589=ADVANCED_FACE('',(#63),#559,.F.);
#590=ADVANCED_FACE('',(#64),#560,.F.);
#591=ADVANCED_FACE('',(#65),#561,.F.);
#592=ADVANCED_FACE('',(#66),#562,.F.);
#593=ADVANCED_FACE('',(#67),#563,.T.);
#594=ADVANCED_FACE('',(#68),#564,.T.);
#595=CLOSED_SHELL('',(#565,#566,#567,#568,#569,#570,#571,#572,#573,#574,
#575,#576,#577,#578,#579,#580,#581,#582,#583,#584,#585,#586,#587,#588,#589,
#590,#591,#592,#593,#594));
#596=AXIS2_PLACEMENT_3D('',#799,#641,#642);
#597=AXIS2_PLACEMENT_3D('',#800,#643,#644);
#598=AXIS2_PLACEMENT_3D('',#809,#649,#650);
#599=AXIS2_PLACEMENT_3D('',#815,#654,#655);
#600=AXIS2_PLACEMENT_3D('',#824,#660,#661);
#601=AXIS2_PLACEMENT_3D('',#830,#665,#666);
#602=AXIS2_PLACEMENT_3D('',#833,#669,#670);
#603=AXIS2_PLACEMENT_3D('',#845,#676,#677);
#604=AXIS2_PLACEMENT_3D('',#849,#679,#680);
#605=AXIS2_PLACEMENT_3D('',#853,#682,#683);
#606=AXIS2_PLACEMENT_3D('',#855,#684,#685);
#607=AXIS2_PLACEMENT_3D('',#859,#687,#688);
#608=AXIS2_PLACEMENT_3D('',#861,#689,#690);
#609=AXIS2_PLACEMENT_3D('',#865,#692,#693);
#610=AXIS2_PLACEMENT_3D('',#869,#695,#696);
#611=AXIS2_PLACEMENT_3D('',#879,#702,#703);
#612=AXIS2_PLACEMENT_3D('',#883,#706,#707);
#613=AXIS2_PLACEMENT_3D('',#889,#711,#712);
#614=AXIS2_PLACEMENT_3D('',#891,#714,#715);
#615=AXIS2_PLACEMENT_3D('',#899,#719,#720);
#616=AXIS2_PLACEMENT_3D('',#903,#722,#723);
#617=AXIS2_PLACEMENT_3D('',#907,#725,#726);
#618=AXIS2_PLACEMENT_3D('',#909,#727,#728);
#619=AXIS2_PLACEMENT_3D('',#913,#730,#731);
#620=AXIS2_PLACEMENT_3D('',#915,#732,#733);
#621=AXIS2_PLACEMENT_3D('',#919,#735,#736);
#622=AXIS2_PLACEMENT_3D('',#923,#738,#739);
#623=AXIS2_PLACEMENT_3D('',#931,#744,#745);
#624=AXIS2_PLACEMENT_3D('',#933,#747,#748);
#625=AXIS2_PLACEMENT_3D('',#935,#750,#751);
#626=AXIS2_PLACEMENT_3D('',#938,#754,#755);
#627=AXIS2_PLACEMENT_3D('',#940,#757,#758);
#628=AXIS2_PLACEMENT_3D('',#943,#761,#762);
#629=AXIS2_PLACEMENT_3D('',#945,#764,#765);
#630=AXIS2_PLACEMENT_3D('',#958,#768,#769);
#631=AXIS2_PLACEMENT_3D('',#971,#772,#773);
#632=AXIS2_PLACEMENT_3D('',#974,#776,#777);
#633=AXIS2_PLACEMENT_3D('',#975,#778,#779);
#634=AXIS2_PLACEMENT_3D('',#978,#782,#783);
#635=AXIS2_PLACEMENT_3D('',#979,#784,#785);
#636=AXIS2_PLACEMENT_3D('',#981,#787,#788);
#637=AXIS2_PLACEMENT_3D('',#983,#790,#791);
#638=AXIS2_PLACEMENT_3D('',#985,#793,#794);
#639=AXIS2_PLACEMENT_3D('',#986,#795,#796);
#640=AXIS2_PLACEMENT_3D('',#987,#797,#798);
#641=DIRECTION('axis',(0.,0.,1.));
#642=DIRECTION('refdir',(1.,0.,0.));
#643=DIRECTION('center_axis',(0.766044443118977,-0.64278760968654,0.));
#644=DIRECTION('ref_axis',(0.,0.,-1.));
#645=DIRECTION('',(-0.64278760968654,-0.766044443118977,0.));
#646=DIRECTION('',(0.,0.,-1.));
#647=DIRECTION('',(0.64278760968654,0.766044443118977,-2.41093785208704E-17));
#648=DIRECTION('',(0.,0.,1.));
#649=DIRECTION('center_axis',(-0.984807753012208,-0.17364817766693,0.));
#650=DIRECTION('ref_axis',(0.,0.,1.));
#651=DIRECTION('',(-0.17364817766693,0.984807753012208,0.));
#652=DIRECTION('',(0.,0.,1.));
#653=DIRECTION('',(0.17364817766693,-0.984807753012208,-6.51311503479817E-18));
#654=DIRECTION('center_axis',(-0.766044443118977,-0.64278760968654,0.));
#655=DIRECTION('ref_axis',(0.,0.,1.));
#656=DIRECTION('',(0.64278760968654,-0.766044443118977,-2.41093785208704E-17));
#657=DIRECTION('',(0.,0.,1.));
#658=DIRECTION('',(-0.64278760968654,0.766044443118977,0.));
#659=DIRECTION('',(0.,0.,-1.));
#660=DIRECTION('center_axis',(0.984807753012208,-0.17364817766693,0.));
#661=DIRECTION('ref_axis',(0.,0.,-1.));
#662=DIRECTION('',(0.17364817766693,0.984807753012208,-6.51311503479817E-18));
#663=DIRECTION('',(0.,0.,-1.));
#664=DIRECTION('',(-0.17364817766693,-0.984807753012208,0.));
#665=DIRECTION('center_axis',(0.,-1.,0.));
#666=DIRECTION('ref_axis',(1.,0.,0.));
#667=DIRECTION('',(-1.,0.,3.75075346157147E-17));
#668=DIRECTION('',(1.,0.,0.));
#669=DIRECTION('center_axis',(0.,0.,1.));
#670=DIRECTION('ref_axis',(1.,0.,0.));
#671=DIRECTION('',(-1.,0.,0.));
#672=DIRECTION('',(-0.819152044288994,-0.573576436351043,0.));
#673=DIRECTION('',(-0.17364817766693,-0.984807753012208,0.));
#674=DIRECTION('',(-0.866025403784439,-0.5,0.));
#675=DIRECTION('',(0.,1.,0.));
#676=DIRECTION('center_axis',(0.,0.,1.));
#677=DIRECTION('ref_axis',(-0.707106781186555,0.70710678118654,0.));
#678=DIRECTION('',(-1.,0.,0.));
#679=DIRECTION('center_axis',(0.,0.,-1.));
#680=DIRECTION('ref_axis',(0.707106781186554,-0.707106781186541,0.));
#681=DIRECTION('',(0.,-1.,0.));
#682=DIRECTION('center_axis',(0.,0.,-1.));
#683=DIRECTION('ref_axis',(2.51534904016637E-17,1.,0.));
#684=DIRECTION('center_axis',(0.,0.,1.));
#685=DIRECTION('ref_axis',(0.702727376814567,-0.711459228540412,0.));
#686=DIRECTION('',(-1.,0.,0.));
#687=DIRECTION('center_axis',(0.,0.,1.));
#688=DIRECTION('ref_axis',(-0.702727376814565,-0.711459228540414,0.));
#689=DIRECTION('center_axis',(0.,0.,-1.));
#690=DIRECTION('ref_axis',(-7.45591220208664E-18,-1.,0.));
#691=DIRECTION('',(0.,-1.,0.));
#692=DIRECTION('center_axis',(0.,0.,-1.));
#693=DIRECTION('ref_axis',(-0.707106781186555,-0.70710678118654,0.));
#694=DIRECTION('',(-1.,0.,0.));
#695=DIRECTION('center_axis',(0.,0.,1.));
#696=DIRECTION('ref_axis',(0.707106781186563,0.707106781186532,0.));
#697=DIRECTION('',(0.,-1.,0.));
#698=DIRECTION('',(-0.766044443118978,0.642787609686539,0.));
#699=DIRECTION('',(-0.17364817766693,0.984807753012208,0.));
#700=DIRECTION('',(-0.81915204428899,0.573576436351049,0.));
#701=DIRECTION('',(-1.,0.,0.));
#702=DIRECTION('center_axis',(0.,1.,0.));
#703=DIRECTION('ref_axis',(-1.,0.,0.));
#704=DIRECTION('',(1.,0.,-3.75075346157147E-17));
#705=DIRECTION('',(0.,0.,-1.));
#706=DIRECTION('center_axis',(-0.573576436351049,-0.81915204428899,0.));
#707=DIRECTION('ref_axis',(0.,0.,1.));
#708=DIRECTION('',(0.,0.,-1.));
#709=DIRECTION('',(0.81915204428899,-0.573576436351049,-3.07243736567028E-17));
#710=DIRECTION('',(0.,0.,1.));
#711=DIRECTION('center_axis',(0.,1.,0.));
#712=DIRECTION('ref_axis',(-1.,0.,0.));
#713=DIRECTION('',(1.,0.,-3.75075346157147E-17));
#714=DIRECTION('center_axis',(-3.75075346157147E-17,0.,-1.));
#715=DIRECTION('ref_axis',(-1.,0.,3.75075346157147E-17));
#716=DIRECTION('',(0.17364817766693,-0.984807753012208,-6.51311503479817E-18));
#717=DIRECTION('',(0.766044443118978,-0.642787609686539,-2.8732438467461E-17));
#718=DIRECTION('',(0.,1.,0.));
#719=DIRECTION('center_axis',(-3.75075346157147E-17,0.,-1.));
#720=DIRECTION('ref_axis',(0.707106781186563,0.707106781186532,0.));
#721=DIRECTION('',(1.,0.,0.));
#722=DIRECTION('center_axis',(3.75075346157147E-17,0.,1.));
#723=DIRECTION('ref_axis',(-0.707106781186555,-0.70710678118654,0.));
#724=DIRECTION('',(0.,-1.,0.));
#725=DIRECTION('center_axis',(3.75075346157147E-17,0.,1.));
#726=DIRECTION('ref_axis',(-7.45591220208664E-18,-1.,0.));
#727=DIRECTION('center_axis',(-3.75075346157147E-17,0.,-1.));
#728=DIRECTION('ref_axis',(-0.702727376814565,-0.711459228540414,0.));
#729=DIRECTION('',(-1.,0.,3.75075346157147E-17));
#730=DIRECTION('center_axis',(-3.75075346157147E-17,0.,-1.));
#731=DIRECTION('ref_axis',(0.702727376814567,-0.711459228540412,0.));
#732=DIRECTION('center_axis',(3.75075346157147E-17,0.,1.));
#733=DIRECTION('ref_axis',(2.51534904016637E-17,1.,0.));
#734=DIRECTION('',(0.,-1.,0.));
#735=DIRECTION('center_axis',(3.75075346157147E-17,0.,1.));
#736=DIRECTION('ref_axis',(0.707106781186554,-0.707106781186541,0.));
#737=DIRECTION('',(1.,0.,0.));
#738=DIRECTION('center_axis',(-3.75075346157147E-17,0.,-1.));
#739=DIRECTION('ref_axis',(-0.707106781186555,0.70710678118654,0.));
#740=DIRECTION('',(0.,-1.,0.));
#741=DIRECTION('',(0.866025403784439,0.5,-3.24824778105332E-17));
#742=DIRECTION('',(0.17364817766693,0.984807753012208,-6.51311503479818E-18));
#743=DIRECTION('',(0.819152044288994,0.573576436351043,-3.0724373656703E-17));
#744=DIRECTION('center_axis',(0.573576436351043,-0.819152044288994,0.));
#745=DIRECTION('ref_axis',(0.,0.,-1.));
#746=DIRECTION('',(0.,0.,1.));
#747=DIRECTION('center_axis',(0.984807753012208,-0.17364817766693,0.));
#748=DIRECTION('ref_axis',(0.,0.,-1.));
#749=DIRECTION('',(0.,0.,1.));
#750=DIRECTION('center_axis',(0.,0.,1.));
#751=DIRECTION('ref_axis',(0.707106781186554,-0.707106781186541,0.));
#752=DIRECTION('',(0.,0.,-1.));
#753=DIRECTION('',(0.,0.,1.));
#754=DIRECTION('center_axis',(1.,0.,0.));
#755=DIRECTION('ref_axis',(0.,0.,1.));
#756=DIRECTION('',(0.,0.,1.));
#757=DIRECTION('center_axis',(6.00120553851436E-16,0.,-1.));
#758=DIRECTION('ref_axis',(-0.707106781186555,-0.70710678118654,0.));
#759=DIRECTION('',(-6.00120553851436E-16,0.,1.));
#760=DIRECTION('',(6.00120553851436E-16,0.,-1.));
#761=DIRECTION('center_axis',(-1.,0.,-6.00120553851436E-16));
#762=DIRECTION('ref_axis',(6.00120553851436E-16,0.,-1.));
#763=DIRECTION('',(6.00120553851436E-16,0.,-1.));
#764=DIRECTION('center_axis',(0.,0.,1.));
#765=DIRECTION('ref_axis',(-0.702727376814565,-0.711459228540414,0.));
#766=DIRECTION('',(0.,0.,1.));
#767=DIRECTION('',(0.,0.,-1.));
#768=DIRECTION('center_axis',(0.,0.,-1.));
#769=DIRECTION('ref_axis',(0.702727376814567,-0.711459228540412,0.));
#770=DIRECTION('',(0.,0.,-1.));
#771=DIRECTION('',(0.,0.,1.));
#772=DIRECTION('center_axis',(0.,0.,1.));
#773=DIRECTION('ref_axis',(-0.707106781186555,0.70710678118654,0.));
#774=DIRECTION('',(0.,0.,1.));
#775=DIRECTION('',(0.,0.,-1.));
#776=DIRECTION('center_axis',(0.,1.,0.));
#777=DIRECTION('ref_axis',(0.,0.,1.));
#778=DIRECTION('center_axis',(0.,0.,-1.));
#779=DIRECTION('ref_axis',(0.707106781186563,0.707106781186532,0.));
#780=DIRECTION('',(0.,0.,-1.));
#781=DIRECTION('',(0.,0.,1.));
#782=DIRECTION('center_axis',(0.,1.,0.));
#783=DIRECTION('ref_axis',(0.,0.,1.));
#784=DIRECTION('center_axis',(1.,0.,0.));
#785=DIRECTION('ref_axis',(0.,0.,-1.));
#786=DIRECTION('',(0.,0.,-1.));
#787=DIRECTION('center_axis',(-0.642787609686539,-0.766044443118978,0.));
#788=DIRECTION('ref_axis',(0.,0.,-1.));
#789=DIRECTION('',(0.,0.,-1.));
#790=DIRECTION('center_axis',(0.5,-0.866025403784439,0.));
#791=DIRECTION('ref_axis',(0.,0.,1.));
#792=DIRECTION('',(0.,0.,1.));
#793=DIRECTION('center_axis',(-1.,0.,0.));
#794=DIRECTION('ref_axis',(0.,0.,1.));
#795=DIRECTION('center_axis',(0.,1.,0.));
#796=DIRECTION('ref_axis',(0.,0.,1.));
#797=DIRECTION('center_axis',(-0.984807753012208,-0.17364817766693,0.));
#798=DIRECTION('ref_axis',(0.,0.,1.));
#799=CARTESIAN_POINT('',(0.,0.,0.));
#800=CARTESIAN_POINT('Origin',(1.53680853423993,7.82337661092011,0.51));
#801=CARTESIAN_POINT('',(1.54920381157492,7.83814872721529,0.695));
#802=CARTESIAN_POINT('',(1.52441325690493,7.80860449462492,0.695));
#803=CARTESIAN_POINT('',(1.35516484155585,7.60690208759179,0.695));
#804=CARTESIAN_POINT('',(1.52441325690493,7.80860449462492,-0.045));
#805=CARTESIAN_POINT('',(1.52441325690493,7.80860449462492,0.51));
#806=CARTESIAN_POINT('',(1.54920381157492,7.83814872721529,-0.045));
#807=CARTESIAN_POINT('',(1.50803992868747,7.78909152189904,-0.045));
#808=CARTESIAN_POINT('',(1.54920381157492,7.83814872721529,0.51));
#809=CARTESIAN_POINT('Origin',(1.625,7.23814872721529,0.695));
#810=CARTESIAN_POINT('',(1.625,7.23814872721529,0.695));
#811=CARTESIAN_POINT('',(1.62092925190305,7.26123508688977,0.695));
#812=CARTESIAN_POINT('',(1.625,7.23814872721529,-0.0449999999999999));
#813=CARTESIAN_POINT('',(1.625,7.23814872721529,0.51));
#814=CARTESIAN_POINT('',(1.63208611705766,7.19796136037453,-0.045));
#815=CARTESIAN_POINT('Origin',(1.91319146576008,7.82337661092011,0.14));
#816=CARTESIAN_POINT('',(1.90079618842508,7.83814872721529,-0.045));
#817=CARTESIAN_POINT('',(1.92558674309507,7.80860449462492,-0.045));
#818=CARTESIAN_POINT('',(2.09483515844415,7.60690208759178,-0.045));
#819=CARTESIAN_POINT('',(1.92558674309507,7.80860449462492,0.695));
#820=CARTESIAN_POINT('',(1.92558674309507,7.80860449462492,0.14));
#821=CARTESIAN_POINT('',(1.90079618842508,7.83814872721529,0.695));
#822=CARTESIAN_POINT('',(1.94196007131253,7.78909152189904,0.695));
#823=CARTESIAN_POINT('',(1.90079618842508,7.83814872721529,0.14));
#824=CARTESIAN_POINT('Origin',(1.825,7.23814872721529,-0.0449999999999999));
#825=CARTESIAN_POINT('',(1.825,7.23814872721529,-0.0449999999999999));
#826=CARTESIAN_POINT('',(1.82907074809695,7.26123508688977,-0.045));
#827=CARTESIAN_POINT('',(1.825,7.23814872721529,0.695));
#828=CARTESIAN_POINT('',(1.825,7.23814872721529,0.14));
#829=CARTESIAN_POINT('',(1.81791388294234,7.19796136037453,0.695));
#830=CARTESIAN_POINT('Origin',(1.725,7.83814872721529,0.325));
#831=CARTESIAN_POINT('',(1.91,7.83814872721529,-0.045));
#832=CARTESIAN_POINT('',(1.54,7.83814872721529,0.695));
#833=CARTESIAN_POINT('Origin',(1.355,7.23814872721529,0.695));
#834=CARTESIAN_POINT('',(2.07034393896357,7.23814872721529,0.695));
#835=CARTESIAN_POINT('',(2.095,7.23814872721529,0.695));
#836=CARTESIAN_POINT('',(2.09847296355334,7.25784488227554,0.695));
#837=CARTESIAN_POINT('',(1.83737470123725,7.07502191078835,0.695));
#838=CARTESIAN_POINT('',(2.15200111976793,7.56141814145298,0.695));
#839=CARTESIAN_POINT('',(2.09384313484539,7.23158781889622,0.695));
#840=CARTESIAN_POINT('',(1.985,7.465,0.695));
#841=CARTESIAN_POINT('',(1.76458716400574,7.33774458980586,0.695));
#842=CARTESIAN_POINT('',(1.985,7.745,0.695));
#843=CARTESIAN_POINT('',(1.985,7.23814872721529,0.695));
#844=CARTESIAN_POINT('',(2.005,7.765,0.695));
#845=CARTESIAN_POINT('Origin',(2.005,7.745,0.695));
#846=CARTESIAN_POINT('',(5.225,7.765,0.695));
#847=CARTESIAN_POINT('',(3.525,7.765,0.695));
#848=CARTESIAN_POINT('',(5.325,7.865,0.695));
#849=CARTESIAN_POINT('Origin',(5.225,7.865,0.695));
#850=CARTESIAN_POINT('',(5.325,8.23814872721529,0.695));
#851=CARTESIAN_POINT('',(5.325,8.23814872721529,0.695));
#852=CARTESIAN_POINT('',(3.3253048763339,8.28753130382776,0.695));
#853=CARTESIAN_POINT('Origin',(4.325,8.23814872721529,0.695));
#854=CARTESIAN_POINT('',(3.27530868859563,8.23814872721529,0.695));
#855=CARTESIAN_POINT('Origin',(3.27530868859563,8.28814872721529,0.695));
#856=CARTESIAN_POINT('',(0.174691311404372,8.23814872721529,0.695));
#857=CARTESIAN_POINT('',(5.325,8.23814872721529,0.695));
#858=CARTESIAN_POINT('',(0.1246951236661,8.28753130382776,0.695));
#859=CARTESIAN_POINT('Origin',(0.174691311404372,8.28814872721529,0.695));
#860=CARTESIAN_POINT('',(-1.875,8.23814872721529,0.695));
#861=CARTESIAN_POINT('Origin',(-0.875,8.23814872721529,0.695));
#862=CARTESIAN_POINT('',(-1.875,7.865,0.695));
#863=CARTESIAN_POINT('',(-1.875,8.23814872721529,0.695));
#864=CARTESIAN_POINT('',(-1.775,7.765,0.695));
#865=CARTESIAN_POINT('Origin',(-1.775,7.865,0.694999999999998));
#866=CARTESIAN_POINT('',(1.445,7.765,0.695));
#867=CARTESIAN_POINT('',(1.595,7.765,0.695));
#868=CARTESIAN_POINT('',(1.465,7.745,0.695));
#869=CARTESIAN_POINT('Origin',(1.445,7.745,0.695));
#870=CARTESIAN_POINT('',(1.465,7.465,0.695));
#871=CARTESIAN_POINT('',(1.465,7.23814872721529,0.695));
#872=CARTESIAN_POINT('',(1.28895277334996,7.61272116295183,0.695));
#873=CARTESIAN_POINT('',(1.431122564935,7.49342654326827,0.695));
#874=CARTESIAN_POINT('',(1.35152703644666,7.25784488227554,0.695));
#875=CARTESIAN_POINT('',(1.345,7.29486154541147,0.695));
#876=CARTESIAN_POINT('',(1.37965606103643,7.23814872721529,0.695));
#877=CARTESIAN_POINT('',(1.3643515722475,7.24886504563375,0.695));
#878=CARTESIAN_POINT('',(2.095,7.23814872721529,0.695));
#879=CARTESIAN_POINT('Origin',(1.725,7.23814872721529,0.325));
#880=CARTESIAN_POINT('',(2.07034393896357,7.23814872721529,-0.045));
#881=CARTESIAN_POINT('',(1.355,7.23814872721529,-0.045));
#882=CARTESIAN_POINT('',(2.07034393896357,7.23814872721529,0.4175));
#883=CARTESIAN_POINT('Origin',(1.36559154874155,7.24799680474541,0.2325));
#884=CARTESIAN_POINT('',(1.35152703644666,7.25784488227554,-0.045));
#885=CARTESIAN_POINT('',(1.35152703644666,7.25784488227554,0.2325));
#886=CARTESIAN_POINT('',(1.37965606103643,7.23814872721529,-0.045));
#887=CARTESIAN_POINT('',(1.61262529876275,7.07502191078835,-0.045));
#888=CARTESIAN_POINT('',(1.37965606103643,7.23814872721529,0.2325));
#889=CARTESIAN_POINT('Origin',(1.725,7.23814872721529,0.325));
#890=CARTESIAN_POINT('',(1.355,7.23814872721529,-0.045));
#891=CARTESIAN_POINT('Origin',(2.095,7.23814872721529,-0.045));
#892=CARTESIAN_POINT('',(1.28895277334996,7.61272116295183,-0.045));
#893=CARTESIAN_POINT('',(1.35615686515461,7.23158781889622,-0.045));
#894=CARTESIAN_POINT('',(1.465,7.465,-0.0449999999999999));
#895=CARTESIAN_POINT('',(1.64824747780339,7.31123710896101,-0.045));
#896=CARTESIAN_POINT('',(1.465,7.745,-0.045));
#897=CARTESIAN_POINT('',(1.465,7.23814872721529,-0.045));
#898=CARTESIAN_POINT('',(1.445,7.765,-0.0449999999999999));
#899=CARTESIAN_POINT('Origin',(1.445,7.745,-0.045));
#900=CARTESIAN_POINT('',(-1.775,7.765,-0.0449999999999999));
#901=CARTESIAN_POINT('',(-0.0749999999999995,7.765,-0.0449999999999999));
#902=CARTESIAN_POINT('',(-1.875,7.865,-0.0449999999999999));
#903=CARTESIAN_POINT('Origin',(-1.775,7.865,-0.0450000000000023));
#904=CARTESIAN_POINT('',(-1.875,8.23814872721529,-0.0449999999999999));
#905=CARTESIAN_POINT('',(-1.875,8.23814872721529,-0.0449999999999999));
#906=CARTESIAN_POINT('',(0.1246951236661,8.28753130382776,-0.045));
#907=CARTESIAN_POINT('Origin',(-0.875,8.23814872721529,-0.0449999999999999));
#908=CARTESIAN_POINT('',(0.174691311404372,8.23814872721529,-0.0449999999999999));
#909=CARTESIAN_POINT('Origin',(0.174691311404372,8.28814872721529,-0.0449999999999999));
#910=CARTESIAN_POINT('',(3.27530868859563,8.23814872721529,-0.045));
#911=CARTESIAN_POINT('',(1.355,8.23814872721529,-0.045));
#912=CARTESIAN_POINT('',(3.3253048763339,8.28753130382776,-0.0449999999999999));
#913=CARTESIAN_POINT('Origin',(3.27530868859563,8.28814872721529,-0.0449999999999999));
#914=CARTESIAN_POINT('',(5.325,8.23814872721529,-0.0449999999999999));
#915=CARTESIAN_POINT('Origin',(4.325,8.23814872721529,-0.0449999999999999));
#916=CARTESIAN_POINT('',(5.325,7.865,-0.0449999999999999));
#917=CARTESIAN_POINT('',(5.325,8.23814872721529,-0.0449999999999999));
#918=CARTESIAN_POINT('',(5.225,7.765,-0.0449999999999999));
#919=CARTESIAN_POINT('Origin',(5.225,7.865,-0.045));
#920=CARTESIAN_POINT('',(2.005,7.765,-0.0449999999999999));
#921=CARTESIAN_POINT('',(1.855,7.765,-0.0449999999999999));
#922=CARTESIAN_POINT('',(1.985,7.745,-0.045));
#923=CARTESIAN_POINT('Origin',(2.005,7.745,-0.0449999999999999));
#924=CARTESIAN_POINT('',(1.985,7.465,-0.045));
#925=CARTESIAN_POINT('',(1.985,7.23814872721529,-0.045));
#926=CARTESIAN_POINT('',(2.15200111976793,7.56141814145298,-0.045));
#927=CARTESIAN_POINT('',(2.04208716400574,7.49795928950598,-0.045));
#928=CARTESIAN_POINT('',(2.09847296355334,7.25784488227554,-0.045));
#929=CARTESIAN_POINT('',(2.105,7.29486154541147,-0.045));
#930=CARTESIAN_POINT('',(2.0856484277525,7.24886504563375,-0.0449999999999999));
#931=CARTESIAN_POINT('Origin',(2.08440845125845,7.24799680474541,0.4175));
#932=CARTESIAN_POINT('',(2.09847296355334,7.25784488227554,0.4175));
#933=CARTESIAN_POINT('Origin',(2.115,7.35157436360765,0.51));
#934=CARTESIAN_POINT('',(2.15200111976793,7.56141814145298,0.2325));
#935=CARTESIAN_POINT('Origin',(5.225,7.865,0.14));
#936=CARTESIAN_POINT('',(5.225,7.765,0.14));
#937=CARTESIAN_POINT('',(5.325,7.865,0.14));
#938=CARTESIAN_POINT('Origin',(5.325,8.23814872721529,-0.0449999999999999));
#939=CARTESIAN_POINT('',(5.325,8.23814872721529,-0.0449999999999999));
#940=CARTESIAN_POINT('Origin',(-1.775,7.865,0.509999999999999));
#941=CARTESIAN_POINT('',(-1.775,7.765,0.509999999999999));
#942=CARTESIAN_POINT('',(-1.875,7.865,0.509999999999999));
#943=CARTESIAN_POINT('Origin',(-1.875,8.23814872721529,0.695));
#944=CARTESIAN_POINT('',(-1.875,8.23814872721529,0.695));
#945=CARTESIAN_POINT('Origin',(0.174691311404372,8.28814872721529,0.695));
#946=CARTESIAN_POINT('',(0.1246951236661,8.28753130382776,0.695));
#947=CARTESIAN_POINT('',(0.174691311404372,8.23814872721529,0.695));
#948=CARTESIAN_POINT('Ctrl Pts',(-1.875,8.23814872721529,0.695));
#949=CARTESIAN_POINT('Ctrl Pts',(-1.875,10.2136061300377,0.695));
#950=CARTESIAN_POINT('Ctrl Pts',(-0.887346585234393,10.2379962832386,0.695));
#951=CARTESIAN_POINT('Ctrl Pts',(0.100306829531214,10.2623864364394,0.695));
#952=CARTESIAN_POINT('Ctrl Pts',(0.1246951236661,8.28753130382776,0.695));
#953=CARTESIAN_POINT('Ctrl Pts',(-1.875,8.23814872721529,-0.0449999999999999));
#954=CARTESIAN_POINT('Ctrl Pts',(-1.875,10.2136061300377,-0.0449999999999999));
#955=CARTESIAN_POINT('Ctrl Pts',(-0.887346585234393,10.2379962832386,-0.0449999999999999));
#956=CARTESIAN_POINT('Ctrl Pts',(0.100306829531214,10.2623864364394,-0.0449999999999999));
#957=CARTESIAN_POINT('Ctrl Pts',(0.1246951236661,8.28753130382776,-0.0449999999999999));
#958=CARTESIAN_POINT('Origin',(3.27530868859563,8.28814872721529,0.695));
#959=CARTESIAN_POINT('',(3.3253048763339,8.28753130382776,0.695));
#960=CARTESIAN_POINT('',(3.27530868859563,8.23814872721529,0.695));
#961=CARTESIAN_POINT('Ctrl Pts',(3.3253048763339,8.28753130382776,0.695));
#962=CARTESIAN_POINT('Ctrl Pts',(3.34969317046879,10.2623864364394,0.695));
#963=CARTESIAN_POINT('Ctrl Pts',(4.33734658523439,10.2379962832386,0.695));
#964=CARTESIAN_POINT('Ctrl Pts',(5.325,10.2136061300377,0.695));
#965=CARTESIAN_POINT('Ctrl Pts',(5.325,8.23814872721529,0.695));
#966=CARTESIAN_POINT('Ctrl Pts',(3.3253048763339,8.28753130382776,-0.0449999999999999));
#967=CARTESIAN_POINT('Ctrl Pts',(3.34969317046879,10.2623864364394,-0.0449999999999999));
#968=CARTESIAN_POINT('Ctrl Pts',(4.33734658523439,10.2379962832386,-0.0449999999999999));
#969=CARTESIAN_POINT('Ctrl Pts',(5.325,10.2136061300377,-0.0449999999999999));
#970=CARTESIAN_POINT('Ctrl Pts',(5.325,8.23814872721529,-0.0449999999999999));
#971=CARTESIAN_POINT('Origin',(2.005,7.745,0.51));
#972=CARTESIAN_POINT('',(2.005,7.765,0.51));
#973=CARTESIAN_POINT('',(1.985,7.745,0.51));
#974=CARTESIAN_POINT('Origin',(1.725,7.765,0.325));
#975=CARTESIAN_POINT('Origin',(1.445,7.745,0.14));
#976=CARTESIAN_POINT('',(1.445,7.765,0.14));
#977=CARTESIAN_POINT('',(1.465,7.745,0.14));
#978=CARTESIAN_POINT('Origin',(1.725,7.765,0.325));
#979=CARTESIAN_POINT('Origin',(1.465,7.23814872721529,-0.0449999999999999));
#980=CARTESIAN_POINT('',(1.465,7.465,0.14));
#981=CARTESIAN_POINT('Origin',(1.35009333353215,7.56141814145298,0.695));
#982=CARTESIAN_POINT('',(1.28895277334996,7.61272116295183,0.4175));
#983=CARTESIAN_POINT('Origin',(2.11490381056767,7.54,-0.0449999999999999));
#984=CARTESIAN_POINT('',(1.985,7.465,0.51));
#985=CARTESIAN_POINT('Origin',(1.985,7.23814872721529,0.695));
#986=CARTESIAN_POINT('Origin',(1.725,8.23814872721529,0.325));
#987=CARTESIAN_POINT('Origin',(1.335,7.35157436360765,0.14));
#988=UNCERTAINTY_MEASURE_WITH_UNIT(LENGTH_MEASURE(0.001),#992,
'DISTANCE_ACCURACY_VALUE',
'Maximum model space distance between geometric entities at asserted c
onnectivities');
#989=UNCERTAINTY_MEASURE_WITH_UNIT(LENGTH_MEASURE(0.001),#992,
'DISTANCE_ACCURACY_VALUE',
'Maximum model space distance between geometric entities at asserted c
onnectivities');
#990=(
GEOMETRIC_REPRESENTATION_CONTEXT(3)
GLOBAL_UNCERTAINTY_ASSIGNED_CONTEXT((#988))
GLOBAL_UNIT_ASSIGNED_CONTEXT((#992,#993,#994))
REPRESENTATION_CONTEXT('','3D')
);
#991=(
GEOMETRIC_REPRESENTATION_CONTEXT(3)
GLOBAL_UNCERTAINTY_ASSIGNED_CONTEXT((#989))
GLOBAL_UNIT_ASSIGNED_CONTEXT((#992,#993,#994))
REPRESENTATION_CONTEXT('','3D')
);
#992=(
LENGTH_UNIT()
NAMED_UNIT(*)
SI_UNIT(.CENTI.,.METRE.)
);
#993=(
NAMED_UNIT(*)
PLANE_ANGLE_UNIT()
SI_UNIT($,.RADIAN.)
);
#994=(
NAMED_UNIT(*)
SI_UNIT($,.STERADIAN.)
SOLID_ANGLE_UNIT()
);
#995=SHAPE_DEFINITION_REPRESENTATION(#996,#997);
#996=PRODUCT_DEFINITION_SHAPE('',$,#999);
#997=SHAPE_REPRESENTATION('',(#596),#990);
#998=PRODUCT_DEFINITION_CONTEXT('part definition',#1003,'design');
#999=PRODUCT_DEFINITION('2026-04-23-16-30-54-288','tomodachi',#1000,#998);
#1000=PRODUCT_DEFINITION_FORMATION('',$,#1005);
#1001=PRODUCT_RELATED_PRODUCT_CATEGORY('tomodachi','tomodachi',(#1005));
#1002=APPLICATION_PROTOCOL_DEFINITION('international standard',
'automotive_design',2009,#1003);
#1003=APPLICATION_CONTEXT(
'Core Data for Automotive Mechanical Design Process');
#1004=PRODUCT_CONTEXT('part definition',#1003,'mechanical');
#1005=PRODUCT('2026-04-23-16-30-54-288','tomodachi',$,(#1004));
#1006=PRESENTATION_STYLE_ASSIGNMENT((#1009));
#1007=PRESENTATION_STYLE_ASSIGNMENT((#1010));
#1008=PRESENTATION_STYLE_ASSIGNMENT((#1011));
#1009=SURFACE_STYLE_USAGE(.BOTH.,#1012);
#1010=SURFACE_STYLE_USAGE(.BOTH.,#1013);
#1011=SURFACE_STYLE_USAGE(.BOTH.,#1014);
#1012=SURFACE_SIDE_STYLE('',(#1015));
#1013=SURFACE_SIDE_STYLE('',(#1016));
#1014=SURFACE_SIDE_STYLE('',(#1017));
#1015=SURFACE_STYLE_FILL_AREA(#1018);
#1016=SURFACE_STYLE_FILL_AREA(#1019);
#1017=SURFACE_STYLE_FILL_AREA(#1020);
#1018=FILL_AREA_STYLE('Steel - Satin',(#1021));
#1019=FILL_AREA_STYLE('ABS (White)',(#1022));
#1020=FILL_AREA_STYLE('Steel - Satin (1)',(#1023));
#1021=FILL_AREA_STYLE_COLOUR('Steel - Satin',#1024);
#1022=FILL_AREA_STYLE_COLOUR('ABS (White)',#1025);
#1023=FILL_AREA_STYLE_COLOUR('Steel - Satin (1)',#1026);
#1024=COLOUR_RGB('Steel - Satin',0.627450980392157,0.627450980392157,0.627450980392157);
#1025=COLOUR_RGB('ABS (White)',0.964705882352941,0.964705882352941,0.952941176470588);
#1026=COLOUR_RGB('Steel - Satin (1)',0.254901960784314,0.254901960784314,
0.254901960784314);
ENDSEC;
END-ISO-10303-21;
